<ttFont>
    <TTGlyph name=".notdef" xMin="-125" yMin="-223" xMax="1886" yMax="2110">
      <contour>
        <pt x="899" y="1902" on="1"/>
        <pt x="977" y="1907" on="1"/>
        <pt x="1014" y="1907" on="0"/>
        <pt x="1085" y="1881" on="0"/>
        <pt x="1134" y="1881" on="0"/>
        <pt x="1165" y="1886" on="0"/>
        <pt x="1176" y="1899" on="1"/>
        <pt x="1202" y="1930" on="0"/>
        <pt x="1246" y="2101" on="0"/>
        <pt x="1290" y="2110" on="1"/>
        <pt x="1297" y="2110" on="1"/>
        <pt x="1301" y="2110" on="0"/>
        <pt x="1349" y="2012" on="0"/>
        <pt x="1380" y="1959" on="0"/>
        <pt x="1390" y="1938" on="1"/>
        <pt x="1419" y="1877" on="0"/>
        <pt x="1419" y="1844" on="1"/>
        <pt x="1410" y="1766" on="1"/>
        <pt x="1410" y="1722" on="0"/>
        <pt x="1451" y="1636" on="0"/>
        <pt x="1451" y="1546" on="0"/>
        <pt x="1412" y="1512" on="1"/>
        <pt x="1412" y="1505" on="0"/>
        <pt x="1439" y="1505" on="0"/>
        <pt x="1439" y="1500" on="1"/>
        <pt x="1402" y="1500" on="1"/>
        <pt x="1390" y="1495" on="0"/>
        <pt x="1380" y="1485" on="1"/>
        <pt x="1490" y="1444" on="1"/>
        <pt x="1490" y="1441" on="0"/>
        <pt x="1492" y="1441" on="0"/>
        <pt x="1492" y="1439" on="1"/>
        <pt x="1490" y="1436" on="1"/>
        <pt x="1487" y="1439" on="1"/>
        <pt x="1482" y="1439" on="0"/>
        <pt x="1475" y="1444" on="0"/>
        <pt x="1472" y="1439" on="1"/>
        <pt x="1470" y="1439" on="0"/>
        <pt x="1467" y="1449" on="0"/>
        <pt x="1459" y="1449" on="0"/>
        <pt x="1456" y="1446" on="1"/>
        <pt x="1441" y="1454" on="1"/>
        <pt x="1436" y="1454" on="1"/>
        <pt x="1421" y="1454" on="0"/>
        <pt x="1385" y="1475" on="0"/>
        <pt x="1354" y="1475" on="0"/>
        <pt x="1344" y="1467" on="1"/>
        <pt x="1336" y="1457" on="0"/>
        <pt x="1336" y="1454" on="0"/>
        <pt x="1339" y="1454" on="1"/>
        <pt x="1375" y="1434" on="1"/>
        <pt x="1338" y="1444" on="0"/>
        <pt x="1331" y="1451" on="1"/>
        <pt x="1326" y="1449" on="0"/>
        <pt x="1302" y="1446" on="0"/>
        <pt x="1292" y="1438" on="1"/>
        <pt x="1267" y="1420" on="0"/>
        <pt x="1267" y="1319" on="0"/>
        <pt x="1324" y="1192" on="0"/>
        <pt x="1334" y="1129" on="1"/>
        <pt x="1347" y="1076" on="0"/>
        <pt x="1347" y="1023" on="1"/>
        <pt x="1343" y="950" on="1"/>
        <pt x="1343" y="899" on="0"/>
        <pt x="1356" y="850" on="1"/>
        <pt x="1359" y="850" on="0"/>
        <pt x="1402" y="924" on="0"/>
        <pt x="1429" y="969" on="1"/>
        <pt x="1495" y="1080" on="0"/>
        <pt x="1512" y="1101" on="1"/>
        <pt x="1539" y="1150" on="0"/>
        <pt x="1597" y="1241" on="0"/>
        <pt x="1617" y="1295" on="1"/>
        <pt x="1625" y="1311" on="1"/>
        <pt x="1631" y="1356" on="0"/>
        <pt x="1676" y="1454" on="0"/>
        <pt x="1676" y="1575" on="0"/>
        <pt x="1656" y="1654" on="0"/>
        <pt x="1642" y="1692" on="1"/>
        <pt x="1607" y="1792" on="0"/>
        <pt x="1607" y="1881" on="0"/>
        <pt x="1631" y="1937" on="0"/>
        <pt x="1671" y="1974" on="1"/>
        <pt x="1676" y="1974" on="1"/>
        <pt x="1682" y="1974" on="0"/>
        <pt x="1697" y="1979" on="1"/>
        <pt x="1761" y="1964" on="1"/>
        <pt x="1851" y="1900" on="0"/>
        <pt x="1878" y="1706" on="1"/>
        <pt x="1886" y="1654" on="0"/>
        <pt x="1886" y="1610" on="1"/>
        <pt x="1886" y="1369" on="0"/>
        <pt x="1690" y="1082" on="1"/>
        <pt x="1690" y="1080" on="0"/>
        <pt x="1682" y="1077" on="1"/>
        <pt x="1666" y="1055" on="0"/>
        <pt x="1612" y="985" on="0"/>
        <pt x="1586" y="950" on="1"/>
        <pt x="1526" y="865" on="0"/>
        <pt x="1526" y="842" on="1"/>
        <pt x="1454" y="740" on="0"/>
        <pt x="1454" y="674" on="1"/>
        <pt x="1456" y="671" on="0"/>
        <pt x="1467" y="671" on="0"/>
        <pt x="1477" y="679" on="0"/>
        <pt x="1490" y="679" on="1"/>
        <pt x="1556" y="704" on="0"/>
        <pt x="1666" y="704" on="0"/>
        <pt x="1695" y="676" on="1"/>
        <pt x="1736" y="625" on="1"/>
        <pt x="1790" y="520" on="0"/>
        <pt x="1790" y="384" on="0"/>
        <pt x="1692" y="300" on="0"/>
        <pt x="1566" y="246" on="0"/>
        <pt x="1449" y="217" on="0"/>
        <pt x="1431" y="212" on="1"/>
        <pt x="1387" y="210" on="0"/>
        <pt x="1290" y="187" on="0"/>
        <pt x="1262" y="181" on="1"/>
        <pt x="1255" y="166" on="0"/>
        <pt x="1257" y="127" on="0"/>
        <pt x="1229" y="122" on="1"/>
        <pt x="1216" y="125" on="1"/>
        <pt x="1195" y="105" on="0"/>
        <pt x="1147" y="105" on="1"/>
        <pt x="1116" y="112" on="1"/>
        <pt x="1109" y="110" on="1"/>
        <pt x="1106" y="110" on="1"/>
        <pt x="1070" y="130" on="1"/>
        <pt x="1057" y="156" on="1"/>
        <pt x="1014" y="156" on="1"/>
        <pt x="996" y="110" on="1"/>
        <pt x="985" y="105" on="0"/>
        <pt x="967" y="105" on="0"/>
        <pt x="947" y="110" on="1"/>
        <pt x="942" y="92" on="1"/>
        <pt x="937" y="87" on="0"/>
        <pt x="927" y="87" on="0"/>
        <pt x="919" y="82" on="1"/>
        <pt x="884" y="107" on="1"/>
        <pt x="881" y="102" on="1"/>
        <pt x="877" y="102" on="1"/>
        <pt x="877" y="107" on="1"/>
        <pt x="872" y="105" on="0"/>
        <pt x="870" y="100" on="0"/>
        <pt x="865" y="95" on="0"/>
        <pt x="865" y="92" on="1"/>
        <pt x="860" y="92" on="1"/>
        <pt x="830" y="110" on="0"/>
        <pt x="830" y="161" on="1"/>
        <pt x="814" y="169" on="0"/>
        <pt x="772" y="166" on="0"/>
        <pt x="755" y="171" on="1"/>
        <pt x="699" y="179" on="1"/>
        <pt x="653" y="179" on="0"/>
        <pt x="540" y="212" on="0"/>
        <pt x="535" y="217" on="1"/>
        <pt x="420" y="246" on="0"/>
        <pt x="307" y="291" on="0"/>
        <pt x="271" y="291" on="1"/>
        <pt x="212" y="291" on="1"/>
        <pt x="195" y="297" on="1"/>
        <pt x="120" y="284" on="1"/>
        <pt x="154" y="249" on="0"/>
        <pt x="159" y="192" on="0"/>
        <pt x="149" y="174" on="1"/>
        <pt x="97" y="151" on="1"/>
        <pt x="88" y="136" on="0"/>
        <pt x="85" y="136" on="1"/>
        <pt x="85" y="132" on="0"/>
        <pt x="66" y="115" on="1"/>
        <pt x="36" y="110" on="1"/>
        <pt x="29" y="117" on="1"/>
        <pt x="-20" y="139" on="1"/>
        <pt x="-29" y="139" on="0"/>
        <pt x="-29" y="122" on="1"/>
        <pt x="-29" y="117" on="1"/>
        <pt x="-29" y="115" on="0"/>
        <pt x="-25" y="115" on="1"/>
        <pt x="34" y="87" on="1"/>
        <pt x="39" y="76" on="0"/>
        <pt x="39" y="59" on="0"/>
        <pt x="20" y="41" on="1"/>
        <pt x="17" y="41" on="0"/>
        <pt x="2" y="36" on="1"/>
        <pt x="-10" y="36" on="1"/>
        <pt x="-34" y="46" on="1"/>
        <pt x="-59" y="74" on="1"/>
        <pt x="-74" y="61" on="1"/>
        <pt x="-74" y="49" on="0"/>
        <pt x="-49" y="39" on="0"/>
        <pt x="-18" y="25" on="0"/>
        <pt x="7" y="10" on="0"/>
        <pt x="7" y="-15" on="0"/>
        <pt x="2" y="-25" on="1"/>
        <pt x="2" y="-31" on="1"/>
        <pt x="17" y="-41" on="0"/>
        <pt x="54" y="-46" on="0"/>
        <pt x="54" y="-100" on="0"/>
        <pt x="29" y="-115" on="0"/>
        <pt x="10" y="-115" on="1"/>
        <pt x="-44" y="-110" on="1"/>
        <pt x="-49" y="-113" on="1"/>
        <pt x="-51" y="-113" on="0"/>
        <pt x="-51" y="-115" on="1"/>
        <pt x="0" y="-213" on="1"/>
        <pt x="-5" y="-223" on="1"/>
        <pt x="-26" y="-223" on="0"/>
        <pt x="-55" y="-142" on="1"/>
        <pt x="-61" y="-125" on="0"/>
        <pt x="-61" y="-110" on="0"/>
        <pt x="-59" y="-103" on="0"/>
        <pt x="-61" y="-100" on="1"/>
        <pt x="-74" y="-100" on="1"/>
        <pt x="-76" y="-103" on="0"/>
        <pt x="-76" y="-112" on="1"/>
        <pt x="-76" y="-130" on="1"/>
        <pt x="-76" y="-139" on="0"/>
        <pt x="-74" y="-151" on="1"/>
        <pt x="-39" y="-208" on="1"/>
        <pt x="-44" y="-218" on="1"/>
        <pt x="-51" y="-218" on="1"/>
        <pt x="-61" y="-193" on="0"/>
        <pt x="-95" y="-144" on="0"/>
        <pt x="-95" y="-110" on="1"/>
        <pt x="-88" y="-103" on="0"/>
        <pt x="-88" y="-93" on="0"/>
        <pt x="-125" y="-46" on="0"/>
        <pt x="-125" y="-8" on="0"/>
        <pt x="-105" y="22" on="1"/>
        <pt x="-110" y="39" on="0"/>
        <pt x="-110" y="82" on="0"/>
        <pt x="-69" y="110" on="0"/>
        <pt x="-64" y="136" on="0"/>
        <pt x="-52" y="155" on="1"/>
        <pt x="2" y="237" on="1"/>
        <pt x="10" y="259" on="1"/>
        <pt x="29" y="271" on="1"/>
        <pt x="36" y="271" on="1"/>
        <pt x="64" y="312" on="1"/>
        <pt x="120" y="330" on="1"/>
        <pt x="161" y="330" on="1"/>
        <pt x="212" y="351" on="1"/>
        <pt x="317" y="374" on="1"/>
        <pt x="320" y="376" on="0"/>
        <pt x="320" y="379" on="1"/>
        <pt x="291" y="464" on="0"/>
        <pt x="291" y="586" on="0"/>
        <pt x="330" y="642" on="0"/>
        <pt x="364" y="676" on="1"/>
        <pt x="405" y="704" on="1"/>
        <pt x="415" y="706" on="1"/>
        <pt x="435" y="714" on="1"/>
        <pt x="432" y="714" on="1"/>
        <pt x="435" y="714" on="1"/>
        <pt x="437" y="714" on="0"/>
        <pt x="442" y="716" on="1"/>
        <pt x="531" y="703" on="0"/>
        <pt x="601" y="655" on="1"/>
        <pt x="605" y="655" on="0"/>
        <pt x="622" y="700" on="1"/>
        <pt x="656" y="787" on="0"/>
        <pt x="691" y="850" on="0"/>
        <pt x="709" y="950" on="0"/>
        <pt x="722" y="1057" on="0"/>
        <pt x="735" y="1165" on="0"/>
        <pt x="757" y="1216" on="1"/>
        <pt x="762" y="1265" on="0"/>
        <pt x="806" y="1359" on="0"/>
        <pt x="806" y="1405" on="1"/>
        <pt x="804" y="1429" on="1"/>
        <pt x="765" y="1451" on="1"/>
        <pt x="722" y="1439" on="1"/>
        <pt x="709" y="1441" on="1"/>
        <pt x="681" y="1434" on="0"/>
        <pt x="642" y="1400" on="0"/>
        <pt x="609" y="1400" on="0"/>
        <pt x="604" y="1402" on="0"/>
        <pt x="601" y="1402" on="1"/>
        <pt x="735" y="1461" on="1"/>
        <pt x="696" y="1492" on="1"/>
        <pt x="694" y="1492" on="0"/>
        <pt x="650" y="1472" on="0"/>
        <pt x="647" y="1472" on="1"/>
        <pt x="655" y="1480" on="0"/>
        <pt x="691" y="1497" on="1"/>
        <pt x="669" y="1521" on="0"/>
        <pt x="630" y="1569" on="0"/>
        <pt x="630" y="1605" on="1"/>
        <pt x="630" y="1641" on="0"/>
        <pt x="660" y="1702" on="0"/>
        <pt x="660" y="1776" on="0"/>
        <pt x="642" y="1859" on="1"/>
        <pt x="642" y="1900" on="0"/>
        <pt x="676" y="1966" on="1"/>
        <pt x="738" y="2084" on="0"/>
        <pt x="747" y="2084" on="1"/>
        <pt x="760" y="2084" on="1"/>
        <pt x="767" y="2084" on="0"/>
        <pt x="786" y="2035" on="0"/>
        <pt x="798" y="2006" on="1"/>
        <pt x="828" y="1928" on="0"/>
        <pt x="842" y="1917" on="1"/>
        <pt x="864" y="1902" on="0"/>
      </contour>
      <contour>
        <pt x="872" y="1477" on="1"/>
        <pt x="872" y="1464" on="0"/>
        <pt x="922" y="1464" on="1"/>
        <pt x="1034" y="1464" on="0"/>
        <pt x="1034" y="1505" on="1"/>
        <pt x="1034" y="1517" on="0"/>
        <pt x="982" y="1559" on="0"/>
        <pt x="977" y="1575" on="0"/>
        <pt x="982" y="1585" on="1"/>
        <pt x="982" y="1590" on="1"/>
        <pt x="1009" y="1597" on="0"/>
        <pt x="1062" y="1597" on="1"/>
        <pt x="1104" y="1587" on="0"/>
        <pt x="1109" y="1571" on="1"/>
        <pt x="1109" y="1566" on="1"/>
        <pt x="1052" y="1510" on="1"/>
        <pt x="1052" y="1495" on="1"/>
        <pt x="1055" y="1485" on="0"/>
        <pt x="1062" y="1485" on="1"/>
        <pt x="1090" y="1477" on="1"/>
        <pt x="1104" y="1472" on="0"/>
        <pt x="1126" y="1464" on="0"/>
        <pt x="1190" y="1464" on="0"/>
        <pt x="1216" y="1482" on="1"/>
        <pt x="1092" y="1502" on="1"/>
        <pt x="1077" y="1517" on="1"/>
        <pt x="1080" y="1534" on="0"/>
        <pt x="1090" y="1536" on="1"/>
        <pt x="1092" y="1534" on="0"/>
        <pt x="1102" y="1534" on="1"/>
        <pt x="1118" y="1534" on="1"/>
        <pt x="1126" y="1534" on="0"/>
        <pt x="1197" y="1536" on="0"/>
        <pt x="1314" y="1524" on="0"/>
        <pt x="1372" y="1521" on="1"/>
        <pt x="1385" y="1541" on="0"/>
        <pt x="1419" y="1575" on="0"/>
        <pt x="1419" y="1617" on="0"/>
        <pt x="1397" y="1659" on="0"/>
        <pt x="1384" y="1680" on="1"/>
        <pt x="1349" y="1732" on="0"/>
        <pt x="1349" y="1779" on="0"/>
        <pt x="1380" y="1820" on="0"/>
        <pt x="1380" y="1895" on="0"/>
        <pt x="1331" y="1981" on="0"/>
        <pt x="1319" y="2027" on="0"/>
        <pt x="1314" y="2047" on="0"/>
        <pt x="1310" y="2060" on="1"/>
        <pt x="1298" y="2094" on="0"/>
        <pt x="1295" y="2094" on="1"/>
        <pt x="1276" y="2094" on="0"/>
        <pt x="1257" y="2035" on="0"/>
        <pt x="1249" y="2012" on="0"/>
        <pt x="1251" y="2005" on="0"/>
        <pt x="1251" y="1990" on="1"/>
        <pt x="1251" y="1917" on="1"/>
        <pt x="1251" y="1871" on="0"/>
        <pt x="1262" y="1837" on="1"/>
        <pt x="1260" y="1832" on="0"/>
        <pt x="1255" y="1827" on="1"/>
        <pt x="1233" y="1853" on="0"/>
        <pt x="1233" y="1890" on="1"/>
        <pt x="1234" y="1925" on="1"/>
        <pt x="1234" y="1952" on="0"/>
        <pt x="1231" y="1976" on="1"/>
        <pt x="1219" y="1935" on="0"/>
        <pt x="1182" y="1854" on="0"/>
        <pt x="1099" y="1854" on="0"/>
        <pt x="1026" y="1879" on="0"/>
        <pt x="991" y="1879" on="1"/>
        <pt x="911" y="1871" on="1"/>
        <pt x="832" y="1871" on="0"/>
        <pt x="799" y="1935" on="1"/>
        <pt x="794" y="1932" on="0"/>
        <pt x="809" y="1889" on="0"/>
        <pt x="809" y="1832" on="1"/>
        <pt x="797" y="1801" on="0"/>
        <pt x="786" y="1812" on="1"/>
        <pt x="786" y="1861" on="1"/>
        <pt x="786" y="1899" on="0"/>
        <pt x="778" y="1929" on="1"/>
        <pt x="762" y="1989" on="0"/>
        <pt x="762" y="2012" on="1"/>
        <pt x="767" y="2012" on="0"/>
        <pt x="770" y="2015" on="1"/>
        <pt x="765" y="2059" on="1"/>
        <pt x="765" y="2061" on="0"/>
        <pt x="757" y="2069" on="1"/>
        <pt x="750" y="2064" on="1"/>
        <pt x="752" y="2066" on="1"/>
        <pt x="742" y="2066" on="0"/>
        <pt x="677" y="1883" on="1"/>
        <pt x="665" y="1849" on="1"/>
        <pt x="665" y="1815" on="0"/>
        <pt x="709" y="1766" on="0"/>
        <pt x="709" y="1715" on="0"/>
        <pt x="699" y="1682" on="0"/>
        <pt x="692" y="1669" on="1"/>
        <pt x="674" y="1639" on="0"/>
        <pt x="674" y="1605" on="0"/>
        <pt x="689" y="1544" on="0"/>
        <pt x="701" y="1544" on="1"/>
        <pt x="719" y="1546" on="1"/>
        <pt x="719" y="1541" on="1"/>
        <pt x="704" y="1539" on="1"/>
        <pt x="714" y="1512" on="1"/>
        <pt x="727" y="1507" on="1"/>
        <pt x="891" y="1541" on="1"/>
        <pt x="757" y="1539" on="1"/>
        <pt x="757" y="1541" on="0"/>
        <pt x="760" y="1544" on="0"/>
        <pt x="755" y="1549" on="1"/>
        <pt x="757" y="1551" on="1"/>
        <pt x="799" y="1554" on="1"/>
        <pt x="801" y="1556" on="0"/>
        <pt x="809" y="1556" on="1"/>
        <pt x="884" y="1556" on="1"/>
        <pt x="955" y="1556" on="0"/>
        <pt x="955" y="1541" on="1"/>
        <pt x="955" y="1539" on="0"/>
        <pt x="950" y="1539" on="1"/>
        <pt x="957" y="1539" on="1"/>
        <pt x="967" y="1539" on="0"/>
        <pt x="977" y="1536" on="1"/>
        <pt x="977" y="1524" on="0"/>
        <pt x="972" y="1517" on="1"/>
        <pt x="962" y="1517" on="1"/>
        <pt x="955" y="1502" on="0"/>
        <pt x="955" y="1500" on="1"/>
        <pt x="957" y="1500" on="1"/>
        <pt x="942" y="1485" on="0"/>
        <pt x="891" y="1485" on="0"/>
      </contour>
      <contour>
        <pt x="-69" y="-15" on="1"/>
        <pt x="-74" y="-15" on="1"/>
        <pt x="-71" y="-15" on="0"/>
        <pt x="-71" y="-39" on="1"/>
        <pt x="-61" y="-46" on="1"/>
        <pt x="-54" y="-44" on="0"/>
        <pt x="-44" y="-34" on="1"/>
      </contour>
      <contour>
        <pt x="-90" y="2" on="1"/>
        <pt x="-103" y="2" on="1"/>
        <pt x="-108" y="-3" on="0"/>
        <pt x="-108" y="-56" on="0"/>
        <pt x="-31" y="-100" on="0"/>
        <pt x="12" y="-100" on="1"/>
        <pt x="25" y="-100" on="1"/>
        <pt x="39" y="-88" on="1"/>
        <pt x="39" y="-64" on="0"/>
        <pt x="31" y="-59" on="1"/>
        <pt x="7" y="-51" on="1"/>
        <pt x="-13" y="-51" on="0"/>
        <pt x="-23" y="-49" on="1"/>
        <pt x="-49" y="-56" on="1"/>
        <pt x="-49" y="-59" on="0"/>
        <pt x="-51" y="-59" on="0"/>
        <pt x="-51" y="-64" on="0"/>
        <pt x="-44" y="-64" on="1"/>
        <pt x="-13" y="-59" on="1"/>
        <pt x="7" y="-61" on="1"/>
        <pt x="12" y="-71" on="1"/>
        <pt x="12" y="-74" on="0"/>
        <pt x="15" y="-74" on="1"/>
        <pt x="5" y="-85" on="0"/>
        <pt x="-10" y="-88" on="1"/>
        <pt x="-93" y="-76" on="0"/>
        <pt x="-93" y="-23" on="1"/>
        <pt x="-93" y="-8" on="0"/>
        <pt x="-88" y="0" on="1"/>
      </contour>
      <contour>
        <pt x="-69" y="95" on="1"/>
        <pt x="-71" y="97" on="1"/>
        <pt x="-74" y="97" on="0"/>
        <pt x="-93" y="71" on="0"/>
        <pt x="-93" y="59" on="1"/>
        <pt x="-93" y="17" on="0"/>
        <pt x="-31" y="-15" on="0"/>
        <pt x="-10" y="-15" on="0"/>
        <pt x="-10" y="-3" on="0"/>
        <pt x="-31" y="29" on="0"/>
        <pt x="-49" y="29" on="0"/>
        <pt x="-49" y="22" on="1"/>
        <pt x="-36" y="15" on="1"/>
        <pt x="-29" y="0" on="1"/>
        <pt x="-29" y="-3" on="0"/>
        <pt x="-49" y="2" on="0"/>
        <pt x="-85" y="34" on="0"/>
        <pt x="-85" y="69" on="0"/>
        <pt x="-66" y="85" on="0"/>
        <pt x="-66" y="92" on="0"/>
        <pt x="-69" y="92" on="0"/>
      </contour>
      <contour>
        <pt x="-3" y="54" on="1"/>
        <pt x="12" y="56" on="1"/>
        <pt x="17" y="54" on="1"/>
        <pt x="22" y="69" on="1"/>
        <pt x="5" y="87" on="1"/>
        <pt x="-23" y="95" on="1"/>
        <pt x="7" y="69" on="1"/>
        <pt x="5" y="66" on="1"/>
        <pt x="7" y="64" on="1"/>
        <pt x="5" y="64" on="0"/>
        <pt x="5" y="61" on="0"/>
        <pt x="0" y="61" on="0"/>
        <pt x="0" y="69" on="0"/>
        <pt x="-5" y="69" on="1"/>
        <pt x="-13" y="69" on="1"/>
        <pt x="-29" y="71" on="0"/>
        <pt x="-44" y="122" on="1"/>
        <pt x="-34" y="156" on="1"/>
        <pt x="-44" y="151" on="1"/>
        <pt x="-54" y="110" on="1"/>
        <pt x="-49" y="100" on="0"/>
        <pt x="-49" y="97" on="1"/>
        <pt x="-49" y="95" on="1"/>
        <pt x="-36" y="79" on="1"/>
        <pt x="-34" y="71" on="0"/>
        <pt x="-29" y="61" on="1"/>
        <pt x="-10" y="59" on="1"/>
        <pt x="-5" y="54" on="0"/>
      </contour>
      <contour>
        <pt x="-10" y="179" on="1"/>
        <pt x="-13" y="179" on="1"/>
        <pt x="-13" y="176" on="0"/>
        <pt x="-15" y="176" on="0"/>
        <pt x="-15" y="161" on="0"/>
        <pt x="31" y="125" on="0"/>
        <pt x="56" y="125" on="1"/>
        <pt x="56" y="122" on="0"/>
        <pt x="54" y="122" on="1"/>
        <pt x="54" y="132" on="1"/>
        <pt x="12" y="154" on="1"/>
      </contour>
      <contour>
        <pt x="2" y="210" on="1"/>
        <pt x="0" y="207" on="0"/>
        <pt x="0" y="202" on="1"/>
        <pt x="10" y="179" on="0"/>
        <pt x="46" y="151" on="0"/>
        <pt x="66" y="151" on="0"/>
        <pt x="69" y="154" on="1"/>
        <pt x="17" y="184" on="1"/>
      </contour>
      <contour>
        <pt x="95" y="230" on="1"/>
        <pt x="95" y="222" on="1"/>
        <pt x="97" y="225" on="0"/>
        <pt x="100" y="225" on="1"/>
        <pt x="92" y="227" on="0"/>
        <pt x="92" y="230" on="1"/>
      </contour>
      <contour>
        <pt x="36" y="254" on="1"/>
        <pt x="34" y="256" on="1"/>
        <pt x="22" y="251" on="1"/>
        <pt x="20" y="244" on="0"/>
        <pt x="20" y="212" on="0"/>
        <pt x="39" y="192" on="0"/>
        <pt x="82" y="171" on="1"/>
        <pt x="92" y="174" on="0"/>
        <pt x="100" y="174" on="1"/>
        <pt x="64" y="192" on="1"/>
        <pt x="39" y="217" on="0"/>
        <pt x="39" y="254" on="1"/>
      </contour>
      <contour>
        <pt x="112" y="195" on="1"/>
        <pt x="106" y="195" on="0"/>
        <pt x="82" y="217" on="1"/>
        <pt x="76" y="217" on="1"/>
        <pt x="74" y="217" on="0"/>
        <pt x="74" y="220" on="1"/>
        <pt x="71" y="217" on="1"/>
        <pt x="74" y="217" on="1"/>
        <pt x="66" y="227" on="0"/>
        <pt x="66" y="271" on="0"/>
        <pt x="92" y="297" on="0"/>
        <pt x="130" y="307" on="0"/>
        <pt x="169" y="310" on="0"/>
        <pt x="184" y="315" on="1"/>
        <pt x="192" y="315" on="1"/>
        <pt x="200" y="315" on="0"/>
        <pt x="200" y="320" on="1"/>
        <pt x="200" y="322" on="1"/>
        <pt x="192" y="322" on="1"/>
        <pt x="171" y="312" on="0"/>
        <pt x="122" y="312" on="0"/>
        <pt x="104" y="310" on="1"/>
        <pt x="59" y="303" on="0"/>
        <pt x="59" y="246" on="1"/>
        <pt x="59" y="210" on="0"/>
        <pt x="90" y="192" on="1"/>
        <pt x="120" y="181" on="1"/>
        <pt x="141" y="186" on="0"/>
        <pt x="144" y="195" on="1"/>
        <pt x="144" y="230" on="0"/>
        <pt x="112" y="266" on="0"/>
        <pt x="90" y="271" on="0"/>
        <pt x="90" y="259" on="0"/>
        <pt x="115" y="241" on="0"/>
        <pt x="127" y="220" on="1"/>
        <pt x="127" y="215" on="0"/>
        <pt x="117" y="197" on="1"/>
      </contour>
      <contour>
        <pt x="999" y="320" on="1"/>
        <pt x="991" y="237" on="1"/>
        <pt x="991" y="207" on="0"/>
        <pt x="1006" y="192" on="1"/>
        <pt x="1047" y="197" on="1"/>
        <pt x="1062" y="259" on="0"/>
        <pt x="1062" y="284" on="1"/>
        <pt x="1062" y="318" on="1"/>
        <pt x="1062" y="325" on="0"/>
        <pt x="1055" y="325" on="1"/>
      </contour>
      <contour>
        <pt x="310" y="345" on="1"/>
        <pt x="232" y="337" on="1"/>
        <pt x="220" y="332" on="0"/>
        <pt x="220" y="317" on="0"/>
        <pt x="222" y="315" on="1"/>
        <pt x="337" y="312" on="1"/>
        <pt x="320" y="345" on="1"/>
      </contour>
      <contour>
        <pt x="789" y="374" on="1"/>
        <pt x="784" y="374" on="1"/>
        <pt x="781" y="371" on="0"/>
        <pt x="781" y="369" on="1"/>
        <pt x="784" y="369" on="0"/>
        <pt x="784" y="366" on="0"/>
        <pt x="786" y="366" on="1"/>
        <pt x="786" y="369" on="1"/>
        <pt x="789" y="371" on="0"/>
      </contour>
      <contour>
        <pt x="752" y="376" on="1"/>
        <pt x="749" y="384" on="0"/>
        <pt x="740" y="389" on="1"/>
        <pt x="735" y="379" on="0"/>
        <pt x="735" y="378" on="1"/>
        <pt x="735" y="374" on="0"/>
        <pt x="750" y="374" on="0"/>
      </contour>
      <contour>
        <pt x="1287" y="405" on="1"/>
        <pt x="1270" y="402" on="0"/>
        <pt x="1270" y="389" on="1"/>
        <pt x="1275" y="389" on="1"/>
        <pt x="1282" y="389" on="0"/>
        <pt x="1295" y="402" on="1"/>
        <pt x="1287" y="402" on="0"/>
      </contour>
      <contour>
        <pt x="669" y="584" on="1"/>
        <pt x="657" y="571" on="0"/>
        <pt x="652" y="571" on="1"/>
        <pt x="642" y="571" on="1"/>
        <pt x="637" y="571" on="0"/>
        <pt x="637" y="569" on="1"/>
        <pt x="701" y="550" on="1"/>
      </contour>
      <contour>
        <pt x="1727" y="586" on="1"/>
        <pt x="1725" y="550" on="1"/>
        <pt x="1616" y="514" on="0"/>
        <pt x="1461" y="484" on="0"/>
        <pt x="1451" y="482" on="1"/>
        <pt x="1429" y="476" on="0"/>
        <pt x="1385" y="476" on="0"/>
        <pt x="1377" y="479" on="1"/>
        <pt x="1375" y="476" on="0"/>
        <pt x="1375" y="474" on="1"/>
        <pt x="1410" y="399" on="1"/>
        <pt x="1407" y="394" on="0"/>
        <pt x="1402" y="394" on="1"/>
        <pt x="1398" y="394" on="0"/>
        <pt x="1385" y="415" on="0"/>
        <pt x="1382" y="415" on="1"/>
        <pt x="1311" y="363" on="0"/>
        <pt x="1255" y="359" on="1"/>
        <pt x="1239" y="327" on="0"/>
        <pt x="1236" y="261" on="0"/>
        <pt x="1234" y="230" on="1"/>
        <pt x="1236" y="217" on="0"/>
        <pt x="1251" y="212" on="1"/>
        <pt x="1538" y="268" on="0"/>
        <pt x="1646" y="325" on="0"/>
        <pt x="1690" y="386" on="0"/>
        <pt x="1725" y="435" on="1"/>
        <pt x="1741" y="476" on="0"/>
        <pt x="1741" y="552" on="0"/>
      </contour>
      <contour>
        <pt x="652" y="596" on="1"/>
        <pt x="650" y="596" on="0"/>
        <pt x="642" y="604" on="1"/>
        <pt x="635" y="589" on="0"/>
        <pt x="635" y="586" on="1"/>
        <pt x="640" y="586" on="1"/>
        <pt x="650" y="589" on="0"/>
      </contour>
      <contour>
        <pt x="351" y="606" on="1"/>
        <pt x="345" y="606" on="1"/>
        <pt x="330" y="555" on="0"/>
        <pt x="330" y="499" on="0"/>
        <pt x="337" y="427" on="0"/>
        <pt x="344" y="390" on="1"/>
        <pt x="361" y="300" on="0"/>
        <pt x="374" y="300" on="1"/>
        <pt x="663" y="200" on="0"/>
        <pt x="811" y="200" on="1"/>
        <pt x="835" y="200" on="0"/>
        <pt x="847" y="202" on="1"/>
        <pt x="847" y="312" on="0"/>
        <pt x="819" y="340" on="1"/>
        <pt x="809" y="335" on="0"/>
        <pt x="794" y="335" on="1"/>
        <pt x="742" y="335" on="1"/>
        <pt x="699" y="335" on="0"/>
        <pt x="679" y="305" on="0"/>
        <pt x="665" y="291" on="1"/>
        <pt x="647" y="297" on="0"/>
        <pt x="647" y="296" on="1"/>
        <pt x="647" y="300" on="1"/>
        <pt x="719" y="447" on="1"/>
        <pt x="669" y="466" on="0"/>
        <pt x="584" y="489" on="0"/>
        <pt x="542" y="503" on="1"/>
        <pt x="447" y="534" on="0"/>
      </contour>
      <contour>
        <pt x="599" y="584" on="1"/>
        <pt x="613" y="574" on="0"/>
        <pt x="618" y="574" on="1"/>
        <pt x="625" y="574" on="0"/>
        <pt x="625" y="589" on="1"/>
        <pt x="615" y="604" on="1"/>
        <pt x="622" y="620" on="1"/>
        <pt x="625" y="620" on="1"/>
        <pt x="622" y="622" on="0"/>
        <pt x="620" y="622" on="0"/>
        <pt x="617" y="625" on="1"/>
        <pt x="611" y="622" on="0"/>
        <pt x="604" y="606" on="1"/>
        <pt x="606" y="594" on="1"/>
        <pt x="606" y="589" on="1"/>
        <pt x="601" y="576" on="0"/>
        <pt x="599" y="576" on="1"/>
      </contour>
      <contour>
        <pt x="1526" y="637" on="1"/>
        <pt x="1512" y="630" on="1"/>
        <pt x="1507" y="630" on="0"/>
        <pt x="1507" y="637" on="0"/>
        <pt x="1505" y="637" on="1"/>
        <pt x="1497" y="630" on="0"/>
        <pt x="1497" y="625" on="1"/>
        <pt x="1497" y="620" on="0"/>
        <pt x="1502" y="620" on="1"/>
        <pt x="1534" y="632" on="1"/>
        <pt x="1529" y="635" on="1"/>
        <pt x="1526" y="635" on="0"/>
      </contour>
      <contour>
        <pt x="1464" y="652" on="1"/>
        <pt x="1439" y="640" on="1"/>
        <pt x="1375" y="594" on="1"/>
        <pt x="1380" y="589" on="0"/>
        <pt x="1402" y="589" on="0"/>
        <pt x="1470" y="606" on="0"/>
        <pt x="1487" y="620" on="1"/>
        <pt x="1480" y="627" on="1"/>
        <pt x="1470" y="622" on="1"/>
        <pt x="1459" y="635" on="1"/>
        <pt x="1470" y="652" on="1"/>
      </contour>
      <contour>
        <pt x="550" y="609" on="0"/>
        <pt x="550" y="621" on="0"/>
        <pt x="561" y="630" on="1"/>
        <pt x="561" y="640" on="1"/>
        <pt x="561" y="657" on="0"/>
        <pt x="566" y="657" on="0"/>
        <pt x="566" y="655" on="1"/>
        <pt x="555" y="660" on="1"/>
        <pt x="551" y="649" on="0"/>
        <pt x="537" y="642" on="1"/>
        <pt x="540" y="630" on="1"/>
        <pt x="527" y="617" on="1"/>
        <pt x="589" y="586" on="1"/>
        <pt x="584" y="596" on="1"/>
        <pt x="584" y="609" on="0"/>
        <pt x="589" y="606" on="0"/>
        <pt x="594" y="611" on="1"/>
        <pt x="594" y="640" on="1"/>
        <pt x="586" y="640" on="1"/>
        <pt x="586" y="627" on="0"/>
        <pt x="574" y="627" on="1"/>
        <pt x="574" y="609" on="1"/>
        <pt x="564" y="604" on="1"/>
      </contour>
      <contour>
        <pt x="1661" y="665" on="1"/>
        <pt x="1641" y="652" on="1"/>
        <pt x="1624" y="649" on="0"/>
        <pt x="1605" y="640" on="1"/>
        <pt x="1559" y="615" on="0"/>
        <pt x="1510" y="599" on="1"/>
        <pt x="1480" y="594" on="0"/>
        <pt x="1412" y="574" on="0"/>
        <pt x="1385" y="569" on="1"/>
        <pt x="1380" y="571" on="0"/>
        <pt x="1367" y="566" on="0"/>
        <pt x="1367" y="564" on="1"/>
        <pt x="1367" y="527" on="1"/>
        <pt x="1367" y="504" on="0"/>
        <pt x="1387" y="496" on="0"/>
        <pt x="1451" y="496" on="0"/>
        <pt x="1569" y="530" on="0"/>
        <pt x="1634" y="564" on="0"/>
        <pt x="1687" y="586" on="0"/>
        <pt x="1707" y="606" on="1"/>
        <pt x="1707" y="615" on="1"/>
        <pt x="1690" y="645" on="0"/>
      </contour>
      <contour>
        <pt x="525" y="676" on="1"/>
        <pt x="520" y="679" on="1"/>
        <pt x="517" y="665" on="1"/>
        <pt x="504" y="657" on="1"/>
        <pt x="501" y="642" on="0"/>
        <pt x="496" y="637" on="1"/>
        <pt x="507" y="627" on="1"/>
        <pt x="507" y="620" on="0"/>
        <pt x="510" y="620" on="1"/>
        <pt x="510" y="622" on="0"/>
        <pt x="512" y="625" on="1"/>
        <pt x="530" y="674" on="1"/>
        <pt x="530" y="676" on="0"/>
      </contour>
      <contour>
        <pt x="410" y="679" on="1"/>
        <pt x="371" y="650" on="1"/>
        <pt x="364" y="637" on="1"/>
        <pt x="359" y="632" on="0"/>
        <pt x="359" y="630" on="1"/>
        <pt x="410" y="586" on="1"/>
        <pt x="430" y="581" on="0"/>
        <pt x="489" y="550" on="0"/>
        <pt x="528" y="531" on="1"/>
        <pt x="627" y="482" on="0"/>
        <pt x="722" y="474" on="1"/>
        <pt x="727" y="496" on="1"/>
        <pt x="727" y="499" on="0"/>
        <pt x="730" y="501" on="1"/>
        <pt x="730" y="512" on="0"/>
        <pt x="719" y="525" on="1"/>
        <pt x="669" y="532" on="1"/>
        <pt x="652" y="542" on="1"/>
        <pt x="601" y="550" on="0"/>
        <pt x="537" y="594" on="0"/>
        <pt x="512" y="599" on="1"/>
        <pt x="486" y="615" on="0"/>
        <pt x="435" y="640" on="0"/>
        <pt x="417" y="662" on="1"/>
        <pt x="415" y="676" on="1"/>
        <pt x="412" y="679" on="0"/>
      </contour>
      <contour>
        <pt x="469" y="681" on="1"/>
        <pt x="479" y="681" on="1"/>
        <pt x="481" y="681" on="0"/>
        <pt x="482" y="676" on="1"/>
        <pt x="486" y="665" on="0"/>
        <pt x="471" y="665" on="1"/>
        <pt x="464" y="665" on="0"/>
        <pt x="464" y="674" on="1"/>
      </contour>
      <contour>
        <pt x="1544" y="640" on="1"/>
        <pt x="1556" y="637" on="1"/>
        <pt x="1577" y="647" on="0"/>
        <pt x="1629" y="669" on="0"/>
        <pt x="1644" y="684" on="1"/>
        <pt x="1587" y="684" on="1"/>
        <pt x="1544" y="681" on="1"/>
        <pt x="1539" y="665" on="0"/>
        <pt x="1534" y="665" on="1"/>
        <pt x="1536" y="658" on="0"/>
        <pt x="1536" y="655" on="0"/>
        <pt x="1534" y="655" on="1"/>
        <pt x="1544" y="669" on="1"/>
        <pt x="1544" y="671" on="0"/>
        <pt x="1546" y="671" on="1"/>
        <pt x="1554" y="671" on="1"/>
        <pt x="1556" y="665" on="0"/>
        <pt x="1556" y="652" on="0"/>
        <pt x="1544" y="642" on="0"/>
        <pt x="1544" y="637" on="1"/>
      </contour>
      <contour>
        <pt x="481" y="645" on="0"/>
        <pt x="479" y="645" on="0"/>
        <pt x="479" y="665" on="0"/>
        <pt x="494" y="686" on="1"/>
        <pt x="496" y="686" on="0"/>
        <pt x="499" y="684" on="1"/>
        <pt x="447" y="694" on="1"/>
        <pt x="435" y="689" on="0"/>
        <pt x="432" y="686" on="0"/>
        <pt x="432" y="681" on="1"/>
        <pt x="432" y="676" on="0"/>
        <pt x="437" y="671" on="1"/>
        <pt x="466" y="650" on="1"/>
        <pt x="479" y="642" on="1"/>
        <pt x="481" y="642" on="1"/>
      </contour>
      <contour>
        <pt x="1339" y="804" on="1"/>
        <pt x="1267" y="422" on="1"/>
        <pt x="1309" y="422" on="1"/>
        <pt x="1321" y="430" on="1"/>
        <pt x="1356" y="435" on="1"/>
        <pt x="1356" y="450" on="0"/>
        <pt x="1334" y="474" on="0"/>
        <pt x="1334" y="547" on="0"/>
        <pt x="1346" y="594" on="0"/>
        <pt x="1365" y="620" on="0"/>
        <pt x="1392" y="637" on="0"/>
        <pt x="1407" y="650" on="1"/>
        <pt x="1392" y="691" on="1"/>
      </contour>
      <contour>
        <pt x="719" y="837" on="1"/>
        <pt x="714" y="837" on="1"/>
        <pt x="689" y="810" on="0"/>
        <pt x="668" y="763" on="1"/>
        <pt x="635" y="689" on="0"/>
        <pt x="635" y="637" on="0"/>
        <pt x="674" y="604" on="0"/>
        <pt x="696" y="582" on="1"/>
        <pt x="757" y="525" on="0"/>
        <pt x="757" y="437" on="0"/>
        <pt x="747" y="410" on="1"/>
        <pt x="750" y="399" on="0"/>
        <pt x="760" y="399" on="1"/>
        <pt x="816" y="396" on="1"/>
        <pt x="800" y="442" on="0"/>
        <pt x="793" y="496" on="1"/>
        <pt x="781" y="591" on="0"/>
        <pt x="735" y="694" on="0"/>
      </contour>
      <contour>
        <pt x="1106" y="584" on="1"/>
        <pt x="1109" y="374" on="1"/>
        <pt x="1109" y="312" on="0"/>
        <pt x="1090" y="251" on="0"/>
        <pt x="1085" y="212" on="1"/>
        <pt x="1096" y="187" on="0"/>
        <pt x="1087" y="149" on="0"/>
        <pt x="1109" y="127" on="1"/>
        <pt x="1114" y="127" on="1"/>
        <pt x="1116" y="159" on="1"/>
        <pt x="1126" y="164" on="1"/>
        <pt x="1136" y="146" on="1"/>
        <pt x="1141" y="146" on="1"/>
        <pt x="1147" y="151" on="0"/>
        <pt x="1147" y="174" on="0"/>
        <pt x="1134" y="205" on="1"/>
        <pt x="1134" y="207" on="0"/>
        <pt x="1139" y="212" on="1"/>
        <pt x="1152" y="212" on="0"/>
        <pt x="1167" y="171" on="0"/>
        <pt x="1167" y="149" on="0"/>
        <pt x="1152" y="127" on="0"/>
        <pt x="1152" y="120" on="1"/>
        <pt x="1172" y="122" on="1"/>
        <pt x="1177" y="127" on="0"/>
        <pt x="1177" y="132" on="1"/>
        <pt x="1177" y="139" on="1"/>
        <pt x="1175" y="136" on="1"/>
        <pt x="1185" y="141" on="1"/>
        <pt x="1187" y="139" on="0"/>
        <pt x="1195" y="139" on="1"/>
        <pt x="1209" y="151" on="0"/>
        <pt x="1209" y="187" on="0"/>
        <pt x="1182" y="197" on="0"/>
        <pt x="1182" y="207" on="0"/>
        <pt x="1182" y="217" on="0"/>
        <pt x="1190" y="214" on="1"/>
        <pt x="1207" y="209" on="0"/>
        <pt x="1211" y="205" on="1"/>
        <pt x="1229" y="159" on="1"/>
        <pt x="1239" y="156" on="1"/>
        <pt x="1244" y="166" on="0"/>
        <pt x="1244" y="184" on="0"/>
        <pt x="1231" y="205" on="1"/>
        <pt x="1197" y="217" on="1"/>
        <pt x="1190" y="241" on="0"/>
        <pt x="1190" y="270" on="1"/>
        <pt x="1190" y="313" on="0"/>
        <pt x="1224" y="407" on="1"/>
        <pt x="1300" y="679" on="0"/>
        <pt x="1300" y="1136" on="0"/>
        <pt x="1260" y="1319" on="1"/>
        <pt x="1249" y="1341" on="0"/>
        <pt x="1249" y="1416" on="1"/>
        <pt x="1226" y="1392" on="0"/>
        <pt x="1055" y="1351" on="1"/>
        <pt x="1034" y="1356" on="0"/>
        <pt x="999" y="1356" on="0"/>
        <pt x="977" y="1365" on="1"/>
        <pt x="940" y="1367" on="0"/>
        <pt x="867" y="1397" on="0"/>
        <pt x="840" y="1407" on="1"/>
        <pt x="840" y="1390" on="1"/>
        <pt x="840" y="1354" on="0"/>
        <pt x="809" y="1277" on="1"/>
        <pt x="762" y="1140" on="0"/>
        <pt x="762" y="1015" on="1"/>
        <pt x="762" y="855" on="0"/>
        <pt x="806" y="601" on="1"/>
        <pt x="837" y="494" on="0"/>
        <pt x="855" y="295" on="0"/>
        <pt x="870" y="192" on="1"/>
        <pt x="867" y="184" on="0"/>
        <pt x="852" y="174" on="0"/>
        <pt x="850" y="169" on="1"/>
        <pt x="847" y="149" on="1"/>
        <pt x="847" y="146" on="0"/>
        <pt x="852" y="146" on="1"/>
        <pt x="852" y="149" on="1"/>
        <pt x="855" y="149" on="1"/>
        <pt x="857" y="151" on="0"/>
        <pt x="860" y="151" on="1"/>
        <pt x="865" y="146" on="0"/>
        <pt x="867" y="141" on="1"/>
        <pt x="862" y="122" on="1"/>
        <pt x="870" y="122" on="1"/>
        <pt x="889" y="190" on="1"/>
        <pt x="899" y="195" on="1"/>
        <pt x="904" y="190" on="0"/>
        <pt x="909" y="192" on="0"/>
        <pt x="909" y="184" on="1"/>
        <pt x="899" y="132" on="1"/>
        <pt x="899" y="115" on="0"/>
        <pt x="904" y="110" on="1"/>
        <pt x="904" y="125" on="0"/>
        <pt x="909" y="125" on="1"/>
        <pt x="919" y="120" on="0"/>
        <pt x="921" y="105" on="0"/>
        <pt x="931" y="105" on="0"/>
        <pt x="937" y="110" on="1"/>
        <pt x="935" y="122" on="0"/>
        <pt x="919" y="149" on="0"/>
        <pt x="919" y="176" on="0"/>
        <pt x="926" y="176" on="1"/>
        <pt x="931" y="176" on="0"/>
        <pt x="952" y="122" on="0"/>
        <pt x="965" y="117" on="1"/>
        <pt x="972" y="120" on="1"/>
        <pt x="972" y="117" on="1"/>
        <pt x="965" y="151" on="1"/>
        <pt x="967" y="154" on="0"/>
        <pt x="972" y="154" on="1"/>
        <pt x="972" y="151" on="0"/>
        <pt x="985" y="139" on="1"/>
        <pt x="989" y="139" on="0"/>
        <pt x="989" y="132" on="0"/>
        <pt x="991" y="132" on="1"/>
        <pt x="991" y="139" on="1"/>
        <pt x="989" y="139" on="1"/>
        <pt x="996" y="169" on="1"/>
        <pt x="996" y="179" on="0"/>
        <pt x="982" y="192" on="1"/>
        <pt x="980" y="192" on="1"/>
        <pt x="977" y="192" on="0"/>
        <pt x="975" y="195" on="1"/>
        <pt x="960" y="207" on="1"/>
        <pt x="955" y="220" on="0"/>
        <pt x="955" y="234" on="1"/>
        <pt x="955" y="261" on="1"/>
        <pt x="955" y="327" on="0"/>
        <pt x="989" y="481" on="0"/>
        <pt x="989" y="637" on="0"/>
        <pt x="975" y="781" on="0"/>
        <pt x="970" y="847" on="1"/>
        <pt x="970" y="860" on="0"/>
        <pt x="991" y="860" on="0"/>
        <pt x="1011" y="791" on="0"/>
        <pt x="1018" y="745" on="1"/>
        <pt x="1031" y="649" on="0"/>
        <pt x="1031" y="487" on="0"/>
        <pt x="1001" y="351" on="1"/>
        <pt x="1016" y="345" on="0"/>
        <pt x="1047" y="345" on="0"/>
        <pt x="1067" y="359" on="1"/>
        <pt x="1070" y="396" on="1"/>
        <pt x="1075" y="461" on="0"/>
        <pt x="1075" y="491" on="1"/>
        <pt x="1072" y="637" on="1"/>
        <pt x="1072" y="714" on="0"/>
        <pt x="1114" y="862" on="0"/>
        <pt x="1121" y="862" on="1"/>
        <pt x="1126" y="857" on="0"/>
        <pt x="1126" y="832" on="0"/>
        <pt x="1119" y="809" on="1"/>
        <pt x="1106" y="716" on="0"/>
      </contour>
      <contour>
        <pt x="1039" y="1467" on="1"/>
        <pt x="1019" y="1459" on="0"/>
        <pt x="1014" y="1454" on="1"/>
        <pt x="1052" y="1459" on="1"/>
        <pt x="1042" y="1467" on="1"/>
      </contour>
      <contour>
        <pt x="980" y="1441" on="1"/>
        <pt x="967" y="1436" on="0"/>
        <pt x="893" y="1436" on="0"/>
        <pt x="832" y="1470" on="1"/>
        <pt x="796" y="1467" on="1"/>
        <pt x="794" y="1459" on="0"/>
        <pt x="794" y="1451" on="0"/>
        <pt x="860" y="1426" on="0"/>
        <pt x="904" y="1414" on="1"/>
        <pt x="1009" y="1385" on="0"/>
        <pt x="1064" y="1384" on="0"/>
        <pt x="1115" y="1384" on="0"/>
        <pt x="1216" y="1429" on="0"/>
        <pt x="1241" y="1444" on="1"/>
        <pt x="1275" y="1464" on="1"/>
        <pt x="1270" y="1467" on="0"/>
        <pt x="1262" y="1464" on="0"/>
        <pt x="1257" y="1470" on="1"/>
        <pt x="1224" y="1464" on="0"/>
        <pt x="1165" y="1436" on="0"/>
        <pt x="1134" y="1436" on="1"/>
        <pt x="1090" y="1446" on="1"/>
        <pt x="1077" y="1446" on="0"/>
        <pt x="1045" y="1426" on="0"/>
        <pt x="999" y="1426" on="0"/>
      </contour>
      <contour>
        <pt x="1472" y="1497" on="1"/>
        <pt x="1554" y="1485" on="1"/>
        <pt x="1467" y="1492" on="1"/>
        <pt x="1461" y="1502" on="1"/>
      </contour>
      <contour>
        <pt x="899" y="1517" on="1"/>
        <pt x="881" y="1512" on="0"/>
        <pt x="827" y="1507" on="0"/>
        <pt x="803" y="1504" on="1"/>
        <pt x="740" y="1498" on="0"/>
        <pt x="737" y="1490" on="1"/>
        <pt x="755" y="1475" on="1"/>
        <pt x="765" y="1472" on="1"/>
        <pt x="921" y="1515" on="1"/>
      </contour>
      <contour>
        <pt x="732" y="1549" on="1"/>
        <pt x="747" y="1546" on="1"/>
        <pt x="747" y="1541" on="1"/>
        <pt x="727" y="1546" on="1"/>
      </contour>
      <contour>
        <pt x="1036" y="1580" on="1"/>
        <pt x="1001" y="1575" on="1"/>
        <pt x="999" y="1571" on="1"/>
        <pt x="999" y="1569" on="0"/>
        <pt x="1001" y="1569" on="1"/>
        <pt x="1034" y="1559" on="1"/>
        <pt x="1036" y="1559" on="0"/>
        <pt x="1036" y="1561" on="0"/>
        <pt x="1039" y="1561" on="1"/>
        <pt x="1042" y="1561" on="0"/>
        <pt x="1042" y="1559" on="0"/>
        <pt x="1045" y="1559" on="1"/>
        <pt x="1055" y="1536" on="1"/>
        <pt x="1060" y="1556" on="0"/>
        <pt x="1067" y="1564" on="0"/>
        <pt x="1077" y="1564" on="1"/>
        <pt x="1082" y="1564" on="1"/>
        <pt x="1082" y="1566" on="0"/>
        <pt x="1085" y="1566" on="0"/>
        <pt x="1085" y="1569" on="1"/>
        <pt x="1085" y="1571" on="1"/>
      </contour>
      <contour>
        <pt x="960" y="1602" on="1"/>
        <pt x="929" y="1590" on="0"/>
        <pt x="919" y="1590" on="1"/>
        <pt x="877" y="1590" on="0"/>
        <pt x="845" y="1622" on="1"/>
        <pt x="821" y="1661" on="1"/>
        <pt x="819" y="1666" on="1"/>
        <pt x="799" y="1674" on="1"/>
        <pt x="796" y="1674" on="0"/>
        <pt x="796" y="1679" on="1"/>
        <pt x="796" y="1682" on="1"/>
        <pt x="796" y="1685" on="0"/>
        <pt x="799" y="1687" on="1"/>
        <pt x="875" y="1692" on="1"/>
        <pt x="879" y="1692" on="0"/>
        <pt x="913" y="1692" on="0"/>
        <pt x="985" y="1646" on="0"/>
        <pt x="985" y="1590" on="0"/>
        <pt x="972" y="1590" on="0"/>
        <pt x="967" y="1602" on="0"/>
      </contour>
      <contour>
        <pt x="904" y="1749" on="1"/>
        <pt x="914" y="1812" on="1"/>
        <pt x="919" y="1761" on="1"/>
        <pt x="921" y="1759" on="1"/>
        <pt x="924" y="1761" on="1"/>
        <pt x="957" y="1837" on="1"/>
        <pt x="960" y="1837" on="1"/>
        <pt x="926" y="1725" on="1"/>
        <pt x="911" y="1725" on="1"/>
        <pt x="909" y="1725" on="0"/>
        <pt x="909" y="1727" on="1"/>
        <pt x="906" y="1730" on="1"/>
        <pt x="894" y="1727" on="1"/>
        <pt x="891" y="1727" on="0"/>
        <pt x="889" y="1730" on="1"/>
        <pt x="872" y="1830" on="1"/>
        <pt x="887" y="1807" on="0"/>
        <pt x="891" y="1788" on="1"/>
        <pt x="901" y="1749" on="0"/>
      </contour>
      <contour>
        <pt x="1204" y="1702" on="1"/>
        <pt x="1236" y="1700" on="1"/>
        <pt x="1251" y="1700" on="0"/>
        <pt x="1272" y="1707" on="1"/>
        <pt x="1282" y="1705" on="1"/>
        <pt x="1282" y="1695" on="1"/>
        <pt x="1282" y="1690" on="0"/>
        <pt x="1272" y="1687" on="1"/>
        <pt x="1231" y="1595" on="0"/>
        <pt x="1180" y="1595" on="1"/>
        <pt x="1174" y="1595" on="0"/>
        <pt x="1131" y="1605" on="1"/>
        <pt x="1126" y="1605" on="0"/>
        <pt x="1126" y="1587" on="0"/>
        <pt x="1121" y="1587" on="1"/>
        <pt x="1106" y="1587" on="0"/>
        <pt x="1106" y="1636" on="0"/>
        <pt x="1162" y="1690" on="0"/>
      </contour>
      <contour>
        <pt x="1236" y="1795" on="1"/>
        <pt x="1219" y="1741" on="1"/>
        <pt x="1214" y="1739" on="0"/>
        <pt x="1211" y="1739" on="1"/>
        <pt x="1209" y="1739" on="0"/>
        <pt x="1209" y="1736" on="1"/>
        <pt x="1234" y="1795" on="1"/>
      </contour>
      <contour>
        <pt x="1190" y="1805" on="1"/>
        <pt x="1190" y="1741" on="1"/>
        <pt x="1185" y="1739" on="0"/>
        <pt x="1177" y="1739" on="0"/>
        <pt x="1177" y="1736" on="1"/>
        <pt x="1177" y="1732" on="1"/>
        <pt x="1182" y="1736" on="1"/>
        <pt x="1182" y="1732" on="0"/>
        <pt x="1177" y="1744" on="1"/>
        <pt x="1187" y="1805" on="1"/>
      </contour>
      <contour>
        <pt x="1155" y="1810" on="1"/>
        <pt x="1170" y="1732" on="1"/>
        <pt x="1170" y="1727" on="0"/>
        <pt x="1162" y="1727" on="1"/>
        <pt x="1152" y="1749" on="0"/>
        <pt x="1152" y="1770" on="1"/>
        <pt x="1152" y="1810" on="1"/>
      </contour>
      <contour>
        <pt x="899" y="1615" on="1"/>
        <pt x="896" y="1631" on="1"/>
        <pt x="896" y="1651" on="0"/>
        <pt x="906" y="1661" on="1"/>
        <pt x="852" y="1666" on="1"/>
        <pt x="850" y="1666" on="1"/>
        <pt x="850" y="1664" on="1"/>
        <pt x="850" y="1649" on="0"/>
        <pt x="872" y="1625" on="1"/>
      </contour>
      <contour>
        <pt x="1707" y="1964" on="1"/>
        <pt x="1671" y="1951" on="0"/>
        <pt x="1646" y="1912" on="0"/>
        <pt x="1646" y="1864" on="0"/>
        <pt x="1654" y="1841" on="1"/>
        <pt x="1720" y="1712" on="0"/>
        <pt x="1720" y="1492" on="0"/>
        <pt x="1669" y="1329" on="0"/>
        <pt x="1630" y="1253" on="1"/>
        <pt x="1579" y="1156" on="0"/>
        <pt x="1454" y="982" on="1"/>
        <pt x="1434" y="942" on="0"/>
        <pt x="1382" y="867" on="0"/>
        <pt x="1372" y="816" on="1"/>
        <pt x="1375" y="809" on="0"/>
        <pt x="1390" y="765" on="0"/>
        <pt x="1400" y="742" on="1"/>
        <pt x="1425" y="684" on="0"/>
        <pt x="1434" y="684" on="1"/>
        <pt x="1436" y="686" on="1"/>
        <pt x="1444" y="740" on="0"/>
        <pt x="1495" y="821" on="0"/>
        <pt x="1515" y="870" on="1"/>
        <pt x="1546" y="924" on="0"/>
        <pt x="1617" y="1050" on="0"/>
        <pt x="1736" y="1226" on="0"/>
        <pt x="1837" y="1475" on="0"/>
        <pt x="1837" y="1644" on="1"/>
        <pt x="1837" y="1859" on="0"/>
        <pt x="1754" y="1942" on="1"/>
        <pt x="1751" y="1945" on="0"/>
        <pt x="1751" y="1949" on="1"/>
        <pt x="1751" y="1945" on="0"/>
        <pt x="1754" y="1942" on="1"/>
        <pt x="1732" y="1964" on="0"/>
        <pt x="1712" y="1964" on="1"/>
      </contour>
      <contour>
        <pt x="914" y="1607" on="1"/>
        <pt x="926" y="1605" on="1"/>
        <pt x="937" y="1605" on="0"/>
        <pt x="957" y="1615" on="1"/>
        <pt x="952" y="1622" on="0"/>
        <pt x="924" y="1656" on="1"/>
        <pt x="921" y="1656" on="1"/>
        <pt x="924" y="1651" on="0"/>
        <pt x="924" y="1644" on="1"/>
      </contour>
      <contour>
        <pt x="1165" y="1610" on="1"/>
        <pt x="1175" y="1612" on="1"/>
        <pt x="1180" y="1612" on="1"/>
        <pt x="1170" y="1631" on="0"/>
        <pt x="1170" y="1659" on="0"/>
        <pt x="1172" y="1664" on="1"/>
        <pt x="1141" y="1648" on="0"/>
        <pt x="1141" y="1620" on="1"/>
        <pt x="1141" y="1617" on="1"/>
      </contour>
      <contour>
        <pt x="1209" y="1682" on="1"/>
        <pt x="1204" y="1676" on="0"/>
        <pt x="1193" y="1676" on="0"/>
        <pt x="1185" y="1671" on="1"/>
        <pt x="1185" y="1666" on="0"/>
        <pt x="1192" y="1664" on="1"/>
        <pt x="1197" y="1615" on="1"/>
        <pt x="1234" y="1640" on="0"/>
        <pt x="1244" y="1682" on="1"/>
      </contour>
      <contour>
        <pt x="1239" y="1495" on="1"/>
        <pt x="1295" y="1475" on="1"/>
        <pt x="1311" y="1477" on="0"/>
        <pt x="1311" y="1485" on="1"/>
      </contour>
      <contour>
        <pt x="1287" y="1510" on="1"/>
        <pt x="1336" y="1495" on="1"/>
        <pt x="1339" y="1497" on="1"/>
        <pt x="1341" y="1497" on="0"/>
        <pt x="1341" y="1500" on="0"/>
        <pt x="1344" y="1500" on="1"/>
        <pt x="1344" y="1505" on="0"/>
        <pt x="1341" y="1507" on="1"/>
      </contour>
    </TTGlyph>
    <TTGlyph name="A" xMin="16" yMin="-349" xMax="1387" yMax="1535">
      <contour>
        <pt x="697" y="1226" on="1"/>
        <pt x="595" y="1252" on="0"/>
        <pt x="499" y="1252" on="1"/>
        <pt x="263" y="1252" on="0"/>
        <pt x="69" y="1092" on="1"/>
        <pt x="70" y="1102" on="0"/>
        <pt x="55" y="1187" on="0"/>
        <pt x="57" y="1197" on="1"/>
        <pt x="320" y="1413" on="0"/>
        <pt x="629" y="1535" on="1"/>
        <pt x="1033" y="1415" on="0"/>
        <pt x="1372" y="1205" on="1"/>
        <pt x="1350" y="1169" on="0"/>
        <pt x="1284" y="1115" on="0"/>
        <pt x="1262" y="1080" on="1"/>
        <pt x="1255" y="1061" on="0"/>
        <pt x="1255" y="1026" on="1"/>
        <pt x="1255" y="972" on="1"/>
        <pt x="1262" y="436" on="1"/>
        <pt x="1265" y="371" on="0"/>
        <pt x="1286" y="355" on="1"/>
        <pt x="1387" y="272" on="1"/>
        <pt x="1211" y="31" on="1"/>
        <pt x="982" y="225" on="1"/>
        <pt x="1004" y="382" on="0"/>
        <pt x="1004" y="636" on="1"/>
        <pt x="630" y="636" on="1"/>
        <pt x="592" y="282" on="0"/>
        <pt x="235" y="-210" on="0"/>
        <pt x="92" y="-349" on="1"/>
        <pt x="50" y="-319" on="0"/>
        <pt x="16" y="-299" on="1"/>
        <pt x="132" y="-178" on="0"/>
        <pt x="247" y="134" on="0"/>
        <pt x="329" y="481" on="0"/>
        <pt x="329" y="814" on="0"/>
        <pt x="256" y="960" on="1"/>
        <pt x="499" y="1081" on="0"/>
      </contour>
      <contour>
        <pt x="1000" y="871" on="1"/>
        <pt x="998" y="990" on="0"/>
        <pt x="998" y="1045" on="0"/>
        <pt x="999" y="1080" on="1"/>
        <pt x="900" y="1150" on="0"/>
        <pt x="791" y="1195" on="1"/>
        <pt x="720" y="1142" on="0"/>
        <pt x="646" y="1005" on="0"/>
        <pt x="639" y="871" on="1"/>
      </contour>
    </TTGlyph>
    <TTGlyph name="AE" xMin="16" yMin="-349" xMax="2167" yMax="1535">
      <contour>
        <pt x="2167" y="1345" on="1"/>
        <pt x="1997" y="1147" on="1"/>
        <pt x="1841" y="1255" on="0"/>
        <pt x="1692" y="1276" on="1"/>
        <pt x="1684" y="1190" on="0"/>
        <pt x="1680" y="1080" on="1"/>
        <pt x="2094" y="1080" on="1"/>
        <pt x="2094" y="844" on="1"/>
        <pt x="1685" y="844" on="1"/>
        <pt x="1689" y="730" on="0"/>
        <pt x="1709" y="579" on="1"/>
        <pt x="1479" y="495" on="1"/>
        <pt x="1668" y="325" on="0"/>
        <pt x="2004" y="325" on="1"/>
        <pt x="2042" y="325" on="0"/>
        <pt x="2082" y="327" on="1"/>
        <pt x="1864" y="31" on="1"/>
        <pt x="1439" y="77" on="0"/>
        <pt x="1210" y="331" on="1"/>
        <pt x="1099" y="454" on="0"/>
        <pt x="1042" y="632" on="1"/>
        <pt x="630" y="636" on="1"/>
        <pt x="592" y="282" on="0"/>
        <pt x="235" y="-210" on="0"/>
        <pt x="92" y="-349" on="1"/>
        <pt x="50" y="-319" on="0"/>
        <pt x="16" y="-299" on="1"/>
        <pt x="132" y="-178" on="0"/>
        <pt x="247" y="134" on="0"/>
        <pt x="329" y="481" on="0"/>
        <pt x="329" y="814" on="0"/>
        <pt x="256" y="960" on="1"/>
        <pt x="499" y="1081" on="0"/>
        <pt x="697" y="1226" on="1"/>
        <pt x="595" y="1252" on="0"/>
        <pt x="499" y="1252" on="1"/>
        <pt x="263" y="1252" on="0"/>
        <pt x="69" y="1092" on="1"/>
        <pt x="70" y="1102" on="0"/>
        <pt x="55" y="1187" on="0"/>
        <pt x="57" y="1197" on="1"/>
        <pt x="320" y="1413" on="0"/>
        <pt x="629" y="1535" on="1"/>
        <pt x="980" y="1431" on="0"/>
        <pt x="1284" y="1256" on="1"/>
        <pt x="1517" y="1395" on="0"/>
        <pt x="1757" y="1535" on="1"/>
        <pt x="1898" y="1438" on="0"/>
      </contour>
      <contour>
        <pt x="639" y="871" on="1"/>
        <pt x="992" y="871" on="1"/>
        <pt x="981" y="969" on="0"/>
        <pt x="981" y="1080" on="1"/>
        <pt x="986" y="1082" on="0"/>
        <pt x="990" y="1085" on="1"/>
        <pt x="895" y="1151" on="0"/>
        <pt x="791" y="1195" on="1"/>
        <pt x="720" y="1142" on="0"/>
        <pt x="646" y="1005" on="0"/>
      </contour>
      <contour>
        <pt x="1401" y="577" on="1"/>
        <pt x="1475" y="602" on="1"/>
        <pt x="1445" y="821" on="0"/>
        <pt x="1445" y="1141" on="0"/>
        <pt x="1450" y="1237" on="1"/>
        <pt x="1390" y="1207" on="0"/>
        <pt x="1315" y="1127" on="0"/>
        <pt x="1282" y="1052" on="0"/>
        <pt x="1282" y="914" on="0"/>
        <pt x="1284" y="880" on="1"/>
        <pt x="1291" y="722" on="0"/>
      </contour>
    </TTGlyph>
    <TTGlyph name="Aacute" xMin="16" yMin="-349" xMax="1399" yMax="1793">
      <component glyphName="A" x="0" y="0" flags="0x1204"/>
      <component glyphName="acute" x="-30" y="54" flags="0x1004"/>
    </TTGlyph>
    <TTGlyph name="Acircumflex" xMin="16" yMin="-349" xMax="1387" yMax="1765">
      <component glyphName="A" x="0" y="0" flags="0x1204"/>
      <component glyphName="circumflex" x="388" y="238" flags="0x1004"/>
    </TTGlyph>
    <TTGlyph name="Adieresis" xMin="27" yMin="-349" xMax="1399" yMax="1562">
      <contour>
        <pt x="226" y="1052" on="1"/>
        <pt x="410" y="1144" on="0"/>
        <pt x="720" y="1420" on="0"/>
        <pt x="866" y="1562" on="1"/>
        <pt x="1047" y="1385" on="0"/>
        <pt x="1246" y="1254" on="0"/>
        <pt x="1384" y="1205" on="1"/>
        <pt x="1361" y="1169" on="0"/>
        <pt x="1295" y="1115" on="0"/>
        <pt x="1274" y="1080" on="1"/>
        <pt x="1266" y="1061" on="0"/>
        <pt x="1266" y="1026" on="1"/>
        <pt x="1266" y="972" on="1"/>
        <pt x="1274" y="436" on="1"/>
        <pt x="1276" y="371" on="0"/>
        <pt x="1297" y="355" on="1"/>
        <pt x="1399" y="272" on="1"/>
        <pt x="1222" y="31" on="1"/>
        <pt x="994" y="225" on="1"/>
        <pt x="1015" y="387" on="0"/>
        <pt x="1015" y="636" on="1"/>
        <pt x="641" y="636" on="1"/>
        <pt x="604" y="282" on="0"/>
        <pt x="246" y="-210" on="0"/>
        <pt x="104" y="-349" on="1"/>
        <pt x="53" y="-314" on="0"/>
        <pt x="27" y="-299" on="1"/>
        <pt x="144" y="-178" on="0"/>
        <pt x="259" y="134" on="0"/>
        <pt x="328" y="430" on="0"/>
        <pt x="328" y="631" on="0"/>
        <pt x="317" y="714" on="1"/>
        <pt x="289" y="924" on="0"/>
      </contour>
      <contour>
        <pt x="351" y="1202" on="1"/>
        <pt x="440" y="1542" on="1"/>
        <pt x="722" y="1489" on="1"/>
        <pt x="544" y="1317" on="0"/>
      </contour>
      <contour>
        <pt x="1370" y="1265" on="1"/>
        <pt x="1177" y="1352" on="0"/>
        <pt x="1040" y="1475" on="1"/>
        <pt x="1304" y="1535" on="1"/>
      </contour>
      <contour>
        <pt x="1011" y="871" on="1"/>
        <pt x="1009" y="956" on="0"/>
        <pt x="1009" y="1045" on="0"/>
        <pt x="1010" y="1080" on="1"/>
        <pt x="903" y="1156" on="0"/>
        <pt x="765" y="1214" on="1"/>
        <pt x="755" y="1215" on="0"/>
        <pt x="745" y="1215" on="1"/>
        <pt x="673" y="1215" on="0"/>
        <pt x="660" y="1140" on="1"/>
        <pt x="648" y="1079" on="0"/>
        <pt x="648" y="922" on="0"/>
        <pt x="650" y="871" on="1"/>
      </contour>
    </TTGlyph>
    <TTGlyph name="Agrave" xMin="27" yMin="-349" xMax="1399" yMax="1680">
      <contour>
        <pt x="226" y="1052" on="1"/>
        <pt x="410" y="1144" on="0"/>
        <pt x="720" y="1420" on="0"/>
        <pt x="866" y="1562" on="1"/>
        <pt x="1047" y="1385" on="0"/>
        <pt x="1246" y="1254" on="0"/>
        <pt x="1384" y="1205" on="1"/>
        <pt x="1361" y="1169" on="0"/>
        <pt x="1295" y="1115" on="0"/>
        <pt x="1274" y="1080" on="1"/>
        <pt x="1266" y="1061" on="0"/>
        <pt x="1266" y="1026" on="1"/>
        <pt x="1266" y="972" on="1"/>
        <pt x="1274" y="436" on="1"/>
        <pt x="1276" y="371" on="0"/>
        <pt x="1297" y="355" on="1"/>
        <pt x="1399" y="272" on="1"/>
        <pt x="1222" y="31" on="1"/>
        <pt x="994" y="225" on="1"/>
        <pt x="1015" y="387" on="0"/>
        <pt x="1015" y="636" on="1"/>
        <pt x="641" y="636" on="1"/>
        <pt x="604" y="282" on="0"/>
        <pt x="246" y="-210" on="0"/>
        <pt x="104" y="-349" on="1"/>
        <pt x="53" y="-314" on="0"/>
        <pt x="27" y="-299" on="1"/>
        <pt x="144" y="-178" on="0"/>
        <pt x="259" y="134" on="0"/>
        <pt x="328" y="430" on="0"/>
        <pt x="328" y="631" on="0"/>
        <pt x="317" y="714" on="1"/>
        <pt x="289" y="924" on="0"/>
      </contour>
      <contour>
        <pt x="405" y="1680" on="1"/>
        <pt x="455" y="1516" on="0"/>
        <pt x="455" y="1325" on="1"/>
        <pt x="455" y="1308" on="0"/>
        <pt x="455" y="1292" on="1"/>
        <pt x="175" y="1643" on="1"/>
      </contour>
      <contour>
        <pt x="1011" y="871" on="1"/>
        <pt x="1009" y="956" on="0"/>
        <pt x="1009" y="1045" on="0"/>
        <pt x="1010" y="1080" on="1"/>
        <pt x="903" y="1156" on="0"/>
        <pt x="765" y="1214" on="1"/>
        <pt x="755" y="1215" on="0"/>
        <pt x="745" y="1215" on="1"/>
        <pt x="673" y="1215" on="0"/>
        <pt x="660" y="1140" on="1"/>
        <pt x="648" y="1079" on="0"/>
        <pt x="648" y="922" on="0"/>
        <pt x="650" y="871" on="1"/>
      </contour>
    </TTGlyph>
    <TTGlyph name="Aring" xMin="16" yMin="-349" xMax="1387" yMax="1875">
      <contour>
        <pt x="982" y="225" on="1"/>
        <pt x="1001" y="358" on="0"/>
        <pt x="1001" y="514" on="0"/>
        <pt x="990" y="514" on="1"/>
        <pt x="987" y="514" on="0"/>
        <pt x="984" y="511" on="1"/>
        <pt x="610" y="511" on="1"/>
        <pt x="592" y="282" on="0"/>
        <pt x="235" y="-210" on="0"/>
        <pt x="92" y="-349" on="1"/>
        <pt x="50" y="-319" on="0"/>
        <pt x="16" y="-299" on="1"/>
        <pt x="132" y="-178" on="0"/>
        <pt x="247" y="134" on="0"/>
        <pt x="316" y="412" on="0"/>
        <pt x="316" y="506" on="1"/>
        <pt x="316" y="674" on="0"/>
        <pt x="236" y="835" on="1"/>
        <pt x="479" y="956" on="0"/>
        <pt x="677" y="1101" on="1"/>
        <pt x="575" y="1127" on="0"/>
        <pt x="479" y="1127" on="1"/>
        <pt x="243" y="1127" on="0"/>
        <pt x="49" y="967" on="1"/>
        <pt x="50" y="977" on="0"/>
        <pt x="35" y="1062" on="0"/>
        <pt x="37" y="1072" on="1"/>
        <pt x="254" y="1250" on="0"/>
        <pt x="496" y="1362" on="1"/>
        <pt x="443" y="1441" on="0"/>
        <pt x="443" y="1519" on="1"/>
        <pt x="443" y="1690" on="0"/>
        <pt x="695" y="1856" on="1"/>
        <pt x="724" y="1875" on="0"/>
        <pt x="793" y="1875" on="0"/>
        <pt x="835" y="1849" on="1"/>
        <pt x="1092" y="1686" on="0"/>
        <pt x="1092" y="1531" on="1"/>
        <pt x="1092" y="1410" on="0"/>
        <pt x="954" y="1286" on="1"/>
        <pt x="981" y="1274" on="0"/>
        <pt x="1192" y="1179" on="0"/>
        <pt x="1352" y="1080" on="1"/>
        <pt x="1330" y="1044" on="0"/>
        <pt x="1264" y="990" on="0"/>
        <pt x="1242" y="955" on="1"/>
        <pt x="1235" y="936" on="0"/>
        <pt x="1235" y="901" on="1"/>
        <pt x="1235" y="847" on="1"/>
        <pt x="1262" y="436" on="1"/>
        <pt x="1265" y="371" on="0"/>
        <pt x="1286" y="355" on="1"/>
        <pt x="1387" y="272" on="1"/>
        <pt x="1211" y="31" on="1"/>
      </contour>
      <contour>
        <pt x="980" y="746" on="1"/>
        <pt x="978" y="865" on="0"/>
        <pt x="978" y="920" on="0"/>
        <pt x="979" y="955" on="1"/>
        <pt x="880" y="1025" on="0"/>
        <pt x="771" y="1070" on="1"/>
        <pt x="700" y="1017" on="0"/>
        <pt x="626" y="880" on="0"/>
        <pt x="619" y="746" on="1"/>
      </contour>
      <contour>
        <pt x="607" y="1706" on="1"/>
        <pt x="562" y="1685" on="0"/>
        <pt x="562" y="1580" on="0"/>
        <pt x="639" y="1480" on="1"/>
        <pt x="741" y="1346" on="0"/>
        <pt x="827" y="1346" on="1"/>
        <pt x="851" y="1346" on="0"/>
        <pt x="874" y="1357" on="1"/>
        <pt x="920" y="1379" on="0"/>
        <pt x="920" y="1484" on="0"/>
        <pt x="846" y="1583" on="1"/>
        <pt x="743" y="1718" on="0"/>
        <pt x="656" y="1718" on="1"/>
        <pt x="631" y="1718" on="0"/>
      </contour>
    </TTGlyph>
    <TTGlyph name="Atilde" xMin="27" yMin="-349" xMax="1399" yMax="1842">
      <contour>
        <pt x="1144" y="1842" on="1"/>
        <pt x="1380" y="1628" on="1"/>
        <pt x="1329" y="1506" on="0"/>
        <pt x="1189" y="1419" on="1"/>
        <pt x="840" y="1662" on="0"/>
        <pt x="714" y="1662" on="1"/>
        <pt x="687" y="1662" on="0"/>
        <pt x="670" y="1651" on="1"/>
        <pt x="574" y="1589" on="0"/>
        <pt x="563" y="1360" on="1"/>
        <pt x="279" y="1640" on="1"/>
        <pt x="387" y="1838" on="0"/>
        <pt x="573" y="1838" on="1"/>
        <pt x="705" y="1838" on="0"/>
        <pt x="869" y="1730" on="1"/>
        <pt x="984" y="1664" on="0"/>
        <pt x="1078" y="1664" on="0"/>
        <pt x="1096" y="1684" on="1"/>
        <pt x="1144" y="1741" on="0"/>
      </contour>
      <contour>
        <pt x="226" y="1052" on="1"/>
        <pt x="410" y="1144" on="0"/>
        <pt x="720" y="1420" on="0"/>
        <pt x="866" y="1562" on="1"/>
        <pt x="1047" y="1385" on="0"/>
        <pt x="1246" y="1254" on="0"/>
        <pt x="1384" y="1205" on="1"/>
        <pt x="1361" y="1169" on="0"/>
        <pt x="1295" y="1115" on="0"/>
        <pt x="1274" y="1080" on="1"/>
        <pt x="1266" y="1061" on="0"/>
        <pt x="1266" y="1026" on="1"/>
        <pt x="1266" y="972" on="1"/>
        <pt x="1274" y="436" on="1"/>
        <pt x="1276" y="371" on="0"/>
        <pt x="1297" y="355" on="1"/>
        <pt x="1399" y="272" on="1"/>
        <pt x="1222" y="31" on="1"/>
        <pt x="994" y="225" on="1"/>
        <pt x="1015" y="387" on="0"/>
        <pt x="1015" y="636" on="1"/>
        <pt x="641" y="636" on="1"/>
        <pt x="604" y="282" on="0"/>
        <pt x="246" y="-210" on="0"/>
        <pt x="104" y="-349" on="1"/>
        <pt x="53" y="-314" on="0"/>
        <pt x="27" y="-299" on="1"/>
        <pt x="144" y="-178" on="0"/>
        <pt x="259" y="134" on="0"/>
        <pt x="328" y="430" on="0"/>
        <pt x="328" y="631" on="0"/>
        <pt x="317" y="714" on="1"/>
        <pt x="289" y="924" on="0"/>
      </contour>
      <contour>
        <pt x="1011" y="871" on="1"/>
        <pt x="1009" y="956" on="0"/>
        <pt x="1009" y="1045" on="0"/>
        <pt x="1010" y="1080" on="1"/>
        <pt x="903" y="1156" on="0"/>
        <pt x="765" y="1214" on="1"/>
        <pt x="755" y="1215" on="0"/>
        <pt x="745" y="1215" on="1"/>
        <pt x="673" y="1215" on="0"/>
        <pt x="660" y="1140" on="1"/>
        <pt x="648" y="1079" on="0"/>
        <pt x="648" y="922" on="0"/>
        <pt x="650" y="871" on="1"/>
      </contour>
    </TTGlyph>
    <TTGlyph name="B" xMin="22" yMin="12" xMax="1386" yMax="1535">
      <contour>
        <pt x="184" y="1170" on="1"/>
        <pt x="807" y="1535" on="1"/>
        <pt x="1041" y="1446" on="0"/>
        <pt x="1305" y="1256" on="1"/>
        <pt x="1191" y="1180" on="0"/>
        <pt x="1071" y="1095" on="1"/>
        <pt x="1385" y="852" on="0"/>
        <pt x="1385" y="647" on="1"/>
        <pt x="1385" y="570" on="0"/>
        <pt x="1342" y="499" on="1"/>
        <pt x="1181" y="236" on="0"/>
        <pt x="681" y="12" on="1"/>
        <pt x="393" y="267" on="0"/>
        <pt x="22" y="289" on="1"/>
        <pt x="276" y="474" on="1"/>
        <pt x="282" y="965" on="1"/>
        <pt x="284" y="1087" on="0"/>
      </contour>
      <contour>
        <pt x="911" y="1137" on="1"/>
        <pt x="771" y="1241" on="0"/>
        <pt x="602" y="1290" on="1"/>
        <pt x="600" y="926" on="1"/>
      </contour>
      <contour>
        <pt x="909" y="232" on="1"/>
        <pt x="1069" y="372" on="0"/>
        <pt x="1069" y="536" on="1"/>
        <pt x="1069" y="642" on="0"/>
        <pt x="949" y="820" on="0"/>
        <pt x="832" y="857" on="1"/>
        <pt x="789" y="870" on="0"/>
        <pt x="672" y="870" on="0"/>
        <pt x="599" y="829" on="1"/>
        <pt x="597" y="561" on="1"/>
        <pt x="496" y="499" on="1"/>
        <pt x="788" y="353" on="0"/>
      </contour>
    </TTGlyph>
    <TTGlyph name="C" xMin="31" yMin="15" xMax="1097" yMax="1535">
      <contour>
        <pt x="1009" y="1087" on="1"/>
        <pt x="895" y="1184" on="0"/>
        <pt x="777" y="1222" on="1"/>
        <pt x="770" y="1128" on="0"/>
        <pt x="770" y="842" on="0"/>
        <pt x="801" y="655" on="1"/>
        <pt x="485" y="514" on="1"/>
        <pt x="565" y="431" on="0"/>
        <pt x="698" y="389" on="1"/>
        <pt x="771" y="366" on="0"/>
        <pt x="940" y="366" on="0"/>
        <pt x="1029" y="381" on="1"/>
        <pt x="855" y="15" on="1"/>
        <pt x="564" y="110" on="0"/>
        <pt x="226" y="289" on="0"/>
        <pt x="59" y="531" on="0"/>
        <pt x="42" y="702" on="1"/>
        <pt x="31" y="809" on="0"/>
        <pt x="31" y="1034" on="0"/>
        <pt x="35" y="1130" on="1"/>
        <pt x="857" y="1535" on="1"/>
        <pt x="1097" y="1361" on="1"/>
      </contour>
      <contour>
        <pt x="497" y="1212" on="1"/>
        <pt x="332" y="1133" on="0"/>
        <pt x="332" y="922" on="1"/>
        <pt x="332" y="731" on="0"/>
        <pt x="426" y="587" on="1"/>
        <pt x="490" y="629" on="0"/>
        <pt x="505" y="754" on="1"/>
        <pt x="511" y="803" on="0"/>
        <pt x="511" y="1010" on="0"/>
      </contour>
    </TTGlyph>
    <TTGlyph name="Ccedilla" xMin="31" yMin="-298" xMax="1097" yMax="1535">
      <contour>
        <pt x="1009" y="1087" on="1"/>
        <pt x="895" y="1184" on="0"/>
        <pt x="777" y="1222" on="1"/>
        <pt x="770" y="1128" on="0"/>
        <pt x="770" y="842" on="0"/>
        <pt x="801" y="655" on="1"/>
        <pt x="485" y="514" on="1"/>
        <pt x="565" y="431" on="0"/>
        <pt x="698" y="389" on="1"/>
        <pt x="771" y="366" on="0"/>
        <pt x="940" y="366" on="0"/>
        <pt x="1029" y="381" on="1"/>
        <pt x="855" y="15" on="1"/>
        <pt x="738" y="53" on="0"/>
        <pt x="640" y="90" on="1"/>
        <pt x="574" y="-13" on="1"/>
        <pt x="628" y="2" on="0"/>
        <pt x="742" y="2" on="0"/>
        <pt x="847" y="-75" on="0"/>
        <pt x="847" y="-139" on="1"/>
        <pt x="847" y="-230" on="0"/>
        <pt x="758" y="-270" on="1"/>
        <pt x="697" y="-298" on="0"/>
        <pt x="616" y="-298" on="1"/>
        <pt x="456" y="-298" on="0"/>
        <pt x="372" y="-262" on="1"/>
        <pt x="392" y="-217" on="1"/>
        <pt x="448" y="-236" on="0"/>
        <pt x="508" y="-236" on="1"/>
        <pt x="643" y="-236" on="0"/>
        <pt x="643" y="-144" on="1"/>
        <pt x="643" y="-108" on="0"/>
        <pt x="594" y="-71" on="0"/>
        <pt x="530" y="-71" on="0"/>
        <pt x="505" y="-84" on="1"/>
        <pt x="475" y="-55" on="1"/>
        <pt x="585" y="112" on="1"/>
        <pt x="476" y="156" on="0"/>
        <pt x="395" y="199" on="1"/>
        <pt x="226" y="289" on="0"/>
        <pt x="59" y="531" on="0"/>
        <pt x="42" y="702" on="1"/>
        <pt x="31" y="809" on="0"/>
        <pt x="31" y="1034" on="0"/>
        <pt x="35" y="1130" on="1"/>
        <pt x="857" y="1535" on="1"/>
        <pt x="1097" y="1361" on="1"/>
      </contour>
      <contour>
        <pt x="497" y="1212" on="1"/>
        <pt x="332" y="1133" on="0"/>
        <pt x="332" y="922" on="1"/>
        <pt x="332" y="731" on="0"/>
        <pt x="426" y="587" on="1"/>
        <pt x="490" y="629" on="0"/>
        <pt x="505" y="754" on="1"/>
        <pt x="511" y="803" on="0"/>
        <pt x="511" y="1010" on="0"/>
      </contour>
    </TTGlyph>
    <TTGlyph name="D" xMin="4" yMin="31" xMax="1269" yMax="1535">
      <contour>
        <pt x="224" y="502" on="1"/>
        <pt x="232" y="595" on="0"/>
        <pt x="232" y="763" on="0"/>
        <pt x="225" y="838" on="1"/>
        <pt x="211" y="994" on="0"/>
        <pt x="120" y="1084" on="1"/>
        <pt x="354" y="1095" on="0"/>
        <pt x="569" y="1180" on="1"/>
        <pt x="351" y="1289" on="0"/>
        <pt x="47" y="1289" on="1"/>
        <pt x="31" y="1289" on="0"/>
        <pt x="15" y="1289" on="1"/>
        <pt x="344" y="1535" on="1"/>
        <pt x="805" y="1464" on="0"/>
        <pt x="1252" y="952" on="0"/>
        <pt x="1269" y="534" on="1"/>
        <pt x="680" y="31" on="1"/>
        <pt x="395" y="175" on="0"/>
        <pt x="4" y="270" on="1"/>
      </contour>
      <contour>
        <pt x="616" y="1154" on="1"/>
        <pt x="585" y="1097" on="0"/>
        <pt x="549" y="992" on="0"/>
        <pt x="549" y="896" on="0"/>
        <pt x="552" y="749" on="0"/>
        <pt x="562" y="619" on="0"/>
        <pt x="592" y="531" on="1"/>
        <pt x="571" y="533" on="0"/>
        <pt x="551" y="533" on="1"/>
        <pt x="450" y="533" on="0"/>
        <pt x="359" y="492" on="1"/>
        <pt x="599" y="317" on="0"/>
        <pt x="732" y="317" on="1"/>
        <pt x="787" y="317" on="0"/>
        <pt x="824" y="348" on="1"/>
        <pt x="937" y="443" on="0"/>
        <pt x="937" y="622" on="1"/>
        <pt x="937" y="781" on="0"/>
        <pt x="771" y="1060" on="0"/>
      </contour>
    </TTGlyph>
    <TTGlyph name="E" xMin="25" yMin="31" xMax="1211" yMax="1535">
      <contour>
        <pt x="1211" y="1345" on="1"/>
        <pt x="1041" y="1147" on="1"/>
        <pt x="885" y="1255" on="0"/>
        <pt x="736" y="1276" on="1"/>
        <pt x="727" y="1190" on="0"/>
        <pt x="724" y="1080" on="1"/>
        <pt x="1137" y="1080" on="1"/>
        <pt x="1137" y="844" on="1"/>
        <pt x="729" y="844" on="1"/>
        <pt x="732" y="730" on="0"/>
        <pt x="752" y="579" on="1"/>
        <pt x="522" y="495" on="1"/>
        <pt x="711" y="325" on="0"/>
        <pt x="1048" y="325" on="1"/>
        <pt x="1086" y="325" on="0"/>
        <pt x="1126" y="327" on="1"/>
        <pt x="907" y="31" on="1"/>
        <pt x="482" y="77" on="0"/>
        <pt x="25" y="585" on="0"/>
        <pt x="25" y="1080" on="1"/>
        <pt x="801" y="1535" on="1"/>
        <pt x="942" y="1438" on="0"/>
      </contour>
      <contour>
        <pt x="445" y="577" on="1"/>
        <pt x="519" y="602" on="1"/>
        <pt x="489" y="821" on="0"/>
        <pt x="489" y="1141" on="0"/>
        <pt x="494" y="1237" on="1"/>
        <pt x="434" y="1207" on="0"/>
        <pt x="359" y="1127" on="0"/>
        <pt x="326" y="1052" on="0"/>
        <pt x="326" y="915" on="0"/>
        <pt x="328" y="880" on="1"/>
        <pt x="335" y="722" on="0"/>
      </contour>
    </TTGlyph>
    <TTGlyph name="Eacute" xMin="25" yMin="31" xMax="1275" yMax="1894">
      <component glyphName="E" x="0" y="0" flags="0x1204"/>
      <component glyphName="acute" x="-154" y="155" flags="0x1004"/>
    </TTGlyph>
    <TTGlyph name="Ecircumflex" xMin="25" yMin="31" xMax="1211" yMax="1776">
      <component glyphName="E" x="0" y="0" flags="0x1204"/>
      <component glyphName="circumflex" x="457" y="249" flags="0x1004"/>
    </TTGlyph>
    <TTGlyph name="Edieresis" xMin="25" yMin="31" xMax="1266" yMax="1677">
      <contour>
        <pt x="1266" y="1636" on="1"/>
        <pt x="1254" y="1512" on="0"/>
        <pt x="1254" y="1384" on="1"/>
        <pt x="1173" y="1398" on="0"/>
        <pt x="965" y="1481" on="0"/>
        <pt x="906" y="1564" on="1"/>
      </contour>
      <contour>
        <pt x="261" y="1305" on="1"/>
        <pt x="226" y="1490" on="0"/>
        <pt x="226" y="1631" on="0"/>
        <pt x="233" y="1677" on="1"/>
        <pt x="661" y="1555" on="1"/>
        <pt x="565" y="1497" on="0"/>
        <pt x="363" y="1362" on="0"/>
      </contour>
      <contour>
        <pt x="1211" y="1345" on="1"/>
        <pt x="1041" y="1147" on="1"/>
        <pt x="885" y="1255" on="0"/>
        <pt x="736" y="1276" on="1"/>
        <pt x="727" y="1190" on="0"/>
        <pt x="724" y="1080" on="1"/>
        <pt x="1137" y="1080" on="1"/>
        <pt x="1137" y="844" on="1"/>
        <pt x="729" y="844" on="1"/>
        <pt x="732" y="730" on="0"/>
        <pt x="752" y="579" on="1"/>
        <pt x="522" y="495" on="1"/>
        <pt x="711" y="325" on="0"/>
        <pt x="1048" y="325" on="1"/>
        <pt x="1086" y="325" on="0"/>
        <pt x="1126" y="327" on="1"/>
        <pt x="907" y="31" on="1"/>
        <pt x="482" y="77" on="0"/>
        <pt x="25" y="585" on="0"/>
        <pt x="25" y="1080" on="1"/>
        <pt x="801" y="1535" on="1"/>
        <pt x="942" y="1438" on="0"/>
      </contour>
      <contour>
        <pt x="445" y="577" on="1"/>
        <pt x="519" y="602" on="1"/>
        <pt x="489" y="821" on="0"/>
        <pt x="489" y="1141" on="0"/>
        <pt x="494" y="1237" on="1"/>
        <pt x="434" y="1207" on="0"/>
        <pt x="359" y="1127" on="0"/>
        <pt x="326" y="1052" on="0"/>
        <pt x="326" y="915" on="0"/>
        <pt x="328" y="880" on="1"/>
        <pt x="335" y="722" on="0"/>
      </contour>
    </TTGlyph>
    <TTGlyph name="Egrave" xMin="25" yMin="31" xMax="1211" yMax="1769">
      <component glyphName="E" x="0" y="0" flags="0x1204"/>
      <component glyphName="grave" x="-40" y="89" flags="0x1004"/>
    </TTGlyph>
    <TTGlyph name="Eth" xMin="-15" yMin="31" xMax="1269" yMax="1535">
      <contour>
        <pt x="117" y="897" on="1"/>
        <pt x="126" y="817" on="0"/>
        <pt x="198" y="817" on="1"/>
        <pt x="200" y="817" on="0"/>
        <pt x="202" y="817" on="1"/>
        <pt x="227" y="818" on="1"/>
        <pt x="225" y="838" on="1"/>
        <pt x="211" y="994" on="0"/>
        <pt x="120" y="1084" on="1"/>
        <pt x="354" y="1095" on="0"/>
        <pt x="569" y="1180" on="1"/>
        <pt x="351" y="1289" on="0"/>
        <pt x="47" y="1289" on="1"/>
        <pt x="31" y="1289" on="0"/>
        <pt x="15" y="1289" on="1"/>
        <pt x="344" y="1535" on="1"/>
        <pt x="805" y="1464" on="0"/>
        <pt x="1252" y="952" on="0"/>
        <pt x="1269" y="534" on="1"/>
        <pt x="680" y="31" on="1"/>
        <pt x="395" y="175" on="0"/>
        <pt x="4" y="270" on="1"/>
        <pt x="224" y="502" on="1"/>
        <pt x="230" y="581" on="0"/>
        <pt x="231" y="656" on="1"/>
        <pt x="19" y="641" on="0"/>
        <pt x="-15" y="577" on="1"/>
        <pt x="30" y="690" on="0"/>
        <pt x="72" y="785" on="0"/>
      </contour>
      <contour>
        <pt x="592" y="531" on="1"/>
        <pt x="571" y="533" on="0"/>
        <pt x="551" y="533" on="1"/>
        <pt x="450" y="533" on="0"/>
        <pt x="359" y="492" on="1"/>
        <pt x="599" y="317" on="0"/>
        <pt x="732" y="317" on="1"/>
        <pt x="787" y="317" on="0"/>
        <pt x="824" y="348" on="1"/>
        <pt x="937" y="443" on="0"/>
        <pt x="937" y="622" on="1"/>
        <pt x="937" y="753" on="0"/>
        <pt x="878" y="875" on="1"/>
        <pt x="837" y="808" on="0"/>
        <pt x="784" y="758" on="0"/>
        <pt x="730" y="666" on="1"/>
        <pt x="648" y="667" on="0"/>
        <pt x="558" y="667" on="1"/>
        <pt x="565" y="608" on="0"/>
      </contour>
      <contour>
        <pt x="616" y="1154" on="1"/>
        <pt x="585" y="1097" on="0"/>
        <pt x="549" y="992" on="0"/>
        <pt x="549" y="944" on="1"/>
        <pt x="549" y="863" on="0"/>
        <pt x="550" y="827" on="1"/>
        <pt x="726" y="833" on="1"/>
        <pt x="798" y="835" on="0"/>
        <pt x="871" y="888" on="1"/>
        <pt x="785" y="1052" on="0"/>
      </contour>
    </TTGlyph>
    <TTGlyph name="Euro" xMin="31" yMin="-32" xMax="999" yMax="1401">
      <contour>
        <pt x="817" y="587" on="1"/>
        <pt x="797" y="532" on="1"/>
        <pt x="788" y="507" on="0"/>
        <pt x="752" y="507" on="1"/>
        <pt x="395" y="507" on="1"/>
        <pt x="418" y="214" on="0"/>
        <pt x="553" y="122" on="1"/>
        <pt x="600" y="90" on="0"/>
        <pt x="717" y="90" on="0"/>
        <pt x="797" y="132" on="0"/>
        <pt x="824" y="167" on="1"/>
        <pt x="872" y="228" on="0"/>
        <pt x="901" y="336" on="1"/>
        <pt x="918" y="379" on="0"/>
        <pt x="937" y="379" on="1"/>
        <pt x="946" y="379" on="0"/>
        <pt x="950" y="377" on="1"/>
        <pt x="947" y="379" on="1"/>
        <pt x="987" y="371" on="0"/>
        <pt x="999" y="342" on="0"/>
        <pt x="999" y="330" on="1"/>
        <pt x="981" y="123" on="0"/>
        <pt x="981" y="16" on="0"/>
        <pt x="962" y="0" on="0"/>
        <pt x="902" y="0" on="0"/>
        <pt x="887" y="49" on="0"/>
        <pt x="872" y="80" on="1"/>
        <pt x="868" y="74" on="0"/>
        <pt x="819" y="31" on="0"/>
        <pt x="790" y="14" on="1"/>
        <pt x="718" y="-31" on="0"/>
        <pt x="535" y="-31" on="0"/>
        <pt x="375" y="59" on="0"/>
        <pt x="318" y="135" on="1"/>
        <pt x="217" y="272" on="0"/>
        <pt x="182" y="507" on="1"/>
        <pt x="66" y="507" on="1"/>
        <pt x="31" y="507" on="0"/>
        <pt x="31" y="530" on="1"/>
        <pt x="31" y="542" on="1"/>
        <pt x="31" y="549" on="0"/>
        <pt x="35" y="557" on="1"/>
        <pt x="49" y="596" on="1"/>
        <pt x="58" y="621" on="0"/>
        <pt x="86" y="621" on="1"/>
        <pt x="172" y="621" on="1"/>
        <pt x="170" y="642" on="0"/>
        <pt x="170" y="670" on="1"/>
        <pt x="170" y="741" on="1"/>
        <pt x="74" y="741" on="1"/>
        <pt x="37" y="741" on="0"/>
        <pt x="37" y="762" on="1"/>
        <pt x="37" y="772" on="0"/>
        <pt x="41" y="780" on="1"/>
        <pt x="37" y="780" on="1"/>
        <pt x="52" y="825" on="0"/>
        <pt x="74" y="852" on="0"/>
        <pt x="92" y="852" on="1"/>
        <pt x="184" y="852" on="1"/>
        <pt x="218" y="1074" on="0"/>
        <pt x="330" y="1224" on="1"/>
        <pt x="460" y="1401" on="0"/>
        <pt x="645" y="1401" on="1"/>
        <pt x="766" y="1401" on="0"/>
        <pt x="864" y="1292" on="1"/>
        <pt x="879" y="1337" on="0"/>
        <pt x="895" y="1360" on="0"/>
        <pt x="952" y="1360" on="0"/>
        <pt x="965" y="1342" on="0"/>
        <pt x="965" y="1294" on="0"/>
        <pt x="967" y="1256" on="1"/>
        <pt x="971" y="1185" on="0"/>
        <pt x="981" y="1046" on="0"/>
        <pt x="985" y="1020" on="0"/>
        <pt x="985" y="1010" on="1"/>
        <pt x="985" y="992" on="0"/>
        <pt x="934" y="971" on="0"/>
        <pt x="909" y="971" on="0"/>
        <pt x="901" y="985" on="0"/>
        <pt x="877" y="1052" on="0"/>
        <pt x="840" y="1155" on="0"/>
        <pt x="812" y="1196" on="1"/>
        <pt x="750" y="1287" on="0"/>
        <pt x="642" y="1287" on="1"/>
        <pt x="475" y="1287" on="0"/>
        <pt x="411" y="1017" on="1"/>
        <pt x="392" y="937" on="0"/>
        <pt x="387" y="852" on="1"/>
        <pt x="854" y="852" on="1"/>
        <pt x="889" y="852" on="0"/>
        <pt x="889" y="822" on="1"/>
        <pt x="889" y="817" on="0"/>
        <pt x="887" y="812" on="1"/>
        <pt x="867" y="766" on="1"/>
        <pt x="862" y="750" on="0"/>
        <pt x="842" y="741" on="0"/>
        <pt x="822" y="741" on="1"/>
        <pt x="382" y="741" on="1"/>
        <pt x="382" y="690" on="1"/>
        <pt x="387" y="621" on="1"/>
        <pt x="780" y="621" on="1"/>
        <pt x="817" y="621" on="0"/>
      </contour>
    </TTGlyph>
    <TTGlyph name="F" xMin="26" yMin="-371" xMax="1002" yMax="1535">
      <contour>
        <pt x="568" y="-90" on="1"/>
        <pt x="598" y="-90" on="0"/>
        <pt x="598" y="12" on="0"/>
        <pt x="512" y="235" on="0"/>
        <pt x="334" y="581" on="0"/>
        <pt x="121" y="957" on="0"/>
        <pt x="37" y="1111" on="1"/>
        <pt x="340" y="1302" on="0"/>
        <pt x="509" y="1535" on="1"/>
        <pt x="734" y="1454" on="0"/>
        <pt x="1002" y="1372" on="1"/>
        <pt x="898" y="1238" on="0"/>
        <pt x="792" y="1106" on="1"/>
        <pt x="760" y="1155" on="0"/>
        <pt x="507" y="1259" on="0"/>
        <pt x="415" y="1259" on="0"/>
        <pt x="391" y="1231" on="0"/>
        <pt x="391" y="1209" on="1"/>
        <pt x="391" y="1141" on="0"/>
        <pt x="472" y="946" on="1"/>
        <pt x="523" y="943" on="0"/>
        <pt x="749" y="943" on="0"/>
        <pt x="961" y="969" on="1"/>
        <pt x="939" y="849" on="0"/>
        <pt x="921" y="731" on="1"/>
        <pt x="560" y="750" on="1"/>
        <pt x="706" y="440" on="0"/>
        <pt x="871" y="202" on="1"/>
        <pt x="700" y="-33" on="0"/>
        <pt x="459" y="-371" on="1"/>
        <pt x="215" y="-251" on="0"/>
        <pt x="26" y="31" on="1"/>
        <pt x="72" y="146" on="0"/>
        <pt x="147" y="336" on="1"/>
        <pt x="249" y="180" on="0"/>
        <pt x="523" y="-90" on="0"/>
      </contour>
    </TTGlyph>
    <TTGlyph name="G" xMin="75" yMin="31" xMax="1445" yMax="1535">
      <contour>
        <pt x="1114" y="1081" on="1"/>
        <pt x="1328" y="910" on="0"/>
        <pt x="1445" y="714" on="1"/>
        <pt x="1217" y="249" on="0"/>
        <pt x="745" y="31" on="1"/>
        <pt x="75" y="301" on="0"/>
        <pt x="75" y="848" on="1"/>
        <pt x="75" y="888" on="0"/>
        <pt x="79" y="929" on="1"/>
        <pt x="391" y="1381" on="0"/>
        <pt x="771" y="1535" on="1"/>
        <pt x="979" y="1390" on="0"/>
        <pt x="1340" y="1297" on="1"/>
      </contour>
      <contour>
        <pt x="751" y="1249" on="1"/>
        <pt x="742" y="1148" on="0"/>
        <pt x="742" y="992" on="0"/>
        <pt x="744" y="939" on="1"/>
        <pt x="799" y="990" on="0"/>
        <pt x="915" y="1092" on="0"/>
        <pt x="970" y="1145" on="1"/>
        <pt x="884" y="1212" on="0"/>
      </contour>
      <contour>
        <pt x="746" y="890" on="1"/>
        <pt x="751" y="769" on="0"/>
        <pt x="765" y="649" on="1"/>
        <pt x="661" y="630" on="0"/>
        <pt x="520" y="512" on="1"/>
        <pt x="602" y="437" on="0"/>
        <pt x="813" y="313" on="0"/>
        <pt x="905" y="313" on="1"/>
        <pt x="931" y="313" on="0"/>
        <pt x="957" y="317" on="1"/>
        <pt x="1122" y="344" on="0"/>
        <pt x="1142" y="464" on="1"/>
        <pt x="1147" y="496" on="0"/>
        <pt x="1147" y="526" on="1"/>
        <pt x="1147" y="610" on="0"/>
        <pt x="1069" y="741" on="0"/>
        <pt x="891" y="866" on="0"/>
      </contour>
      <contour>
        <pt x="446" y="585" on="1"/>
        <pt x="472" y="642" on="0"/>
        <pt x="476" y="716" on="1"/>
        <pt x="485" y="1064" on="1"/>
        <pt x="486" y="1109" on="0"/>
        <pt x="455" y="1180" on="1"/>
        <pt x="439" y="1166" on="0"/>
        <pt x="426" y="1147" on="1"/>
        <pt x="335" y="1025" on="0"/>
        <pt x="335" y="873" on="1"/>
        <pt x="335" y="708" on="0"/>
      </contour>
    </TTGlyph>
    <TTGlyph name="H" xMin="27" yMin="-372" xMax="1210" yMax="1535">
      <contour>
        <pt x="39" y="1220" on="1"/>
        <pt x="334" y="1386" on="0"/>
        <pt x="605" y="1535" on="1"/>
        <pt x="834" y="1432" on="0"/>
        <pt x="1042" y="1384" on="1"/>
        <pt x="764" y="1191" on="1"/>
        <pt x="700" y="1205" on="0"/>
        <pt x="589" y="1262" on="0"/>
        <pt x="506" y="1282" on="0"/>
        <pt x="441" y="1282" on="0"/>
        <pt x="390" y="1218" on="0"/>
        <pt x="390" y="1164" on="0"/>
        <pt x="391" y="1154" on="1"/>
        <pt x="390" y="881" on="1"/>
        <pt x="755" y="1110" on="1"/>
        <pt x="1000" y="890" on="0"/>
        <pt x="1210" y="599" on="1"/>
        <pt x="1126" y="355" on="0"/>
        <pt x="904" y="-98" on="0"/>
        <pt x="731" y="-289" on="1"/>
        <pt x="655" y="-372" on="0"/>
        <pt x="586" y="-372" on="1"/>
        <pt x="545" y="-372" on="0"/>
        <pt x="479" y="-321" on="0"/>
        <pt x="429" y="-274" on="0"/>
        <pt x="402" y="-251" on="1"/>
        <pt x="681" y="-183" on="0"/>
        <pt x="791" y="29" on="1"/>
        <pt x="867" y="176" on="0"/>
        <pt x="867" y="322" on="1"/>
        <pt x="867" y="387" on="0"/>
        <pt x="829" y="554" on="0"/>
        <pt x="720" y="725" on="1"/>
        <pt x="652" y="833" on="0"/>
        <pt x="560" y="833" on="1"/>
        <pt x="505" y="833" on="0"/>
        <pt x="442" y="795" on="1"/>
        <pt x="425" y="785" on="0"/>
        <pt x="390" y="762" on="1"/>
        <pt x="389" y="461" on="1"/>
        <pt x="387" y="421" on="0"/>
        <pt x="432" y="396" on="0"/>
        <pt x="501" y="372" on="0"/>
        <pt x="616" y="335" on="0"/>
        <pt x="697" y="334" on="1"/>
        <pt x="477" y="31" on="1"/>
        <pt x="215" y="90" on="0"/>
        <pt x="27" y="186" on="1"/>
        <pt x="97" y="456" on="0"/>
        <pt x="97" y="973" on="0"/>
      </contour>
    </TTGlyph>
    <TTGlyph name="I" xMin="28" yMin="31" xMax="1030" yMax="1562">
      <contour>
        <pt x="1030" y="1516" on="1"/>
        <pt x="937" y="1352" on="0"/>
        <pt x="905" y="1292" on="1"/>
        <pt x="927" y="1041" on="0"/>
        <pt x="965" y="713" on="0"/>
        <pt x="965" y="655" on="1"/>
        <pt x="965" y="486" on="0"/>
        <pt x="900" y="391" on="1"/>
        <pt x="807" y="326" on="0"/>
        <pt x="616" y="136" on="0"/>
        <pt x="519" y="31" on="1"/>
        <pt x="344" y="113" on="0"/>
        <pt x="112" y="224" on="1"/>
        <pt x="28" y="258" on="0"/>
        <pt x="28" y="345" on="1"/>
        <pt x="28" y="368" on="0"/>
        <pt x="45" y="465" on="0"/>
        <pt x="70" y="606" on="0"/>
        <pt x="82" y="677" on="1"/>
        <pt x="191" y="534" on="0"/>
        <pt x="439" y="365" on="0"/>
        <pt x="571" y="314" on="1"/>
        <pt x="589" y="307" on="0"/>
        <pt x="642" y="307" on="0"/>
        <pt x="701" y="377" on="0"/>
        <pt x="701" y="494" on="0"/>
        <pt x="682" y="670" on="0"/>
        <pt x="636" y="942" on="0"/>
        <pt x="616" y="1080" on="1"/>
        <pt x="695" y="1143" on="0"/>
        <pt x="782" y="1237" on="1"/>
        <pt x="714" y="1230" on="0"/>
        <pt x="519" y="1230" on="0"/>
        <pt x="326" y="1269" on="0"/>
        <pt x="268" y="1269" on="1"/>
        <pt x="153" y="1269" on="0"/>
        <pt x="66" y="1216" on="1"/>
        <pt x="114" y="1401" on="0"/>
        <pt x="210" y="1562" on="1"/>
        <pt x="503" y="1514" on="0"/>
        <pt x="874" y="1514" on="1"/>
        <pt x="950" y="1514" on="0"/>
      </contour>
    </TTGlyph>
    <TTGlyph name="Iacute" xMin="28" yMin="31" xMax="1030" yMax="1954">
      <component glyphName="I" x="0" y="0" flags="0x1204"/>
      <component glyphName="acute" x="-590" y="215" flags="0x1004"/>
    </TTGlyph>
    <TTGlyph name="Icircumflex" xMin="28" yMin="31" xMax="1030" yMax="1848">
      <component glyphName="I" x="0" y="0" flags="0x1204"/>
      <component glyphName="circumflex" x="243" y="321" flags="0x1004"/>
    </TTGlyph>
    <TTGlyph name="Idieresis" xMin="28" yMin="31" xMax="1030" yMax="1590">
      <component glyphName="I" x="0" y="0" flags="0x1204"/>
      <component glyphName="dieresis" x="183" y="579" scalex="0.974853515625" scaley="0.699157714844" flags="0x1004"/>
    </TTGlyph>
    <TTGlyph name="Igrave" xMin="28" yMin="31" xMax="1030" yMax="1954">
      <component glyphName="I" x="0" y="0" flags="0x1204"/>
      <component glyphName="grave" x="201" y="274" flags="0x1004"/>
    </TTGlyph>
    <TTGlyph name="J" xMin="6" yMin="-395" xMax="1100" yMax="1562">
      <contour>
        <pt x="12" y="1035" on="1"/>
        <pt x="12" y="1035" on="0"/>
        <pt x="289" y="1562" on="1"/>
        <pt x="524" y="1496" on="0"/>
        <pt x="928" y="1496" on="0"/>
        <pt x="1100" y="1535" on="1"/>
        <pt x="1028" y="1390" on="0"/>
        <pt x="1028" y="1277" on="1"/>
        <pt x="1028" y="1259" on="0"/>
        <pt x="1041" y="1126" on="0"/>
        <pt x="1041" y="1017" on="1"/>
        <pt x="1041" y="581" on="0"/>
        <pt x="858" y="262" on="1"/>
        <pt x="630" y="-136" on="0"/>
        <pt x="165" y="-395" on="1"/>
        <pt x="126" y="-365" on="0"/>
        <pt x="44" y="-306" on="0"/>
        <pt x="6" y="-276" on="1"/>
        <pt x="134" y="-251" on="0"/>
        <pt x="365" y="-169" on="0"/>
        <pt x="458" y="-64" on="1"/>
        <pt x="661" y="165" on="0"/>
        <pt x="719" y="774" on="1"/>
        <pt x="674" y="776" on="0"/>
        <pt x="609" y="776" on="1"/>
        <pt x="454" y="776" on="0"/>
        <pt x="249" y="726" on="1"/>
        <pt x="296" y="814" on="0"/>
        <pt x="390" y="990" on="0"/>
        <pt x="439" y="1080" on="1"/>
        <pt x="574" y="1024" on="0"/>
        <pt x="744" y="1022" on="1"/>
        <pt x="762" y="1167" on="0"/>
        <pt x="794" y="1240" on="1"/>
        <pt x="745" y="1242" on="0"/>
        <pt x="699" y="1242" on="1"/>
        <pt x="519" y="1242" on="0"/>
        <pt x="185" y="1166" on="0"/>
      </contour>
    </TTGlyph>
    <TTGlyph name="K" xMin="44" yMin="31" xMax="1411" yMax="1535">
      <contour>
        <pt x="52" y="1200" on="1"/>
        <pt x="71" y="1268" on="0"/>
        <pt x="141" y="1535" on="1"/>
        <pt x="285" y="1524" on="0"/>
        <pt x="574" y="1500" on="0"/>
        <pt x="719" y="1489" on="1"/>
        <pt x="645" y="1360" on="0"/>
        <pt x="620" y="1147" on="0"/>
        <pt x="620" y="1026" on="0"/>
        <pt x="622" y="991" on="1"/>
        <pt x="725" y="1097" on="0"/>
        <pt x="925" y="1381" on="0"/>
        <pt x="1025" y="1535" on="1"/>
        <pt x="1223" y="1223" on="0"/>
        <pt x="1411" y="1024" on="1"/>
        <pt x="1056" y="856" on="1"/>
        <pt x="1409" y="224" on="1"/>
        <pt x="1189" y="92" on="0"/>
        <pt x="1089" y="31" on="1"/>
        <pt x="934" y="425" on="0"/>
        <pt x="779" y="725" on="1"/>
        <pt x="626" y="652" on="1"/>
        <pt x="617" y="585" on="0"/>
        <pt x="575" y="472" on="0"/>
        <pt x="465" y="391" on="0"/>
        <pt x="421" y="345" on="1"/>
        <pt x="489" y="322" on="0"/>
        <pt x="530" y="322" on="1"/>
        <pt x="639" y="322" on="0"/>
        <pt x="747" y="342" on="1"/>
        <pt x="577" y="31" on="1"/>
        <pt x="357" y="95" on="0"/>
        <pt x="44" y="111" on="1"/>
        <pt x="247" y="289" on="0"/>
        <pt x="326" y="892" on="0"/>
        <pt x="326" y="1209" on="1"/>
        <pt x="326" y="1217" on="0"/>
        <pt x="326" y="1225" on="1"/>
        <pt x="307" y="1226" on="0"/>
        <pt x="275" y="1226" on="1"/>
        <pt x="226" y="1226" on="0"/>
      </contour>
      <contour>
        <pt x="632" y="780" on="1"/>
        <pt x="849" y="875" on="0"/>
        <pt x="1022" y="991" on="1"/>
        <pt x="955" y="1044" on="0"/>
        <pt x="904" y="1141" on="1"/>
        <pt x="631" y="807" on="1"/>
        <pt x="631" y="790" on="0"/>
      </contour>
    </TTGlyph>
    <TTGlyph name="L" xMin="21" yMin="31" xMax="1135" yMax="1536">
      <contour>
        <pt x="1122" y="1375" on="1"/>
        <pt x="980" y="1372" on="0"/>
        <pt x="845" y="1342" on="1"/>
        <pt x="835" y="1270" on="0"/>
        <pt x="835" y="1056" on="0"/>
        <pt x="871" y="862" on="0"/>
        <pt x="871" y="814" on="1"/>
        <pt x="871" y="732" on="0"/>
        <pt x="749" y="636" on="1"/>
        <pt x="674" y="572" on="0"/>
        <pt x="522" y="450" on="0"/>
        <pt x="447" y="389" on="1"/>
        <pt x="754" y="306" on="0"/>
        <pt x="1096" y="306" on="1"/>
        <pt x="1115" y="306" on="0"/>
        <pt x="1135" y="306" on="1"/>
        <pt x="1089" y="232" on="0"/>
        <pt x="1032" y="152" on="0"/>
        <pt x="987" y="80" on="1"/>
        <pt x="954" y="31" on="0"/>
        <pt x="887" y="31" on="1"/>
        <pt x="858" y="31" on="0"/>
        <pt x="621" y="81" on="0"/>
        <pt x="220" y="162" on="0"/>
        <pt x="21" y="204" on="1"/>
        <pt x="189" y="407" on="0"/>
        <pt x="229" y="546" on="1"/>
        <pt x="245" y="603" on="0"/>
        <pt x="245" y="741" on="0"/>
        <pt x="150" y="959" on="0"/>
        <pt x="111" y="1117" on="0"/>
        <pt x="111" y="1145" on="1"/>
        <pt x="111" y="1215" on="0"/>
        <pt x="165" y="1239" on="1"/>
        <pt x="331" y="1312" on="0"/>
        <pt x="689" y="1435" on="0"/>
        <pt x="929" y="1536" on="0"/>
        <pt x="1015" y="1536" on="0"/>
        <pt x="1040" y="1518" on="1"/>
        <pt x="1095" y="1477" on="0"/>
      </contour>
      <contour>
        <pt x="608" y="898" on="1"/>
        <pt x="593" y="1131" on="1"/>
        <pt x="593" y="1193" on="0"/>
        <pt x="602" y="1257" on="1"/>
        <pt x="580" y="1246" on="0"/>
        <pt x="537" y="1221" on="1"/>
        <pt x="452" y="1170" on="0"/>
        <pt x="452" y="1094" on="1"/>
        <pt x="452" y="1068" on="0"/>
        <pt x="501" y="862" on="1"/>
        <pt x="520" y="778" on="0"/>
        <pt x="520" y="654" on="0"/>
        <pt x="514" y="612" on="1"/>
        <pt x="565" y="649" on="0"/>
        <pt x="608" y="844" on="0"/>
      </contour>
    </TTGlyph>
    <TTGlyph name="M" xMin="42" yMin="31" xMax="1845" yMax="1535">
      <contour>
        <pt x="671" y="331" on="1"/>
        <pt x="504" y="31" on="1"/>
        <pt x="215" y="177" on="0"/>
        <pt x="42" y="267" on="1"/>
        <pt x="264" y="474" on="0"/>
        <pt x="289" y="558" on="1"/>
        <pt x="293" y="573" on="0"/>
        <pt x="293" y="593" on="1"/>
        <pt x="293" y="688" on="0"/>
        <pt x="127" y="1054" on="0"/>
        <pt x="72" y="1191" on="0"/>
        <pt x="72" y="1265" on="0"/>
        <pt x="84" y="1292" on="1"/>
        <pt x="112" y="1354" on="0"/>
        <pt x="320" y="1457" on="0"/>
        <pt x="532" y="1535" on="1"/>
        <pt x="562" y="1465" on="0"/>
        <pt x="576" y="1430" on="1"/>
        <pt x="442" y="1386" on="0"/>
        <pt x="429" y="1320" on="1"/>
        <pt x="426" y="1306" on="0"/>
        <pt x="426" y="1290" on="1"/>
        <pt x="426" y="1233" on="0"/>
        <pt x="464" y="1155" on="1"/>
        <pt x="817" y="1501" on="0"/>
        <pt x="850" y="1535" on="1"/>
        <pt x="939" y="1476" on="0"/>
        <pt x="1064" y="1369" on="0"/>
        <pt x="1152" y="1325" on="1"/>
        <pt x="1352" y="1535" on="1"/>
        <pt x="1472" y="1470" on="0"/>
        <pt x="1714" y="1341" on="0"/>
        <pt x="1845" y="1295" on="1"/>
        <pt x="1684" y="1185" on="0"/>
        <pt x="1675" y="922" on="1"/>
        <pt x="1664" y="550" on="1"/>
        <pt x="1664" y="539" on="0"/>
        <pt x="1664" y="528" on="1"/>
        <pt x="1664" y="366" on="0"/>
        <pt x="1779" y="331" on="1"/>
        <pt x="1620" y="31" on="1"/>
        <pt x="1475" y="84" on="0"/>
        <pt x="1364" y="307" on="0"/>
        <pt x="1364" y="504" on="1"/>
        <pt x="1364" y="518" on="0"/>
        <pt x="1364" y="532" on="1"/>
        <pt x="1366" y="784" on="1"/>
        <pt x="1366" y="875" on="0"/>
        <pt x="1432" y="1011" on="0"/>
        <pt x="1485" y="1080" on="1"/>
        <pt x="1284" y="1227" on="0"/>
        <pt x="1184" y="1239" on="1"/>
        <pt x="1146" y="1182" on="0"/>
        <pt x="1145" y="1026" on="0"/>
        <pt x="1141" y="922" on="1"/>
        <pt x="1130" y="550" on="1"/>
        <pt x="1130" y="539" on="0"/>
        <pt x="1130" y="528" on="1"/>
        <pt x="1130" y="347" on="0"/>
        <pt x="1225" y="316" on="1"/>
        <pt x="991" y="31" on="1"/>
        <pt x="937" y="99" on="0"/>
        <pt x="801" y="221" on="0"/>
        <pt x="741" y="272" on="1"/>
        <pt x="771" y="307" on="0"/>
        <pt x="829" y="457" on="0"/>
        <pt x="830" y="532" on="1"/>
        <pt x="865" y="1151" on="1"/>
        <pt x="778" y="1216" on="0"/>
        <pt x="730" y="1216" on="1"/>
        <pt x="718" y="1216" on="0"/>
        <pt x="708" y="1212" on="1"/>
        <pt x="661" y="1191" on="0"/>
        <pt x="517" y="1052" on="1"/>
        <pt x="530" y="1029" on="1"/>
        <pt x="605" y="889" on="0"/>
        <pt x="605" y="797" on="1"/>
        <pt x="605" y="772" on="0"/>
        <pt x="599" y="750" on="1"/>
        <pt x="572" y="649" on="0"/>
        <pt x="409" y="437" on="1"/>
        <pt x="503" y="369" on="0"/>
      </contour>
    </TTGlyph>
    <TTGlyph name="N" xMin="37" yMin="31" xMax="1339" yMax="1535">
      <contour>
        <pt x="666" y="331" on="1"/>
        <pt x="499" y="31" on="1"/>
        <pt x="210" y="177" on="0"/>
        <pt x="37" y="267" on="1"/>
        <pt x="259" y="474" on="0"/>
        <pt x="284" y="558" on="1"/>
        <pt x="288" y="573" on="0"/>
        <pt x="288" y="593" on="1"/>
        <pt x="288" y="688" on="0"/>
        <pt x="122" y="1054" on="0"/>
        <pt x="67" y="1191" on="0"/>
        <pt x="67" y="1265" on="0"/>
        <pt x="80" y="1292" on="1"/>
        <pt x="107" y="1354" on="0"/>
        <pt x="315" y="1457" on="0"/>
        <pt x="527" y="1535" on="1"/>
        <pt x="557" y="1465" on="0"/>
        <pt x="571" y="1430" on="1"/>
        <pt x="431" y="1384" on="0"/>
        <pt x="423" y="1314" on="1"/>
        <pt x="422" y="1305" on="0"/>
        <pt x="422" y="1295" on="1"/>
        <pt x="422" y="1230" on="0"/>
        <pt x="467" y="1136" on="1"/>
        <pt x="559" y="1234" on="0"/>
        <pt x="762" y="1455" on="0"/>
        <pt x="840" y="1535" on="1"/>
        <pt x="960" y="1470" on="0"/>
        <pt x="1206" y="1341" on="0"/>
        <pt x="1339" y="1295" on="1"/>
        <pt x="1176" y="1185" on="0"/>
        <pt x="1169" y="922" on="1"/>
        <pt x="1156" y="550" on="1"/>
        <pt x="1156" y="539" on="0"/>
        <pt x="1156" y="529" on="1"/>
        <pt x="1156" y="367" on="0"/>
        <pt x="1272" y="331" on="1"/>
        <pt x="1190" y="181" on="0"/>
        <pt x="1114" y="31" on="1"/>
        <pt x="969" y="84" on="0"/>
        <pt x="857" y="309" on="0"/>
        <pt x="857" y="511" on="1"/>
        <pt x="857" y="521" on="0"/>
        <pt x="857" y="532" on="1"/>
        <pt x="860" y="784" on="1"/>
        <pt x="860" y="875" on="0"/>
        <pt x="925" y="1011" on="0"/>
        <pt x="977" y="1080" on="1"/>
        <pt x="873" y="1157" on="0"/>
        <pt x="773" y="1157" on="1"/>
        <pt x="660" y="1157" on="0"/>
        <pt x="524" y="1032" on="1"/>
        <pt x="525" y="1029" on="1"/>
        <pt x="600" y="889" on="0"/>
        <pt x="600" y="797" on="1"/>
        <pt x="600" y="772" on="0"/>
        <pt x="594" y="750" on="1"/>
        <pt x="567" y="649" on="0"/>
        <pt x="404" y="437" on="1"/>
        <pt x="498" y="369" on="0"/>
      </contour>
    </TTGlyph>
    <TTGlyph name="Ntilde" xMin="37" yMin="31" xMax="1431" yMax="1900">
      <contour>
        <pt x="1195" y="1821" on="1"/>
        <pt x="1431" y="1607" on="1"/>
        <pt x="1380" y="1485" on="0"/>
        <pt x="1240" y="1398" on="1"/>
        <pt x="913" y="1694" on="0"/>
        <pt x="804" y="1694" on="1"/>
        <pt x="791" y="1694" on="0"/>
        <pt x="781" y="1690" on="1"/>
        <pt x="687" y="1651" on="0"/>
        <pt x="661" y="1451" on="1"/>
        <pt x="605" y="1491" on="0"/>
        <pt x="463" y="1632" on="0"/>
        <pt x="392" y="1702" on="1"/>
        <pt x="483" y="1869" on="0"/>
        <pt x="634" y="1896" on="1"/>
        <pt x="654" y="1899" on="0"/>
        <pt x="675" y="1899" on="1"/>
        <pt x="807" y="1899" on="0"/>
        <pt x="948" y="1757" on="1"/>
        <pt x="1057" y="1648" on="0"/>
        <pt x="1112" y="1648" on="1"/>
        <pt x="1133" y="1648" on="0"/>
        <pt x="1146" y="1664" on="1"/>
        <pt x="1195" y="1720" on="0"/>
      </contour>
      <contour>
        <pt x="666" y="331" on="1"/>
        <pt x="499" y="31" on="1"/>
        <pt x="210" y="177" on="0"/>
        <pt x="37" y="267" on="1"/>
        <pt x="259" y="474" on="0"/>
        <pt x="284" y="558" on="1"/>
        <pt x="288" y="573" on="0"/>
        <pt x="288" y="593" on="1"/>
        <pt x="288" y="688" on="0"/>
        <pt x="122" y="1054" on="0"/>
        <pt x="67" y="1191" on="0"/>
        <pt x="67" y="1265" on="0"/>
        <pt x="80" y="1292" on="1"/>
        <pt x="107" y="1354" on="0"/>
        <pt x="315" y="1457" on="0"/>
        <pt x="527" y="1535" on="1"/>
        <pt x="557" y="1465" on="0"/>
        <pt x="571" y="1430" on="1"/>
        <pt x="431" y="1384" on="0"/>
        <pt x="423" y="1314" on="1"/>
        <pt x="422" y="1305" on="0"/>
        <pt x="422" y="1295" on="1"/>
        <pt x="422" y="1230" on="0"/>
        <pt x="467" y="1136" on="1"/>
        <pt x="559" y="1234" on="0"/>
        <pt x="762" y="1455" on="0"/>
        <pt x="840" y="1535" on="1"/>
        <pt x="960" y="1470" on="0"/>
        <pt x="1206" y="1341" on="0"/>
        <pt x="1339" y="1295" on="1"/>
        <pt x="1176" y="1185" on="0"/>
        <pt x="1169" y="922" on="1"/>
        <pt x="1156" y="550" on="1"/>
        <pt x="1156" y="539" on="0"/>
        <pt x="1156" y="529" on="1"/>
        <pt x="1156" y="367" on="0"/>
        <pt x="1272" y="331" on="1"/>
        <pt x="1190" y="181" on="0"/>
        <pt x="1114" y="31" on="1"/>
        <pt x="969" y="84" on="0"/>
        <pt x="857" y="309" on="0"/>
        <pt x="857" y="511" on="1"/>
        <pt x="857" y="521" on="0"/>
        <pt x="857" y="532" on="1"/>
        <pt x="860" y="784" on="1"/>
        <pt x="860" y="875" on="0"/>
        <pt x="925" y="1011" on="0"/>
        <pt x="977" y="1080" on="1"/>
        <pt x="873" y="1157" on="0"/>
        <pt x="773" y="1157" on="1"/>
        <pt x="660" y="1157" on="0"/>
        <pt x="524" y="1032" on="1"/>
        <pt x="525" y="1029" on="1"/>
        <pt x="600" y="889" on="0"/>
        <pt x="600" y="797" on="1"/>
        <pt x="600" y="772" on="0"/>
        <pt x="594" y="750" on="1"/>
        <pt x="567" y="649" on="0"/>
        <pt x="404" y="437" on="1"/>
        <pt x="498" y="369" on="0"/>
      </contour>
    </TTGlyph>
    <TTGlyph name="O" xMin="34" yMin="30" xMax="1594" yMax="1535">
      <contour>
        <pt x="936" y="1535" on="1"/>
        <pt x="927" y="1406" on="0"/>
        <pt x="926" y="1315" on="1"/>
        <pt x="974" y="1362" on="0"/>
        <pt x="1070" y="1461" on="0"/>
        <pt x="1117" y="1502" on="1"/>
        <pt x="1261" y="1209" on="0"/>
        <pt x="1594" y="1009" on="1"/>
        <pt x="1592" y="769" on="0"/>
        <pt x="1425" y="402" on="0"/>
        <pt x="1189" y="155" on="0"/>
        <pt x="931" y="30" on="0"/>
        <pt x="840" y="30" on="1"/>
        <pt x="416" y="30" on="0"/>
        <pt x="81" y="571" on="0"/>
        <pt x="34" y="932" on="1"/>
        <pt x="195" y="1165" on="0"/>
        <pt x="627" y="1489" on="0"/>
      </contour>
      <contour>
        <pt x="925" y="1187" on="1"/>
        <pt x="929" y="730" on="0"/>
        <pt x="1035" y="495" on="1"/>
        <pt x="784" y="435" on="0"/>
        <pt x="707" y="290" on="1"/>
        <pt x="805" y="231" on="0"/>
        <pt x="915" y="231" on="1"/>
        <pt x="926" y="231" on="0"/>
        <pt x="936" y="232" on="1"/>
        <pt x="1094" y="237" on="0"/>
        <pt x="1196" y="323" on="1"/>
        <pt x="1316" y="423" on="0"/>
        <pt x="1316" y="582" on="1"/>
        <pt x="1316" y="701" on="0"/>
        <pt x="1150" y="1015" on="0"/>
      </contour>
      <contour>
        <pt x="617" y="359" on="1"/>
        <pt x="655" y="465" on="0"/>
        <pt x="655" y="634" on="1"/>
        <pt x="655" y="650" on="0"/>
        <pt x="650" y="825" on="0"/>
        <pt x="646" y="1147" on="0"/>
        <pt x="624" y="1305" on="1"/>
        <pt x="404" y="1177" on="0"/>
        <pt x="404" y="900" on="1"/>
        <pt x="404" y="877" on="0"/>
        <pt x="406" y="853" on="1"/>
        <pt x="425" y="539" on="0"/>
      </contour>
    </TTGlyph>
    <TTGlyph name="OE" xMin="34" yMin="30" xMax="1831" yMax="1535">
      <contour>
        <pt x="1831" y="1345" on="1"/>
        <pt x="1661" y="1147" on="1"/>
        <pt x="1505" y="1255" on="0"/>
        <pt x="1356" y="1276" on="1"/>
        <pt x="1347" y="1190" on="0"/>
        <pt x="1344" y="1080" on="1"/>
        <pt x="1757" y="1080" on="1"/>
        <pt x="1757" y="844" on="1"/>
        <pt x="1349" y="844" on="1"/>
        <pt x="1352" y="730" on="0"/>
        <pt x="1372" y="579" on="1"/>
        <pt x="1142" y="495" on="1"/>
        <pt x="1331" y="325" on="0"/>
        <pt x="1668" y="325" on="1"/>
        <pt x="1706" y="325" on="0"/>
        <pt x="1746" y="327" on="1"/>
        <pt x="1527" y="31" on="1"/>
        <pt x="1306" y="55" on="0"/>
        <pt x="1137" y="135" on="1"/>
        <pt x="971" y="30" on="0"/>
        <pt x="840" y="30" on="1"/>
        <pt x="416" y="30" on="0"/>
        <pt x="81" y="571" on="0"/>
        <pt x="34" y="932" on="1"/>
        <pt x="195" y="1165" on="0"/>
        <pt x="627" y="1489" on="0"/>
        <pt x="936" y="1535" on="1"/>
        <pt x="934" y="1249" on="1"/>
        <pt x="1421" y="1535" on="1"/>
        <pt x="1562" y="1438" on="0"/>
      </contour>
      <contour>
        <pt x="655" y="634" on="1"/>
        <pt x="645" y="1080" on="1"/>
        <pt x="639" y="1194" on="0"/>
        <pt x="624" y="1305" on="1"/>
        <pt x="404" y="1177" on="0"/>
        <pt x="404" y="900" on="1"/>
        <pt x="404" y="877" on="0"/>
        <pt x="406" y="853" on="1"/>
        <pt x="425" y="539" on="0"/>
        <pt x="617" y="359" on="1"/>
        <pt x="655" y="465" on="0"/>
      </contour>
      <contour>
        <pt x="1065" y="577" on="1"/>
        <pt x="1139" y="602" on="1"/>
        <pt x="1109" y="821" on="0"/>
        <pt x="1109" y="1141" on="0"/>
        <pt x="1114" y="1237" on="1"/>
        <pt x="1054" y="1207" on="0"/>
        <pt x="979" y="1127" on="0"/>
        <pt x="946" y="1052" on="0"/>
        <pt x="946" y="915" on="0"/>
        <pt x="948" y="880" on="1"/>
        <pt x="955" y="722" on="0"/>
      </contour>
      <contour>
        <pt x="976" y="235" on="1"/>
        <pt x="879" y="313" on="0"/>
        <pt x="815" y="405" on="1"/>
        <pt x="742" y="356" on="0"/>
        <pt x="707" y="290" on="1"/>
        <pt x="805" y="231" on="0"/>
        <pt x="915" y="231" on="1"/>
        <pt x="953" y="231" on="0"/>
      </contour>
    </TTGlyph>
    <TTGlyph name="Oacute" xMin="34" yMin="30" xMax="1594" yMax="1879">
      <component glyphName="O" x="0" y="0" flags="0x1204"/>
      <component glyphName="acute" x="-141" y="140" flags="0x1004"/>
    </TTGlyph>
    <TTGlyph name="Ocircumflex" xMin="34" yMin="30" xMax="1594" yMax="1815">
      <component glyphName="O" x="0" y="0" flags="0x1204"/>
      <component glyphName="circumflex" x="542" y="288" flags="0x1004"/>
    </TTGlyph>
    <TTGlyph name="Odieresis" xMin="41" yMin="30" xMax="1601" yMax="1562">
      <contour>
        <pt x="944" y="1535" on="1"/>
        <pt x="935" y="1406" on="0"/>
        <pt x="934" y="1315" on="1"/>
        <pt x="981" y="1362" on="0"/>
        <pt x="1077" y="1461" on="0"/>
        <pt x="1125" y="1502" on="1"/>
        <pt x="1269" y="1209" on="0"/>
        <pt x="1601" y="1009" on="1"/>
        <pt x="1600" y="769" on="0"/>
        <pt x="1432" y="402" on="0"/>
        <pt x="1196" y="155" on="0"/>
        <pt x="939" y="30" on="0"/>
        <pt x="847" y="30" on="1"/>
        <pt x="424" y="30" on="0"/>
        <pt x="89" y="571" on="0"/>
        <pt x="41" y="932" on="1"/>
        <pt x="202" y="1165" on="0"/>
        <pt x="635" y="1489" on="0"/>
      </contour>
      <contour>
        <pt x="1211" y="1455" on="1"/>
        <pt x="1571" y="1527" on="1"/>
        <pt x="1562" y="1434" on="0"/>
        <pt x="1562" y="1229" on="0"/>
        <pt x="1530" y="1147" on="1"/>
        <pt x="1442" y="1200" on="0"/>
        <pt x="1270" y="1372" on="0"/>
      </contour>
      <contour>
        <pt x="162" y="1190" on="1"/>
        <pt x="127" y="1375" on="0"/>
        <pt x="127" y="1516" on="0"/>
        <pt x="134" y="1562" on="1"/>
        <pt x="536" y="1471" on="1"/>
        <pt x="361" y="1379" on="0"/>
      </contour>
      <contour>
        <pt x="932" y="1187" on="1"/>
        <pt x="936" y="730" on="0"/>
        <pt x="1042" y="495" on="1"/>
        <pt x="791" y="435" on="0"/>
        <pt x="715" y="290" on="1"/>
        <pt x="812" y="231" on="0"/>
        <pt x="923" y="231" on="1"/>
        <pt x="933" y="231" on="0"/>
        <pt x="944" y="232" on="1"/>
        <pt x="1101" y="237" on="0"/>
        <pt x="1204" y="323" on="1"/>
        <pt x="1323" y="423" on="0"/>
        <pt x="1323" y="582" on="1"/>
        <pt x="1323" y="701" on="0"/>
        <pt x="1157" y="1015" on="0"/>
      </contour>
      <contour>
        <pt x="625" y="359" on="1"/>
        <pt x="662" y="465" on="0"/>
        <pt x="662" y="633" on="1"/>
        <pt x="662" y="650" on="0"/>
        <pt x="657" y="825" on="0"/>
        <pt x="654" y="1147" on="0"/>
        <pt x="631" y="1305" on="1"/>
        <pt x="412" y="1177" on="0"/>
        <pt x="412" y="899" on="1"/>
        <pt x="412" y="876" on="0"/>
        <pt x="413" y="853" on="1"/>
        <pt x="432" y="539" on="0"/>
      </contour>
    </TTGlyph>
    <TTGlyph name="Ograve" xMin="34" yMin="30" xMax="1594" yMax="1896">
      <component glyphName="O" x="0" y="0" flags="0x1204"/>
      <component glyphName="grave" x="593" y="216" flags="0x1004"/>
    </TTGlyph>
    <TTGlyph name="Oslash" xMin="34" yMin="-8" xMax="1594" yMax="1535">
      <contour>
        <pt x="1294" y="1520" on="1"/>
        <pt x="1541" y="1520" on="1"/>
        <pt x="1330" y="1210" on="1"/>
        <pt x="1442" y="1100" on="0"/>
        <pt x="1594" y="1009" on="1"/>
        <pt x="1592" y="769" on="0"/>
        <pt x="1425" y="402" on="0"/>
        <pt x="1189" y="155" on="0"/>
        <pt x="931" y="30" on="0"/>
        <pt x="840" y="30" on="1"/>
        <pt x="677" y="30" on="0"/>
        <pt x="552" y="70" on="1"/>
        <pt x="500" y="-8" on="1"/>
        <pt x="252" y="-8" on="1"/>
        <pt x="369" y="164" on="1"/>
        <pt x="297" y="220" on="0"/>
        <pt x="249" y="300" on="1"/>
        <pt x="81" y="571" on="0"/>
        <pt x="34" y="932" on="1"/>
        <pt x="195" y="1165" on="0"/>
        <pt x="627" y="1489" on="0"/>
        <pt x="936" y="1535" on="1"/>
        <pt x="927" y="1406" on="0"/>
        <pt x="926" y="1315" on="1"/>
        <pt x="974" y="1362" on="0"/>
        <pt x="1070" y="1461" on="0"/>
        <pt x="1117" y="1502" on="1"/>
        <pt x="1150" y="1435" on="0"/>
        <pt x="1192" y="1372" on="1"/>
      </contour>
      <contour>
        <pt x="1035" y="495" on="1"/>
        <pt x="784" y="435" on="0"/>
        <pt x="707" y="290" on="1"/>
        <pt x="805" y="231" on="0"/>
        <pt x="915" y="231" on="1"/>
        <pt x="926" y="231" on="0"/>
        <pt x="936" y="232" on="1"/>
        <pt x="1094" y="237" on="0"/>
        <pt x="1196" y="323" on="1"/>
        <pt x="1316" y="423" on="0"/>
        <pt x="1316" y="582" on="1"/>
        <pt x="1316" y="701" on="0"/>
        <pt x="1239" y="846" on="1"/>
        <pt x="1209" y="904" on="0"/>
        <pt x="1161" y="962" on="1"/>
        <pt x="972" y="686" on="1"/>
        <pt x="997" y="577" on="0"/>
      </contour>
      <contour>
        <pt x="654" y="582" on="1"/>
        <pt x="655" y="622" on="0"/>
        <pt x="650" y="825" on="0"/>
        <pt x="646" y="1147" on="0"/>
        <pt x="624" y="1305" on="1"/>
        <pt x="404" y="1177" on="0"/>
        <pt x="404" y="898" on="1"/>
        <pt x="404" y="619" on="0"/>
        <pt x="551" y="430" on="1"/>
      </contour>
      <contour>
        <pt x="925" y="1187" on="1"/>
        <pt x="925" y="1082" on="0"/>
        <pt x="931" y="989" on="1"/>
        <pt x="1016" y="1112" on="1"/>
        <pt x="974" y="1150" on="0"/>
      </contour>
    </TTGlyph>
    <TTGlyph name="Otilde" xMin="34" yMin="30" xMax="1594" yMax="1914">
      <component glyphName="O" x="0" y="0" flags="0x1204"/>
      <component glyphName="tilde" x="505" y="403" flags="0x1004"/>
    </TTGlyph>
    <TTGlyph name="P" xMin="40" yMin="-350" xMax="1241" yMax="1535">
      <contour>
        <pt x="152" y="-350" on="1"/>
        <pt x="230" y="-124" on="0"/>
        <pt x="254" y="255" on="1"/>
        <pt x="49" y="329" on="1"/>
        <pt x="264" y="534" on="1"/>
        <pt x="264" y="580" on="0"/>
        <pt x="264" y="888" on="0"/>
        <pt x="251" y="1217" on="1"/>
        <pt x="199" y="1241" on="0"/>
        <pt x="92" y="1290" on="0"/>
        <pt x="40" y="1316" on="1"/>
        <pt x="212" y="1535" on="1"/>
        <pt x="486" y="1455" on="0"/>
        <pt x="607" y="1417" on="1"/>
        <pt x="604" y="1385" on="0"/>
        <pt x="600" y="1321" on="0"/>
        <pt x="597" y="1291" on="1"/>
        <pt x="901" y="1535" on="1"/>
        <pt x="1241" y="1278" on="0"/>
        <pt x="1241" y="924" on="1"/>
        <pt x="1241" y="886" on="0"/>
        <pt x="1237" y="848" on="1"/>
        <pt x="1197" y="444" on="0"/>
        <pt x="881" y="31" on="1"/>
        <pt x="560" y="146" on="1"/>
        <pt x="569" y="-15" on="0"/>
        <pt x="599" y="-69" on="1"/>
        <pt x="435" y="-170" on="0"/>
      </contour>
      <contour>
        <pt x="891" y="331" on="1"/>
        <pt x="1015" y="331" on="0"/>
        <pt x="1015" y="520" on="1"/>
        <pt x="1015" y="681" on="0"/>
        <pt x="891" y="1021" on="0"/>
        <pt x="785" y="1118" on="1"/>
        <pt x="743" y="1157" on="0"/>
        <pt x="703" y="1157" on="1"/>
        <pt x="641" y="1157" on="0"/>
        <pt x="582" y="1066" on="1"/>
        <pt x="561" y="737" on="0"/>
        <pt x="556" y="484" on="1"/>
        <pt x="885" y="331" on="1"/>
        <pt x="888" y="331" on="0"/>
      </contour>
    </TTGlyph>
    <TTGlyph name="Q" xMin="24" yMin="-331" xMax="2484" yMax="1535">
      <contour>
        <pt x="926" y="1535" on="1"/>
        <pt x="917" y="1406" on="0"/>
        <pt x="916" y="1315" on="1"/>
        <pt x="964" y="1362" on="0"/>
        <pt x="1060" y="1461" on="0"/>
        <pt x="1107" y="1502" on="1"/>
        <pt x="1251" y="1209" on="0"/>
        <pt x="1584" y="1009" on="1"/>
        <pt x="1582" y="784" on="0"/>
        <pt x="1436" y="436" on="0"/>
        <pt x="1329" y="314" on="1"/>
        <pt x="1591" y="-202" on="0"/>
        <pt x="2295" y="-202" on="1"/>
        <pt x="2386" y="-202" on="0"/>
        <pt x="2484" y="-193" on="1"/>
        <pt x="2481" y="-291" on="1"/>
        <pt x="2274" y="-330" on="0"/>
        <pt x="1863" y="-330" on="0"/>
        <pt x="1670" y="-272" on="1"/>
        <pt x="1319" y="-166" on="0"/>
        <pt x="1059" y="96" on="1"/>
        <pt x="930" y="30" on="0"/>
        <pt x="830" y="30" on="1"/>
        <pt x="406" y="30" on="0"/>
        <pt x="71" y="571" on="0"/>
        <pt x="24" y="932" on="1"/>
        <pt x="185" y="1165" on="0"/>
        <pt x="617" y="1489" on="0"/>
      </contour>
      <contour>
        <pt x="915" y="1187" on="1"/>
        <pt x="919" y="730" on="0"/>
        <pt x="1025" y="495" on="1"/>
        <pt x="774" y="435" on="0"/>
        <pt x="697" y="290" on="1"/>
        <pt x="795" y="231" on="0"/>
        <pt x="905" y="231" on="1"/>
        <pt x="916" y="231" on="0"/>
        <pt x="926" y="232" on="1"/>
        <pt x="1084" y="237" on="0"/>
        <pt x="1186" y="323" on="1"/>
        <pt x="1306" y="423" on="0"/>
        <pt x="1306" y="582" on="1"/>
        <pt x="1306" y="701" on="0"/>
        <pt x="1140" y="1015" on="0"/>
      </contour>
      <contour>
        <pt x="607" y="359" on="1"/>
        <pt x="645" y="465" on="0"/>
        <pt x="645" y="634" on="1"/>
        <pt x="645" y="650" on="0"/>
        <pt x="640" y="825" on="0"/>
        <pt x="636" y="1147" on="0"/>
        <pt x="614" y="1305" on="1"/>
        <pt x="394" y="1177" on="0"/>
        <pt x="394" y="900" on="1"/>
        <pt x="394" y="877" on="0"/>
        <pt x="396" y="853" on="1"/>
        <pt x="415" y="539" on="0"/>
      </contour>
    </TTGlyph>
    <TTGlyph name="R" xMin="36" yMin="31" xMax="1461" yMax="1535">
      <contour>
        <pt x="36" y="220" on="1"/>
        <pt x="311" y="475" on="0"/>
        <pt x="311" y="816" on="1"/>
        <pt x="311" y="1011" on="0"/>
        <pt x="217" y="1244" on="1"/>
        <pt x="156" y="1270" on="0"/>
        <pt x="50" y="1270" on="1"/>
        <pt x="46" y="1270" on="0"/>
        <pt x="42" y="1270" on="1"/>
        <pt x="375" y="1535" on="1"/>
        <pt x="532" y="1435" on="0"/>
        <pt x="584" y="1277" on="1"/>
        <pt x="772" y="1535" on="1"/>
        <pt x="1155" y="1336" on="0"/>
        <pt x="1389" y="1216" on="1"/>
        <pt x="1120" y="1074" on="0"/>
        <pt x="1024" y="1022" on="1"/>
        <pt x="1097" y="857" on="0"/>
        <pt x="1236" y="526" on="0"/>
        <pt x="1319" y="367" on="1"/>
        <pt x="1360" y="287" on="0"/>
        <pt x="1461" y="267" on="1"/>
        <pt x="1375" y="207" on="0"/>
        <pt x="1202" y="90" on="0"/>
        <pt x="1116" y="31" on="1"/>
        <pt x="932" y="494" on="0"/>
        <pt x="706" y="932" on="1"/>
        <pt x="776" y="977" on="0"/>
        <pt x="916" y="1070" on="0"/>
        <pt x="987" y="1116" on="1"/>
        <pt x="854" y="1192" on="0"/>
        <pt x="700" y="1285" on="1"/>
        <pt x="605" y="1155" on="1"/>
        <pt x="606" y="1139" on="0"/>
        <pt x="606" y="1123" on="1"/>
        <pt x="606" y="831" on="0"/>
        <pt x="329" y="391" on="1"/>
        <pt x="595" y="301" on="1"/>
        <pt x="618" y="293" on="0"/>
        <pt x="694" y="293" on="0"/>
        <pt x="757" y="310" on="1"/>
        <pt x="516" y="31" on="1"/>
      </contour>
    </TTGlyph>
    <TTGlyph name="S" xMin="41" yMin="30" xMax="1455" yMax="1564">
      <contour>
        <pt x="994" y="1475" on="1"/>
        <pt x="1087" y="1429" on="0"/>
        <pt x="1280" y="1429" on="0"/>
        <pt x="1416" y="1502" on="1"/>
        <pt x="1455" y="1455" on="1"/>
        <pt x="1307" y="1134" on="0"/>
        <pt x="1095" y="1134" on="1"/>
        <pt x="1036" y="1134" on="0"/>
        <pt x="939" y="1168" on="1"/>
        <pt x="670" y="1261" on="0"/>
        <pt x="549" y="1261" on="1"/>
        <pt x="492" y="1261" on="0"/>
        <pt x="435" y="1250" on="1"/>
        <pt x="279" y="1217" on="0"/>
        <pt x="279" y="1066" on="1"/>
        <pt x="279" y="1012" on="0"/>
        <pt x="307" y="965" on="1"/>
        <pt x="357" y="879" on="0"/>
        <pt x="573" y="879" on="0"/>
        <pt x="659" y="1071" on="1"/>
        <pt x="752" y="1086" on="0"/>
        <pt x="835" y="1086" on="1"/>
        <pt x="999" y="1086" on="0"/>
        <pt x="1123" y="1028" on="1"/>
        <pt x="1310" y="941" on="0"/>
        <pt x="1370" y="784" on="1"/>
        <pt x="1395" y="719" on="0"/>
        <pt x="1395" y="546" on="0"/>
        <pt x="1345" y="432" on="1"/>
        <pt x="1260" y="236" on="0"/>
        <pt x="996" y="62" on="1"/>
        <pt x="947" y="30" on="0"/>
        <pt x="885" y="30" on="1"/>
        <pt x="821" y="30" on="0"/>
        <pt x="746" y="47" on="1"/>
        <pt x="546" y="89" on="0"/>
        <pt x="206" y="311" on="0"/>
        <pt x="94" y="506" on="1"/>
        <pt x="41" y="595" on="0"/>
        <pt x="41" y="703" on="1"/>
        <pt x="41" y="716" on="0"/>
        <pt x="42" y="729" on="1"/>
        <pt x="77" y="1215" on="0"/>
        <pt x="426" y="1509" on="1"/>
        <pt x="492" y="1565" on="0"/>
        <pt x="608" y="1564" on="1"/>
        <pt x="802" y="1561" on="0"/>
      </contour>
      <contour>
        <pt x="322" y="769" on="1"/>
        <pt x="360" y="594" on="0"/>
        <pt x="610" y="457" on="1"/>
        <pt x="799" y="354" on="0"/>
        <pt x="962" y="354" on="1"/>
        <pt x="1016" y="354" on="0"/>
        <pt x="1067" y="365" on="1"/>
        <pt x="1169" y="386" on="0"/>
        <pt x="1222" y="445" on="1"/>
        <pt x="1280" y="509" on="0"/>
        <pt x="1280" y="650" on="0"/>
        <pt x="1165" y="784" on="0"/>
        <pt x="1041" y="805" on="1"/>
        <pt x="1029" y="807" on="0"/>
        <pt x="963" y="807" on="0"/>
        <pt x="887" y="778" on="1"/>
        <pt x="792" y="742" on="0"/>
        <pt x="736" y="620" on="1"/>
        <pt x="727" y="620" on="0"/>
        <pt x="718" y="620" on="1"/>
        <pt x="539" y="620" on="0"/>
      </contour>
    </TTGlyph>
    <TTGlyph name="Scaron" xMin="41" yMin="30" xMax="1456" yMax="1657">
      <contour>
        <pt x="885" y="1425" on="1"/>
        <pt x="880" y="1420" on="0"/>
        <pt x="866" y="1420" on="1"/>
        <pt x="748" y="1420" on="1"/>
        <pt x="734" y="1420" on="0"/>
        <pt x="726" y="1425" on="1"/>
        <pt x="515" y="1639" on="1"/>
        <pt x="508" y="1646" on="0"/>
        <pt x="520" y="1657" on="0"/>
        <pt x="534" y="1657" on="1"/>
        <pt x="587" y="1657" on="1"/>
        <pt x="600" y="1657" on="0"/>
        <pt x="603" y="1654" on="1"/>
        <pt x="809" y="1538" on="1"/>
        <pt x="1005" y="1655" on="0"/>
        <pt x="1026" y="1657" on="0"/>
        <pt x="1029" y="1657" on="1"/>
        <pt x="1080" y="1657" on="1"/>
        <pt x="1094" y="1657" on="0"/>
        <pt x="1109" y="1646" on="0"/>
        <pt x="1101" y="1639" on="1"/>
      </contour>
      <contour>
        <pt x="995" y="1288" on="1"/>
        <pt x="1087" y="1247" on="0"/>
        <pt x="1279" y="1247" on="0"/>
        <pt x="1417" y="1311" on="1"/>
        <pt x="1456" y="1270" on="1"/>
        <pt x="1307" y="991" on="0"/>
        <pt x="1095" y="991" on="1"/>
        <pt x="1037" y="991" on="0"/>
        <pt x="940" y="1021" on="1"/>
        <pt x="669" y="1102" on="0"/>
        <pt x="549" y="1102" on="1"/>
        <pt x="326" y="1102" on="0"/>
        <pt x="288" y="989" on="1"/>
        <pt x="279" y="959" on="0"/>
        <pt x="279" y="884" on="0"/>
        <pt x="307" y="844" on="1"/>
        <pt x="357" y="769" on="0"/>
        <pt x="573" y="769" on="0"/>
        <pt x="659" y="936" on="1"/>
        <pt x="753" y="949" on="0"/>
        <pt x="837" y="949" on="1"/>
        <pt x="1000" y="949" on="0"/>
        <pt x="1124" y="899" on="1"/>
        <pt x="1311" y="823" on="0"/>
        <pt x="1371" y="686" on="1"/>
        <pt x="1396" y="630" on="0"/>
        <pt x="1396" y="479" on="0"/>
        <pt x="1346" y="380" on="1"/>
        <pt x="1261" y="209" on="0"/>
        <pt x="997" y="58" on="1"/>
        <pt x="949" y="30" on="0"/>
        <pt x="887" y="30" on="1"/>
        <pt x="823" y="30" on="0"/>
        <pt x="747" y="45" on="1"/>
        <pt x="306" y="124" on="0"/>
        <pt x="94" y="444" on="1"/>
        <pt x="41" y="522" on="0"/>
        <pt x="41" y="616" on="1"/>
        <pt x="41" y="628" on="0"/>
        <pt x="42" y="639" on="1"/>
        <pt x="77" y="1062" on="0"/>
        <pt x="426" y="1317" on="1"/>
        <pt x="492" y="1366" on="0"/>
        <pt x="609" y="1365" on="1"/>
        <pt x="801" y="1363" on="0"/>
      </contour>
      <contour>
        <pt x="322" y="673" on="1"/>
        <pt x="360" y="521" on="0"/>
        <pt x="611" y="402" on="1"/>
        <pt x="800" y="312" on="0"/>
        <pt x="964" y="312" on="1"/>
        <pt x="1017" y="312" on="0"/>
        <pt x="1068" y="322" on="1"/>
        <pt x="1170" y="340" on="0"/>
        <pt x="1224" y="392" on="1"/>
        <pt x="1281" y="447" on="0"/>
        <pt x="1281" y="570" on="0"/>
        <pt x="1166" y="686" on="0"/>
        <pt x="1042" y="705" on="1"/>
        <pt x="1030" y="707" on="0"/>
        <pt x="964" y="707" on="0"/>
        <pt x="793" y="650" on="0"/>
        <pt x="737" y="544" on="1"/>
        <pt x="728" y="544" on="0"/>
        <pt x="719" y="544" on="1"/>
        <pt x="539" y="544" on="0"/>
      </contour>
    </TTGlyph>
    <TTGlyph name="T" xMin="26" yMin="114" xMax="1336" yMax="1562">
      <contour>
        <pt x="26" y="732" on="1"/>
        <pt x="211" y="986" on="0"/>
        <pt x="509" y="1259" on="1"/>
        <pt x="460" y="1299" on="0"/>
        <pt x="405" y="1299" on="1"/>
        <pt x="327" y="1299" on="0"/>
        <pt x="75" y="1195" on="1"/>
        <pt x="316" y="1562" on="1"/>
        <pt x="607" y="1532" on="0"/>
        <pt x="1108" y="1532" on="0"/>
        <pt x="1336" y="1562" on="1"/>
        <pt x="1225" y="1306" on="0"/>
        <pt x="1182" y="1204" on="1"/>
        <pt x="1071" y="1250" on="0"/>
        <pt x="951" y="1276" on="1"/>
        <pt x="959" y="455" on="1"/>
        <pt x="782" y="435" on="0"/>
        <pt x="624" y="326" on="1"/>
        <pt x="752" y="221" on="0"/>
        <pt x="1110" y="221" on="0"/>
        <pt x="1321" y="331" on="1"/>
        <pt x="1317" y="263" on="0"/>
        <pt x="1315" y="195" on="1"/>
        <pt x="765" y="-58" on="0"/>
        <pt x="165" y="286" on="0"/>
      </contour>
      <contour>
        <pt x="611" y="1155" on="1"/>
        <pt x="456" y="1009" on="0"/>
        <pt x="428" y="853" on="1"/>
        <pt x="418" y="800" on="0"/>
        <pt x="418" y="652" on="0"/>
        <pt x="494" y="465" on="0"/>
        <pt x="554" y="395" on="1"/>
        <pt x="626" y="466" on="0"/>
        <pt x="630" y="614" on="1"/>
        <pt x="637" y="890" on="0"/>
        <pt x="637" y="1086" on="0"/>
      </contour>
    </TTGlyph>
    <TTGlyph name="Thorn" xMin="40" yMin="-350" xMax="1232" yMax="1535">
      <contour>
        <pt x="152" y="-350" on="1"/>
        <pt x="230" y="-124" on="0"/>
        <pt x="254" y="255" on="1"/>
        <pt x="49" y="329" on="1"/>
        <pt x="264" y="534" on="1"/>
        <pt x="264" y="580" on="0"/>
        <pt x="264" y="888" on="0"/>
        <pt x="251" y="1217" on="1"/>
        <pt x="199" y="1241" on="0"/>
        <pt x="92" y="1290" on="0"/>
        <pt x="40" y="1316" on="1"/>
        <pt x="212" y="1535" on="1"/>
        <pt x="486" y="1455" on="0"/>
        <pt x="607" y="1417" on="1"/>
        <pt x="604" y="1385" on="0"/>
        <pt x="584" y="1035" on="0"/>
        <pt x="581" y="1005" on="1"/>
        <pt x="885" y="1249" on="1"/>
        <pt x="1232" y="987" on="0"/>
        <pt x="1232" y="746" on="1"/>
        <pt x="1232" y="489" on="0"/>
        <pt x="881" y="31" on="1"/>
        <pt x="560" y="146" on="1"/>
        <pt x="569" y="-15" on="0"/>
        <pt x="599" y="-69" on="1"/>
        <pt x="435" y="-170" on="0"/>
      </contour>
      <contour>
        <pt x="891" y="331" on="1"/>
        <pt x="1015" y="331" on="0"/>
        <pt x="1015" y="672" on="0"/>
        <pt x="841" y="800" on="1"/>
        <pt x="758" y="860" on="0"/>
        <pt x="618" y="860" on="0"/>
        <pt x="566" y="780" on="1"/>
        <pt x="561" y="737" on="0"/>
        <pt x="556" y="484" on="1"/>
        <pt x="885" y="331" on="1"/>
        <pt x="888" y="331" on="0"/>
      </contour>
    </TTGlyph>
    <TTGlyph name="U" xMin="77" yMin="31" xMax="1366" yMax="1626">
      <contour>
        <pt x="1152" y="31" on="1"/>
        <pt x="1012" y="119" on="0"/>
        <pt x="872" y="209" on="1"/>
        <pt x="900" y="304" on="0"/>
        <pt x="917" y="407" on="1"/>
        <pt x="577" y="31" on="1"/>
        <pt x="491" y="107" on="0"/>
        <pt x="227" y="225" on="0"/>
        <pt x="77" y="277" on="1"/>
        <pt x="276" y="410" on="0"/>
        <pt x="326" y="582" on="1"/>
        <pt x="340" y="629" on="0"/>
        <pt x="340" y="678" on="1"/>
        <pt x="340" y="809" on="0"/>
        <pt x="131" y="1119" on="0"/>
        <pt x="131" y="1256" on="1"/>
        <pt x="131" y="1472" on="0"/>
        <pt x="401" y="1626" on="1"/>
        <pt x="453" y="1596" on="0"/>
        <pt x="509" y="1566" on="1"/>
        <pt x="351" y="1458" on="0"/>
        <pt x="351" y="1369" on="1"/>
        <pt x="351" y="1347" on="0"/>
        <pt x="362" y="1326" on="1"/>
        <pt x="412" y="1221" on="0"/>
        <pt x="656" y="1142" on="1"/>
        <pt x="656" y="1132" on="0"/>
        <pt x="656" y="1122" on="1"/>
        <pt x="656" y="809" on="0"/>
        <pt x="470" y="495" on="1"/>
        <pt x="630" y="393" on="0"/>
        <pt x="706" y="393" on="1"/>
        <pt x="778" y="393" on="0"/>
        <pt x="937" y="586" on="1"/>
        <pt x="943" y="676" on="0"/>
        <pt x="943" y="942" on="0"/>
        <pt x="926" y="1137" on="1"/>
        <pt x="927" y="1146" on="0"/>
        <pt x="927" y="1154" on="1"/>
        <pt x="927" y="1199" on="0"/>
        <pt x="845" y="1256" on="0"/>
        <pt x="801" y="1290" on="1"/>
        <pt x="1040" y="1554" on="1"/>
        <pt x="1146" y="1487" on="0"/>
        <pt x="1329" y="1379" on="1"/>
        <pt x="1264" y="1292" on="0"/>
        <pt x="1247" y="1124" on="0"/>
        <pt x="1247" y="1035" on="1"/>
        <pt x="1241" y="645" on="1"/>
        <pt x="1241" y="627" on="0"/>
        <pt x="1241" y="611" on="1"/>
        <pt x="1241" y="488" on="0"/>
        <pt x="1296" y="354" on="0"/>
        <pt x="1366" y="327" on="1"/>
      </contour>
    </TTGlyph>
    <TTGlyph name="Uacute" xMin="77" yMin="31" xMax="1366" yMax="1833">
      <component glyphName="U" x="0" y="0" flags="0x1204"/>
      <component glyphName="acute" x="-456" y="94" flags="0x1004"/>
    </TTGlyph>
    <TTGlyph name="Ucircumflex" xMin="77" yMin="31" xMax="1366" yMax="1871">
      <component glyphName="U" x="0" y="0" flags="0x1204"/>
      <component glyphName="circumflex" x="439" y="344" flags="0x1004"/>
    </TTGlyph>
    <TTGlyph name="Udieresis" xMin="36" yMin="31" xMax="1325" yMax="1629">
      <contour>
        <pt x="1111" y="31" on="1"/>
        <pt x="971" y="119" on="0"/>
        <pt x="831" y="209" on="1"/>
        <pt x="859" y="304" on="0"/>
        <pt x="876" y="407" on="1"/>
        <pt x="536" y="31" on="1"/>
        <pt x="450" y="107" on="0"/>
        <pt x="186" y="225" on="0"/>
        <pt x="36" y="277" on="1"/>
        <pt x="235" y="410" on="0"/>
        <pt x="286" y="582" on="1"/>
        <pt x="299" y="629" on="0"/>
        <pt x="299" y="678" on="1"/>
        <pt x="299" y="809" on="0"/>
        <pt x="199" y="957" on="1"/>
        <pt x="69" y="1147" on="0"/>
        <pt x="69" y="1301" on="1"/>
        <pt x="69" y="1486" on="0"/>
        <pt x="316" y="1626" on="1"/>
        <pt x="366" y="1597" on="0"/>
        <pt x="430" y="1562" on="1"/>
        <pt x="283" y="1461" on="0"/>
        <pt x="283" y="1379" on="1"/>
        <pt x="283" y="1350" on="0"/>
        <pt x="302" y="1324" on="1"/>
        <pt x="371" y="1221" on="0"/>
        <pt x="615" y="1142" on="1"/>
        <pt x="615" y="1135" on="0"/>
        <pt x="615" y="1128" on="1"/>
        <pt x="615" y="809" on="0"/>
        <pt x="429" y="495" on="1"/>
        <pt x="589" y="393" on="0"/>
        <pt x="665" y="393" on="1"/>
        <pt x="737" y="393" on="0"/>
        <pt x="896" y="586" on="1"/>
        <pt x="902" y="675" on="0"/>
        <pt x="902" y="940" on="0"/>
        <pt x="885" y="1137" on="1"/>
        <pt x="887" y="1151" on="0"/>
        <pt x="887" y="1198" on="0"/>
        <pt x="847" y="1230" on="0"/>
        <pt x="804" y="1264" on="1"/>
        <pt x="887" y="1354" on="0"/>
        <pt x="1042" y="1527" on="1"/>
        <pt x="1102" y="1489" on="0"/>
        <pt x="1287" y="1379" on="1"/>
        <pt x="1222" y="1292" on="0"/>
        <pt x="1206" y="1124" on="0"/>
        <pt x="1206" y="1035" on="1"/>
        <pt x="1200" y="645" on="1"/>
        <pt x="1200" y="627" on="0"/>
        <pt x="1200" y="611" on="1"/>
        <pt x="1200" y="488" on="0"/>
        <pt x="1255" y="354" on="0"/>
        <pt x="1325" y="327" on="1"/>
      </contour>
      <contour>
        <pt x="745" y="1562" on="1"/>
        <pt x="909" y="1435" on="1"/>
        <pt x="771" y="1286" on="0"/>
        <pt x="546" y="1277" on="1"/>
      </contour>
      <contour>
        <pt x="485" y="1629" on="1"/>
        <pt x="681" y="1562" on="1"/>
        <pt x="597" y="1399" on="0"/>
        <pt x="394" y="1294" on="1"/>
      </contour>
    </TTGlyph>
    <TTGlyph name="Ugrave" xMin="77" yMin="31" xMax="1366" yMax="1823">
      <component glyphName="U" x="0" y="0" flags="0x1204"/>
      <component glyphName="grave" x="309" y="143" flags="0x1004"/>
    </TTGlyph>
    <TTGlyph name="V" xMin="46" yMin="54" xMax="1180" yMax="1596">
      <contour>
        <pt x="361" y="1584" on="1"/>
        <pt x="328" y="1539" on="0"/>
        <pt x="328" y="1451" on="0"/>
        <pt x="371" y="1411" on="1"/>
        <pt x="475" y="1315" on="0"/>
        <pt x="514" y="1205" on="1"/>
        <pt x="830" y="1562" on="1"/>
        <pt x="992" y="1387" on="0"/>
        <pt x="1180" y="1047" on="0"/>
        <pt x="1180" y="875" on="1"/>
        <pt x="1180" y="829" on="0"/>
        <pt x="1174" y="782" on="1"/>
        <pt x="1152" y="624" on="0"/>
        <pt x="886" y="285" on="0"/>
        <pt x="732" y="54" on="1"/>
        <pt x="582" y="141" on="0"/>
        <pt x="87" y="216" on="1"/>
        <pt x="136" y="281" on="0"/>
        <pt x="222" y="447" on="0"/>
        <pt x="226" y="551" on="1"/>
        <pt x="237" y="890" on="1"/>
        <pt x="237" y="896" on="0"/>
        <pt x="237" y="902" on="1"/>
        <pt x="237" y="1033" on="0"/>
        <pt x="135" y="1112" on="1"/>
        <pt x="46" y="1183" on="0"/>
        <pt x="46" y="1275" on="1"/>
        <pt x="46" y="1336" on="0"/>
        <pt x="96" y="1409" on="1"/>
        <pt x="184" y="1536" on="1"/>
        <pt x="224" y="1596" on="0"/>
        <pt x="288" y="1596" on="1"/>
        <pt x="325" y="1596" on="0"/>
      </contour>
      <contour>
        <pt x="721" y="1146" on="1"/>
        <pt x="701" y="1184" on="0"/>
        <pt x="626" y="1184" on="0"/>
        <pt x="537" y="1092" on="1"/>
        <pt x="540" y="1058" on="0"/>
        <pt x="540" y="1018" on="0"/>
        <pt x="540" y="1010" on="1"/>
        <pt x="519" y="459" on="1"/>
        <pt x="820" y="361" on="1"/>
        <pt x="907" y="451" on="0"/>
        <pt x="907" y="584" on="1"/>
        <pt x="907" y="637" on="0"/>
        <pt x="894" y="696" on="1"/>
        <pt x="845" y="906" on="0"/>
      </contour>
    </TTGlyph>
    <TTGlyph name="W" xMin="46" yMin="31" xMax="1716" yMax="1605">
      <contour>
        <pt x="1222" y="31" on="1"/>
        <pt x="1031" y="118" on="0"/>
        <pt x="766" y="217" on="1"/>
        <pt x="622" y="31" on="1"/>
        <pt x="257" y="122" on="0"/>
        <pt x="64" y="174" on="1"/>
        <pt x="206" y="319" on="0"/>
        <pt x="315" y="464" on="0"/>
        <pt x="315" y="568" on="0"/>
        <pt x="292" y="617" on="1"/>
        <pt x="76" y="1140" on="1"/>
        <pt x="46" y="1213" on="0"/>
        <pt x="46" y="1258" on="0"/>
        <pt x="48" y="1264" on="1"/>
        <pt x="54" y="1302" on="0"/>
        <pt x="111" y="1357" on="1"/>
        <pt x="377" y="1605" on="1"/>
        <pt x="415" y="1594" on="0"/>
        <pt x="492" y="1574" on="0"/>
        <pt x="531" y="1562" on="1"/>
        <pt x="397" y="1409" on="0"/>
        <pt x="397" y="1325" on="1"/>
        <pt x="397" y="1262" on="0"/>
        <pt x="439" y="1177" on="1"/>
        <pt x="606" y="1307" on="0"/>
        <pt x="797" y="1562" on="1"/>
        <pt x="1081" y="1274" on="1"/>
        <pt x="1211" y="1349" on="0"/>
        <pt x="1431" y="1562" on="1"/>
        <pt x="1615" y="1250" on="0"/>
        <pt x="1688" y="987" on="1"/>
        <pt x="1716" y="889" on="0"/>
        <pt x="1716" y="803" on="1"/>
        <pt x="1716" y="661" on="0"/>
        <pt x="1541" y="419" on="0"/>
        <pt x="1326" y="161" on="0"/>
      </contour>
      <contour>
        <pt x="1114" y="1121" on="1"/>
        <pt x="1090" y="412" on="1"/>
        <pt x="1172" y="374" on="0"/>
        <pt x="1307" y="322" on="1"/>
        <pt x="1430" y="442" on="0"/>
        <pt x="1430" y="605" on="1"/>
        <pt x="1430" y="651" on="0"/>
        <pt x="1420" y="701" on="1"/>
        <pt x="1375" y="926" on="0"/>
        <pt x="1214" y="1195" on="1"/>
      </contour>
      <contour>
        <pt x="514" y="1035" on="1"/>
        <pt x="615" y="844" on="0"/>
        <pt x="615" y="661" on="0"/>
        <pt x="414" y="395" on="1"/>
        <pt x="574" y="321" on="0"/>
        <pt x="652" y="321" on="1"/>
        <pt x="732" y="321" on="0"/>
        <pt x="785" y="394" on="1"/>
        <pt x="810" y="656" on="0"/>
        <pt x="810" y="962" on="0"/>
        <pt x="800" y="1080" on="1"/>
        <pt x="719" y="1175" on="0"/>
        <pt x="670" y="1237" on="1"/>
        <pt x="511" y="1040" on="1"/>
      </contour>
    </TTGlyph>
    <TTGlyph name="X" xMin="39" yMin="1" xMax="1351" yMax="1594">
      <contour>
        <pt x="420" y="460" on="1"/>
        <pt x="418" y="417" on="0"/>
        <pt x="418" y="308" on="0"/>
        <pt x="434" y="160" on="1"/>
        <pt x="264" y="119" on="0"/>
        <pt x="39" y="7" on="1"/>
        <pt x="126" y="372" on="0"/>
        <pt x="482" y="899" on="1"/>
        <pt x="489" y="910" on="1"/>
        <pt x="381" y="1080" on="1"/>
        <pt x="324" y="1165" on="0"/>
        <pt x="272" y="1236" on="1"/>
        <pt x="241" y="1277" on="0"/>
        <pt x="137" y="1295" on="0"/>
        <pt x="85" y="1295" on="1"/>
        <pt x="149" y="1372" on="0"/>
        <pt x="315" y="1517" on="0"/>
        <pt x="455" y="1591" on="1"/>
        <pt x="528" y="1457" on="0"/>
        <pt x="554" y="1410" on="1"/>
        <pt x="616" y="1300" on="0"/>
        <pt x="666" y="1215" on="1"/>
        <pt x="685" y="1184" on="1"/>
        <pt x="706" y="1214" on="1"/>
        <pt x="742" y="1261" on="0"/>
        <pt x="817" y="1359" on="0"/>
        <pt x="892" y="1452" on="0"/>
        <pt x="967" y="1546" on="0"/>
        <pt x="1007" y="1594" on="1"/>
        <pt x="1054" y="1575" on="0"/>
        <pt x="1144" y="1537" on="0"/>
        <pt x="1187" y="1519" on="1"/>
        <pt x="1285" y="1478" on="0"/>
        <pt x="1351" y="1449" on="1"/>
        <pt x="1161" y="1134" on="1"/>
        <pt x="1035" y="1250" on="0"/>
        <pt x="911" y="1291" on="1"/>
        <pt x="869" y="1245" on="0"/>
        <pt x="802" y="1162" on="0"/>
        <pt x="766" y="1119" on="0"/>
        <pt x="742" y="1087" on="1"/>
        <pt x="750" y="1075" on="1"/>
        <pt x="919" y="787" on="0"/>
        <pt x="1136" y="487" on="1"/>
        <pt x="1190" y="412" on="0"/>
        <pt x="1260" y="380" on="1"/>
        <pt x="1296" y="359" on="0"/>
        <pt x="1344" y="351" on="1"/>
        <pt x="1155" y="151" on="0"/>
        <pt x="965" y="1" on="1"/>
        <pt x="941" y="49" on="0"/>
        <pt x="892" y="146" on="0"/>
        <pt x="844" y="242" on="1"/>
        <pt x="673" y="587" on="0"/>
        <pt x="571" y="770" on="1"/>
        <pt x="550" y="807" on="1"/>
        <pt x="529" y="770" on="1"/>
        <pt x="427" y="581" on="0"/>
      </contour>
    </TTGlyph>
    <TTGlyph name="Y" xMin="-59" yMin="-566" xMax="1310" yMax="1626">
      <contour>
        <pt x="689" y="-565" on="1"/>
        <pt x="526" y="-565" on="0"/>
        <pt x="343" y="-468" on="1"/>
        <pt x="271" y="-429" on="0"/>
        <pt x="96" y="-429" on="0"/>
        <pt x="-24" y="-503" on="1"/>
        <pt x="-59" y="-456" on="1"/>
        <pt x="9" y="-286" on="0"/>
        <pt x="170" y="-135" on="0"/>
        <pt x="263" y="-135" on="1"/>
        <pt x="316" y="-135" on="0"/>
        <pt x="404" y="-169" on="1"/>
        <pt x="644" y="-262" on="0"/>
        <pt x="753" y="-262" on="1"/>
        <pt x="957" y="-262" on="0"/>
        <pt x="989" y="-132" on="1"/>
        <pt x="998" y="-97" on="0"/>
        <pt x="998" y="-11" on="0"/>
        <pt x="957" y="62" on="0"/>
        <pt x="860" y="334" on="0"/>
        <pt x="860" y="390" on="1"/>
        <pt x="860" y="399" on="0"/>
        <pt x="861" y="407" on="1"/>
        <pt x="521" y="31" on="1"/>
        <pt x="435" y="107" on="0"/>
        <pt x="170" y="225" on="0"/>
        <pt x="21" y="277" on="1"/>
        <pt x="220" y="410" on="0"/>
        <pt x="270" y="582" on="1"/>
        <pt x="284" y="629" on="0"/>
        <pt x="284" y="678" on="1"/>
        <pt x="284" y="809" on="0"/>
        <pt x="74" y="1119" on="0"/>
        <pt x="74" y="1256" on="1"/>
        <pt x="74" y="1471" on="0"/>
        <pt x="345" y="1626" on="1"/>
        <pt x="371" y="1611" on="0"/>
        <pt x="425" y="1581" on="0"/>
        <pt x="451" y="1566" on="1"/>
        <pt x="295" y="1458" on="0"/>
        <pt x="295" y="1370" on="1"/>
        <pt x="295" y="1347" on="0"/>
        <pt x="305" y="1326" on="1"/>
        <pt x="356" y="1221" on="0"/>
        <pt x="600" y="1142" on="1"/>
        <pt x="600" y="1138" on="0"/>
        <pt x="600" y="1135" on="1"/>
        <pt x="600" y="809" on="0"/>
        <pt x="414" y="495" on="1"/>
        <pt x="574" y="393" on="0"/>
        <pt x="650" y="393" on="1"/>
        <pt x="722" y="393" on="0"/>
        <pt x="881" y="586" on="1"/>
        <pt x="887" y="678" on="0"/>
        <pt x="887" y="948" on="0"/>
        <pt x="869" y="1137" on="1"/>
        <pt x="870" y="1146" on="0"/>
        <pt x="870" y="1154" on="1"/>
        <pt x="870" y="1199" on="0"/>
        <pt x="789" y="1256" on="0"/>
        <pt x="744" y="1290" on="1"/>
        <pt x="984" y="1554" on="1"/>
        <pt x="1066" y="1502" on="0"/>
        <pt x="1272" y="1379" on="1"/>
        <pt x="1207" y="1292" on="0"/>
        <pt x="1191" y="1124" on="0"/>
        <pt x="1190" y="1035" on="1"/>
        <pt x="1185" y="645" on="1"/>
        <pt x="1185" y="627" on="0"/>
        <pt x="1185" y="611" on="1"/>
        <pt x="1185" y="488" on="0"/>
        <pt x="1240" y="354" on="0"/>
        <pt x="1310" y="327" on="1"/>
        <pt x="1225" y="211" on="0"/>
        <pt x="1040" y="-391" on="0"/>
        <pt x="867" y="-509" on="1"/>
        <pt x="782" y="-565" on="0"/>
      </contour>
    </TTGlyph>
    <TTGlyph name="Yacute" xMin="-59" yMin="-566" xMax="1310" yMax="1717">
      <component glyphName="Y" x="0" y="0" flags="0x1204"/>
      <component glyphName="acute" x="-540" y="-22" flags="0x1004"/>
    </TTGlyph>
    <TTGlyph name="Ydieresis" xMin="-59" yMin="-566" xMax="1310" yMax="1795">
      <component glyphName="Y" x="0" y="0" flags="0x1204"/>
      <component glyphName="dieresis" x="223" y="350" flags="0x1004"/>
    </TTGlyph>
    <TTGlyph name="Z" xMin="50" yMin="-457" xMax="1183" yMax="1562">
      <contour>
        <pt x="618" y="1517" on="1"/>
        <pt x="867" y="1520" on="1"/>
        <pt x="1014" y="1520" on="0"/>
        <pt x="1160" y="1515" on="1"/>
        <pt x="760" y="1087" on="1"/>
        <pt x="1011" y="912" on="0"/>
        <pt x="1185" y="584" on="0"/>
        <pt x="1181" y="250" on="0"/>
        <pt x="1000" y="-101" on="0"/>
        <pt x="714" y="-364" on="0"/>
        <pt x="534" y="-425" on="1"/>
        <pt x="440" y="-457" on="0"/>
        <pt x="259" y="-457" on="0"/>
        <pt x="172" y="-430" on="1"/>
        <pt x="54" y="-392" on="0"/>
        <pt x="54" y="-202" on="1"/>
        <pt x="54" y="-186" on="0"/>
        <pt x="55" y="-168" on="1"/>
        <pt x="66" y="52" on="0"/>
        <pt x="130" y="194" on="1"/>
        <pt x="246" y="451" on="0"/>
        <pt x="612" y="656" on="1"/>
        <pt x="517" y="729" on="0"/>
        <pt x="324" y="806" on="1"/>
        <pt x="716" y="1175" on="1"/>
        <pt x="597" y="1215" on="0"/>
        <pt x="444" y="1215" on="1"/>
        <pt x="222" y="1215" on="0"/>
        <pt x="50" y="1116" on="1"/>
        <pt x="204" y="1562" on="1"/>
        <pt x="401" y="1517" on="0"/>
      </contour>
      <contour>
        <pt x="379" y="-193" on="1"/>
        <pt x="450" y="-233" on="0"/>
        <pt x="597" y="-233" on="0"/>
        <pt x="672" y="-194" on="1"/>
        <pt x="824" y="-115" on="0"/>
        <pt x="854" y="-46" on="1"/>
        <pt x="897" y="29" on="0"/>
        <pt x="897" y="145" on="1"/>
        <pt x="897" y="317" on="0"/>
        <pt x="799" y="447" on="1"/>
        <pt x="753" y="457" on="0"/>
        <pt x="619" y="457" on="0"/>
        <pt x="399" y="366" on="0"/>
        <pt x="274" y="219" on="0"/>
        <pt x="240" y="62" on="1"/>
        <pt x="234" y="36" on="0"/>
        <pt x="234" y="12" on="1"/>
        <pt x="234" y="-111" on="0"/>
      </contour>
    </TTGlyph>
    <TTGlyph name="Zcaron" xMin="50" yMin="-462" xMax="1172" yMax="1557">
      <contour>
        <pt x="683" y="1325" on="1"/>
        <pt x="678" y="1320" on="0"/>
        <pt x="664" y="1320" on="1"/>
        <pt x="546" y="1320" on="1"/>
        <pt x="531" y="1320" on="0"/>
        <pt x="524" y="1325" on="1"/>
        <pt x="313" y="1539" on="1"/>
        <pt x="306" y="1546" on="0"/>
        <pt x="318" y="1557" on="0"/>
        <pt x="332" y="1557" on="1"/>
        <pt x="385" y="1557" on="1"/>
        <pt x="398" y="1557" on="0"/>
        <pt x="401" y="1554" on="1"/>
        <pt x="607" y="1438" on="1"/>
        <pt x="803" y="1555" on="0"/>
        <pt x="824" y="1557" on="0"/>
        <pt x="827" y="1557" on="1"/>
        <pt x="878" y="1557" on="1"/>
        <pt x="892" y="1557" on="0"/>
        <pt x="907" y="1546" on="0"/>
        <pt x="899" y="1539" on="1"/>
      </contour>
      <contour>
        <pt x="613" y="1206" on="1"/>
        <pt x="866" y="1209" on="1"/>
        <pt x="1008" y="1209" on="0"/>
        <pt x="1149" y="1205" on="1"/>
        <pt x="753" y="843" on="1"/>
        <pt x="1001" y="695" on="0"/>
        <pt x="1174" y="418" on="0"/>
        <pt x="1170" y="136" on="0"/>
        <pt x="990" y="-160" on="0"/>
        <pt x="707" y="-382" on="0"/>
        <pt x="529" y="-434" on="1"/>
        <pt x="436" y="-461" on="0"/>
        <pt x="257" y="-461" on="0"/>
        <pt x="170" y="-438" on="1"/>
        <pt x="54" y="-407" on="0"/>
        <pt x="54" y="-245" on="1"/>
        <pt x="54" y="-52" on="0"/>
        <pt x="129" y="89" on="1"/>
        <pt x="244" y="306" on="0"/>
        <pt x="606" y="479" on="1"/>
        <pt x="511" y="542" on="0"/>
        <pt x="321" y="606" on="1"/>
        <pt x="709" y="918" on="1"/>
        <pt x="591" y="951" on="0"/>
        <pt x="439" y="951" on="1"/>
        <pt x="219" y="951" on="0"/>
        <pt x="50" y="868" on="1"/>
        <pt x="202" y="1244" on="1"/>
        <pt x="398" y="1206" on="0"/>
      </contour>
      <contour>
        <pt x="375" y="-238" on="1"/>
        <pt x="446" y="-272" on="0"/>
        <pt x="592" y="-272" on="0"/>
        <pt x="666" y="-239" on="1"/>
        <pt x="816" y="-172" on="0"/>
        <pt x="846" y="-114" on="1"/>
        <pt x="888" y="-51" on="0"/>
        <pt x="888" y="47" on="1"/>
        <pt x="888" y="193" on="0"/>
        <pt x="791" y="303" on="1"/>
        <pt x="747" y="311" on="0"/>
        <pt x="614" y="311" on="0"/>
        <pt x="395" y="234" on="0"/>
        <pt x="271" y="110" on="0"/>
        <pt x="238" y="-22" on="1"/>
        <pt x="232" y="-44" on="0"/>
        <pt x="232" y="-65" on="1"/>
        <pt x="232" y="-169" on="0"/>
      </contour>
    </TTGlyph>
    <TTGlyph name="a" xMin="37" yMin="29" xMax="889" yMax="1076">
      <contour>
        <pt x="37" y="759" on="1"/>
        <pt x="427" y="1076" on="1"/>
        <pt x="869" y="869" on="1"/>
        <pt x="791" y="801" on="0"/>
        <pt x="790" y="716" on="1"/>
        <pt x="786" y="385" on="1"/>
        <pt x="786" y="351" on="0"/>
        <pt x="857" y="265" on="0"/>
        <pt x="889" y="239" on="1"/>
        <pt x="687" y="31" on="1"/>
        <pt x="532" y="190" on="1"/>
        <pt x="476" y="145" on="0"/>
        <pt x="362" y="70" on="0"/>
        <pt x="317" y="29" on="1"/>
        <pt x="167" y="85" on="0"/>
        <pt x="37" y="202" on="1"/>
        <pt x="74" y="249" on="0"/>
        <pt x="80" y="339" on="1"/>
        <pt x="77" y="641" on="1"/>
        <pt x="77" y="645" on="0"/>
        <pt x="77" y="649" on="1"/>
        <pt x="77" y="708" on="0"/>
      </contour>
      <contour>
        <pt x="380" y="836" on="1"/>
        <pt x="322" y="749" on="0"/>
        <pt x="322" y="681" on="1"/>
        <pt x="322" y="436" on="1"/>
        <pt x="322" y="361" on="0"/>
        <pt x="349" y="329" on="1"/>
        <pt x="372" y="296" on="0"/>
        <pt x="411" y="244" on="0"/>
        <pt x="454" y="232" on="1"/>
        <pt x="536" y="291" on="1"/>
        <pt x="536" y="751" on="1"/>
      </contour>
    </TTGlyph>
    <TTGlyph name="aacute" xMin="37" yMin="29" xMax="889" yMax="1437">
      <component glyphName="a" x="0" y="0" flags="0x1204"/>
      <component glyphName="acute" x="-896" y="-302" flags="0x1004"/>
    </TTGlyph>
    <TTGlyph name="acircumflex" xMin="37" yMin="29" xMax="889" yMax="1341">
      <component glyphName="a" x="0" y="0" flags="0x1204"/>
      <component glyphName="circumflex" x="116" y="-186" flags="0x1004"/>
    </TTGlyph>
    <TTGlyph name="acute" xMin="1148" yMin="1351" xMax="1429" yMax="1739">
      <contour>
        <pt x="1149" y="1351" on="1"/>
        <pt x="1149" y="1367" on="0"/>
        <pt x="1149" y="1416" on="1"/>
        <pt x="1149" y="1575" on="0"/>
        <pt x="1199" y="1739" on="1"/>
        <pt x="1429" y="1702" on="1"/>
      </contour>
    </TTGlyph>
    <TTGlyph name="acutecomb" xMin="-268" yMin="1351" xMax="13" yMax="1739">
      <component glyphName="acute" x="-1416" y="0" flags="0x1004"/>
    </TTGlyph>
    <TTGlyph name="adieresis" xMin="56" yMin="29" xMax="869" yMax="1474">
      <contour>
        <pt x="287" y="29" on="1"/>
        <pt x="56" y="253" on="0"/>
        <pt x="56" y="560" on="1"/>
        <pt x="56" y="677" on="0"/>
        <pt x="90" y="811" on="1"/>
        <pt x="465" y="1076" on="1"/>
        <pt x="621" y="976" on="0"/>
        <pt x="810" y="925" on="1"/>
        <pt x="781" y="514" on="1"/>
        <pt x="780" y="500" on="0"/>
        <pt x="780" y="487" on="1"/>
        <pt x="780" y="354" on="0"/>
        <pt x="869" y="257" on="1"/>
        <pt x="690" y="29" on="1"/>
        <pt x="515" y="226" on="1"/>
      </contour>
      <contour>
        <pt x="324" y="846" on="1"/>
        <pt x="294" y="697" on="0"/>
        <pt x="294" y="585" on="1"/>
        <pt x="294" y="376" on="0"/>
        <pt x="399" y="296" on="1"/>
        <pt x="417" y="281" on="0"/>
        <pt x="461" y="281" on="0"/>
        <pt x="488" y="300" on="1"/>
        <pt x="539" y="335" on="0"/>
        <pt x="542" y="424" on="1"/>
        <pt x="552" y="759" on="1"/>
        <pt x="426" y="784" on="0"/>
      </contour>
      <contour>
        <pt x="249" y="1076" on="1"/>
        <pt x="269" y="1471" on="1"/>
        <pt x="407" y="1445" on="0"/>
        <pt x="504" y="1380" on="1"/>
      </contour>
      <contour>
        <pt x="530" y="1110" on="1"/>
        <pt x="629" y="1474" on="1"/>
        <pt x="760" y="1440" on="0"/>
        <pt x="861" y="1376" on="1"/>
      </contour>
    </TTGlyph>
    <TTGlyph name="ae" xMin="74" yMin="30" xMax="1261" yMax="1080">
      <contour>
        <pt x="328" y="1079" on="1"/>
        <pt x="568" y="983" on="0"/>
        <pt x="652" y="949" on="1"/>
        <pt x="869" y="1077" on="1"/>
        <pt x="869" y="1080" on="1"/>
        <pt x="871" y="1079" on="1"/>
        <pt x="872" y="1079" on="1"/>
        <pt x="1261" y="800" on="1"/>
        <pt x="856" y="374" on="1"/>
        <pt x="897" y="325" on="0"/>
        <pt x="997" y="315" on="0"/>
        <pt x="1062" y="315" on="0"/>
        <pt x="1151" y="322" on="0"/>
        <pt x="1216" y="324" on="1"/>
        <pt x="1163" y="250" on="0"/>
        <pt x="1111" y="177" on="1"/>
        <pt x="1007" y="31" on="1"/>
        <pt x="897" y="75" on="0"/>
        <pt x="682" y="160" on="1"/>
        <pt x="466" y="33" on="1"/>
        <pt x="466" y="30" on="1"/>
        <pt x="464" y="31" on="1"/>
        <pt x="463" y="31" on="1"/>
        <pt x="74" y="310" on="1"/>
        <pt x="479" y="736" on="1"/>
        <pt x="438" y="785" on="0"/>
        <pt x="338" y="795" on="0"/>
        <pt x="273" y="795" on="0"/>
        <pt x="184" y="788" on="0"/>
        <pt x="119" y="786" on="1"/>
        <pt x="172" y="860" on="0"/>
        <pt x="224" y="933" on="1"/>
      </contour>
      <contour>
        <pt x="841" y="810" on="1"/>
        <pt x="783" y="810" on="0"/>
        <pt x="783" y="652" on="1"/>
        <pt x="783" y="562" on="0"/>
        <pt x="813" y="472" on="1"/>
        <pt x="813" y="463" on="0"/>
        <pt x="816" y="457" on="1"/>
        <pt x="977" y="627" on="1"/>
        <pt x="994" y="645" on="0"/>
        <pt x="994" y="681" on="0"/>
        <pt x="959" y="737" on="0"/>
        <pt x="941" y="755" on="1"/>
        <pt x="878" y="810" on="0"/>
      </contour>
      <contour>
        <pt x="494" y="300" on="1"/>
        <pt x="552" y="300" on="0"/>
        <pt x="552" y="458" on="1"/>
        <pt x="552" y="548" on="0"/>
        <pt x="522" y="638" on="1"/>
        <pt x="522" y="647" on="0"/>
        <pt x="519" y="653" on="1"/>
        <pt x="358" y="483" on="1"/>
        <pt x="341" y="465" on="0"/>
        <pt x="341" y="429" on="0"/>
        <pt x="376" y="373" on="0"/>
        <pt x="394" y="355" on="1"/>
        <pt x="457" y="300" on="0"/>
      </contour>
    </TTGlyph>
    <TTGlyph name="afii301" xMin="0" yMin="0" xMax="0" yMax="0">
      <component glyphName="afii61664" x="0" y="0" flags="0x1004"/>
    </TTGlyph>
    <TTGlyph name="afii61352" xMin="46" yMin="7" xMax="1605" yMax="1477">
      <contour>
        <pt x="962" y="880" on="0"/>
        <pt x="1150" y="1133" on="0"/>
        <pt x="1416" y="1133" on="0"/>
        <pt x="1605" y="880" on="0"/>
        <pt x="1605" y="521" on="0"/>
        <pt x="1416" y="268" on="0"/>
        <pt x="1150" y="268" on="0"/>
        <pt x="962" y="521" on="0"/>
      </contour>
      <contour>
        <pt x="880" y="7" on="1"/>
        <pt x="833" y="7" on="1"/>
        <pt x="427" y="1087" on="1"/>
        <pt x="427" y="218" on="1"/>
        <pt x="427" y="130" on="0"/>
        <pt x="314" y="7" on="0"/>
        <pt x="144" y="7" on="0"/>
        <pt x="46" y="148" on="0"/>
        <pt x="46" y="341" on="0"/>
        <pt x="235" y="341" on="0"/>
        <pt x="235" y="238" on="1"/>
        <pt x="235" y="199" on="0"/>
        <pt x="210" y="168" on="1"/>
        <pt x="169" y="116" on="0"/>
        <pt x="169" y="59" on="0"/>
        <pt x="295" y="59" on="0"/>
        <pt x="379" y="152" on="0"/>
        <pt x="379" y="218" on="1"/>
        <pt x="379" y="1212" on="1"/>
        <pt x="319" y="1372" on="0"/>
        <pt x="269" y="1425" on="0"/>
        <pt x="113" y="1425" on="1"/>
        <pt x="113" y="1477" on="1"/>
        <pt x="492" y="1477" on="1"/>
        <pt x="570" y="1477" on="0"/>
        <pt x="593" y="1412" on="1"/>
        <pt x="833" y="718" on="1"/>
        <pt x="833" y="1266" on="1"/>
        <pt x="833" y="1353" on="0"/>
        <pt x="944" y="1477" on="0"/>
        <pt x="1115" y="1477" on="0"/>
        <pt x="1214" y="1335" on="0"/>
        <pt x="1214" y="1143" on="0"/>
        <pt x="1025" y="1143" on="0"/>
        <pt x="1025" y="1247" on="1"/>
        <pt x="1025" y="1284" on="0"/>
        <pt x="1048" y="1315" on="1"/>
        <pt x="1089" y="1369" on="0"/>
        <pt x="1089" y="1425" on="0"/>
        <pt x="964" y="1425" on="0"/>
        <pt x="880" y="1332" on="0"/>
        <pt x="880" y="1266" on="1"/>
      </contour>
      <contour>
        <pt x="962" y="147" on="1"/>
        <pt x="962" y="215" on="1"/>
        <pt x="1605" y="215" on="1"/>
        <pt x="1605" y="147" on="1"/>
      </contour>
      <contour>
        <pt x="962" y="7" on="1"/>
        <pt x="962" y="75" on="1"/>
        <pt x="1605" y="75" on="1"/>
        <pt x="1605" y="7" on="1"/>
      </contour>
      <contour>
        <pt x="1372" y="861" on="0"/>
        <pt x="1338" y="1089" on="0"/>
        <pt x="1237" y="1089" on="0"/>
        <pt x="1210" y="861" on="0"/>
        <pt x="1210" y="539" on="0"/>
        <pt x="1237" y="312" on="0"/>
        <pt x="1338" y="312" on="0"/>
        <pt x="1372" y="539" on="0"/>
      </contour>
    </TTGlyph>
    <TTGlyph name="agrave" xMin="37" yMin="29" xMax="889" yMax="1470">
      <component glyphName="a" x="0" y="0" flags="0x1204"/>
      <component glyphName="grave" x="123" y="-210" flags="0x1004"/>
    </TTGlyph>
    <TTGlyph name="ampersand" xMin="57" yMin="-19" xMax="1053" yMax="1372">
      <contour>
        <pt x="725" y="434" on="1"/>
        <pt x="773" y="530" on="0"/>
        <pt x="801" y="653" on="1"/>
        <pt x="987" y="604" on="1"/>
        <pt x="957" y="448" on="0"/>
        <pt x="881" y="295" on="1"/>
        <pt x="963" y="244" on="0"/>
        <pt x="1053" y="236" on="1"/>
        <pt x="1040" y="-6" on="1"/>
        <pt x="913" y="2" on="0"/>
        <pt x="819" y="53" on="1"/>
        <pt x="784" y="72" on="0"/>
        <pt x="739" y="100" on="1"/>
        <pt x="603" y="-18" on="0"/>
        <pt x="293" y="-18" on="0"/>
        <pt x="175" y="82" on="1"/>
        <pt x="57" y="182" on="0"/>
        <pt x="57" y="367" on="1"/>
        <pt x="57" y="524" on="0"/>
        <pt x="188" y="658" on="1"/>
        <pt x="224" y="696" on="0"/>
        <pt x="262" y="729" on="1"/>
        <pt x="190" y="888" on="0"/>
        <pt x="184" y="997" on="1"/>
        <pt x="184" y="1004" on="1"/>
        <pt x="186" y="1145" on="0"/>
        <pt x="262" y="1254" on="1"/>
        <pt x="344" y="1372" on="0"/>
        <pt x="586" y="1372" on="0"/>
        <pt x="670" y="1284" on="1"/>
        <pt x="756" y="1194" on="0"/>
        <pt x="756" y="1055" on="1"/>
        <pt x="756" y="842" on="0"/>
        <pt x="545" y="666" on="1"/>
        <pt x="644" y="515" on="0"/>
      </contour>
      <contour>
        <pt x="584" y="242" on="1"/>
        <pt x="476" y="366" on="0"/>
        <pt x="354" y="537" on="1"/>
        <pt x="285" y="475" on="0"/>
        <pt x="285" y="391" on="1"/>
        <pt x="285" y="311" on="0"/>
        <pt x="342" y="251" on="1"/>
        <pt x="396" y="193" on="0"/>
        <pt x="465" y="193" on="1"/>
        <pt x="521" y="193" on="0"/>
      </contour>
      <contour>
        <pt x="446" y="852" on="1"/>
        <pt x="509" y="893" on="0"/>
        <pt x="531" y="925" on="1"/>
        <pt x="569" y="984" on="0"/>
        <pt x="569" y="1061" on="1"/>
        <pt x="569" y="1139" on="0"/>
        <pt x="516" y="1174" on="1"/>
        <pt x="499" y="1184" on="0"/>
        <pt x="456" y="1184" on="0"/>
        <pt x="420" y="1161" on="0"/>
        <pt x="407" y="1143" on="1"/>
        <pt x="381" y="1107" on="0"/>
        <pt x="379" y="1057" on="1"/>
        <pt x="379" y="1051" on="1"/>
        <pt x="379" y="960" on="0"/>
      </contour>
    </TTGlyph>
    <TTGlyph name="aring" xMin="37" yMin="29" xMax="889" yMax="1581">
      <contour>
        <pt x="259" y="1449" on="1"/>
        <pt x="411" y="1529" on="0"/>
        <pt x="493" y="1581" on="1"/>
        <pt x="540" y="1566" on="0"/>
        <pt x="588" y="1526" on="1"/>
        <pt x="689" y="1442" on="0"/>
        <pt x="708" y="1349" on="1"/>
        <pt x="710" y="1338" on="0"/>
        <pt x="710" y="1298" on="0"/>
        <pt x="688" y="1278" on="1"/>
        <pt x="488" y="1080" on="1"/>
        <pt x="228" y="1179" on="1"/>
        <pt x="269" y="1240" on="0"/>
        <pt x="269" y="1294" on="1"/>
        <pt x="268" y="1402" on="1"/>
        <pt x="267" y="1436" on="0"/>
      </contour>
      <contour>
        <pt x="422" y="1465" on="1"/>
        <pt x="420" y="1266" on="1"/>
        <pt x="425" y="1243" on="0"/>
        <pt x="507" y="1215" on="0"/>
        <pt x="526" y="1218" on="1"/>
        <pt x="580" y="1228" on="0"/>
        <pt x="580" y="1271" on="1"/>
        <pt x="580" y="1281" on="0"/>
        <pt x="577" y="1292" on="1"/>
        <pt x="538" y="1432" on="0"/>
      </contour>
      <contour>
        <pt x="37" y="759" on="1"/>
        <pt x="427" y="1076" on="1"/>
        <pt x="869" y="869" on="1"/>
        <pt x="791" y="801" on="0"/>
        <pt x="790" y="716" on="1"/>
        <pt x="786" y="385" on="1"/>
        <pt x="786" y="351" on="0"/>
        <pt x="857" y="265" on="0"/>
        <pt x="889" y="239" on="1"/>
        <pt x="687" y="31" on="1"/>
        <pt x="532" y="190" on="1"/>
        <pt x="476" y="145" on="0"/>
        <pt x="362" y="70" on="0"/>
        <pt x="317" y="29" on="1"/>
        <pt x="167" y="85" on="0"/>
        <pt x="37" y="202" on="1"/>
        <pt x="74" y="249" on="0"/>
        <pt x="80" y="339" on="1"/>
        <pt x="77" y="641" on="1"/>
        <pt x="77" y="645" on="0"/>
        <pt x="77" y="649" on="1"/>
        <pt x="77" y="708" on="0"/>
      </contour>
      <contour>
        <pt x="380" y="836" on="1"/>
        <pt x="322" y="749" on="0"/>
        <pt x="322" y="681" on="1"/>
        <pt x="322" y="436" on="1"/>
        <pt x="322" y="361" on="0"/>
        <pt x="349" y="329" on="1"/>
        <pt x="372" y="296" on="0"/>
        <pt x="411" y="244" on="0"/>
        <pt x="454" y="232" on="1"/>
        <pt x="536" y="291" on="1"/>
        <pt x="536" y="751" on="1"/>
      </contour>
    </TTGlyph>
    <TTGlyph name="asciicircum" xMin="38" yMin="1165" xMax="545" yMax="1527">
      <contour>
        <pt x="60" y="1165" on="1"/>
        <pt x="38" y="1165" on="0"/>
        <pt x="38" y="1182" on="1"/>
        <pt x="38" y="1187" on="0"/>
        <pt x="42" y="1193" on="1"/>
        <pt x="226" y="1519" on="1"/>
        <pt x="231" y="1527" on="0"/>
        <pt x="242" y="1527" on="1"/>
        <pt x="343" y="1527" on="1"/>
        <pt x="356" y="1527" on="0"/>
        <pt x="361" y="1519" on="1"/>
        <pt x="541" y="1193" on="1"/>
        <pt x="544" y="1187" on="0"/>
        <pt x="544" y="1182" on="1"/>
        <pt x="544" y="1165" on="0"/>
        <pt x="525" y="1165" on="1"/>
        <pt x="480" y="1165" on="1"/>
        <pt x="470" y="1165" on="0"/>
        <pt x="466" y="1169" on="1"/>
        <pt x="291" y="1347" on="1"/>
        <pt x="120" y="1168" on="0"/>
        <pt x="106" y="1165" on="0"/>
        <pt x="103" y="1165" on="1"/>
      </contour>
    </TTGlyph>
    <TTGlyph name="asciitilde" xMin="44" yMin="728" xMax="632" yMax="997">
      <contour>
        <pt x="177" y="835" on="1"/>
        <pt x="171" y="833" on="1"/>
        <pt x="158" y="817" on="0"/>
        <pt x="128" y="785" on="0"/>
        <pt x="122" y="776" on="1"/>
        <pt x="112" y="761" on="0"/>
        <pt x="101" y="761" on="1"/>
        <pt x="93" y="761" on="1"/>
        <pt x="61" y="761" on="0"/>
        <pt x="48" y="782" on="1"/>
        <pt x="44" y="786" on="0"/>
        <pt x="44" y="798" on="0"/>
        <pt x="53" y="816" on="1"/>
        <pt x="76" y="867" on="0"/>
        <pt x="156" y="962" on="1"/>
        <pt x="166" y="971" on="0"/>
        <pt x="169" y="973" on="1"/>
        <pt x="205" y="997" on="0"/>
        <pt x="226" y="996" on="0"/>
        <pt x="228" y="995" on="0"/>
        <pt x="230" y="995" on="1"/>
        <pt x="212" y="974" on="1"/>
        <pt x="236" y="993" on="1"/>
        <pt x="238" y="995" on="1"/>
        <pt x="484" y="892" on="1"/>
        <pt x="490" y="892" on="1"/>
        <pt x="501" y="892" on="0"/>
        <pt x="519" y="898" on="1"/>
        <pt x="527" y="906" on="0"/>
        <pt x="544" y="935" on="0"/>
        <pt x="550" y="946" on="1"/>
        <pt x="561" y="966" on="0"/>
        <pt x="578" y="960" on="1"/>
        <pt x="617" y="947" on="1"/>
        <pt x="632" y="942" on="0"/>
        <pt x="632" y="929" on="1"/>
        <pt x="632" y="902" on="0"/>
        <pt x="509" y="763" on="1"/>
        <pt x="486" y="728" on="0"/>
        <pt x="453" y="728" on="1"/>
        <pt x="437" y="728" on="1"/>
        <pt x="426" y="728" on="0"/>
        <pt x="395" y="744" on="0"/>
        <pt x="367" y="753" on="0"/>
        <pt x="344" y="763" on="0"/>
        <pt x="337" y="765" on="0"/>
        <pt x="314" y="774" on="1"/>
        <pt x="255" y="798" on="0"/>
        <pt x="185" y="835" on="1"/>
      </contour>
      <contour>
        <pt x="233" y="994" on="1"/>
        <pt x="232" y="994" on="0"/>
        <pt x="232" y="995" on="1"/>
        <pt x="232" y="994" on="0"/>
      </contour>
      <contour>
        <pt x="185" y="835" on="1"/>
        <pt x="183" y="835" on="1"/>
      </contour>
    </TTGlyph>
    <TTGlyph name="asterisk" xMin="9" yMin="31" xMax="1087" yMax="1272">
      <contour>
        <pt x="9" y="614" on="1"/>
        <pt x="269" y="897" on="1"/>
        <pt x="504" y="680" on="1"/>
        <pt x="247" y="424" on="1"/>
        <pt x="149" y="507" on="0"/>
      </contour>
      <contour>
        <pt x="309" y="940" on="1"/>
        <pt x="614" y="1272" on="1"/>
        <pt x="627" y="1195" on="0"/>
        <pt x="730" y="1045" on="0"/>
        <pt x="797" y="971" on="1"/>
        <pt x="546" y="721" on="1"/>
      </contour>
      <contour>
        <pt x="839" y="929" on="1"/>
        <pt x="902" y="860" on="0"/>
        <pt x="1035" y="724" on="0"/>
        <pt x="1087" y="656" on="1"/>
        <pt x="877" y="416" on="1"/>
        <pt x="589" y="681" on="1"/>
      </contour>
      <contour>
        <pt x="539" y="37" on="1"/>
        <pt x="539" y="165" on="0"/>
        <pt x="291" y="385" on="1"/>
        <pt x="547" y="640" on="1"/>
        <pt x="839" y="372" on="1"/>
        <pt x="539" y="31" on="1"/>
        <pt x="539" y="34" on="0"/>
      </contour>
    </TTGlyph>
    <TTGlyph name="at" xMin="92" yMin="-41" xMax="1228" yMax="1124">
      <contour>
        <pt x="840" y="237" on="1"/>
        <pt x="816" y="237" on="0"/>
        <pt x="732" y="245" on="1"/>
        <pt x="734" y="267" on="0"/>
        <pt x="736" y="299" on="0"/>
        <pt x="738" y="315" on="1"/>
        <pt x="741" y="352" on="0"/>
        <pt x="746" y="404" on="1"/>
        <pt x="640" y="288" on="0"/>
        <pt x="546" y="234" on="0"/>
        <pt x="441" y="234" on="0"/>
        <pt x="368" y="355" on="0"/>
        <pt x="368" y="555" on="0"/>
        <pt x="423" y="708" on="0"/>
        <pt x="474" y="761" on="1"/>
        <pt x="579" y="872" on="0"/>
        <pt x="762" y="872" on="1"/>
        <pt x="839" y="872" on="0"/>
        <pt x="928" y="846" on="1"/>
        <pt x="908" y="783" on="0"/>
        <pt x="899" y="696" on="1"/>
        <pt x="873" y="490" on="1"/>
        <pt x="863" y="410" on="0"/>
        <pt x="863" y="350" on="0"/>
        <pt x="886" y="320" on="0"/>
        <pt x="958" y="320" on="0"/>
        <pt x="1031" y="369" on="0"/>
        <pt x="1058" y="412" on="1"/>
        <pt x="1117" y="503" on="0"/>
        <pt x="1117" y="719" on="0"/>
        <pt x="1058" y="863" on="0"/>
        <pt x="1006" y="916" on="1"/>
        <pt x="897" y="1027" on="0"/>
        <pt x="726" y="1027" on="1"/>
        <pt x="506" y="1027" on="0"/>
        <pt x="366" y="872" on="1"/>
        <pt x="226" y="716" on="0"/>
        <pt x="226" y="270" on="0"/>
        <pt x="428" y="45" on="0"/>
        <pt x="612" y="45" on="1"/>
        <pt x="703" y="45" on="0"/>
        <pt x="815" y="85" on="0"/>
        <pt x="860" y="105" on="0"/>
        <pt x="882" y="120" on="1"/>
        <pt x="922" y="145" on="0"/>
        <pt x="986" y="199" on="1"/>
        <pt x="1047" y="138" on="1"/>
        <pt x="1025" y="118" on="0"/>
        <pt x="989" y="88" on="0"/>
        <pt x="976" y="77" on="1"/>
        <pt x="828" y="-41" on="0"/>
        <pt x="594" y="-41" on="1"/>
        <pt x="290" y="-41" on="0"/>
        <pt x="164" y="176" on="1"/>
        <pt x="92" y="298" on="0"/>
        <pt x="92" y="593" on="0"/>
        <pt x="197" y="837" on="0"/>
        <pt x="376" y="1019" on="0"/>
        <pt x="617" y="1124" on="0"/>
        <pt x="752" y="1124" on="1"/>
        <pt x="983" y="1124" on="0"/>
        <pt x="1108" y="980" on="1"/>
        <pt x="1228" y="839" on="0"/>
        <pt x="1228" y="455" on="0"/>
        <pt x="1025" y="237" on="0"/>
      </contour>
      <contour>
        <pt x="565" y="347" on="1"/>
        <pt x="615" y="347" on="0"/>
        <pt x="691" y="439" on="1"/>
        <pt x="734" y="491" on="0"/>
        <pt x="744" y="520" on="1"/>
        <pt x="755" y="553" on="0"/>
        <pt x="765" y="623" on="1"/>
        <pt x="774" y="696" on="1"/>
        <pt x="776" y="706" on="0"/>
        <pt x="776" y="716" on="1"/>
        <pt x="776" y="734" on="1"/>
        <pt x="776" y="789" on="0"/>
        <pt x="687" y="789" on="1"/>
        <pt x="605" y="789" on="0"/>
        <pt x="554" y="704" on="1"/>
        <pt x="502" y="618" on="0"/>
        <pt x="502" y="347" on="0"/>
      </contour>
    </TTGlyph>
    <TTGlyph name="atilde" xMin="-19" yMin="29" xMax="889" yMax="1396">
      <component glyphName="a" x="0" y="0" flags="0x1204"/>
      <component glyphName="tilde" x="151" y="120" scalex="0.697570800781" scaley="0.843933105469" flags="0x1004"/>
    </TTGlyph>
    <TTGlyph name="b" xMin="31" yMin="14" xMax="852" yMax="1535">
      <contour>
        <pt x="31" y="1294" on="1"/>
        <pt x="42" y="1341" on="1"/>
        <pt x="241" y="1411" on="0"/>
        <pt x="471" y="1535" on="1"/>
        <pt x="534" y="1496" on="1"/>
        <pt x="392" y="1411" on="0"/>
        <pt x="391" y="1175" on="1"/>
        <pt x="390" y="969" on="1"/>
        <pt x="556" y="1101" on="1"/>
        <pt x="632" y="1069" on="0"/>
        <pt x="696" y="977" on="1"/>
        <pt x="827" y="789" on="0"/>
        <pt x="849" y="578" on="1"/>
        <pt x="852" y="553" on="0"/>
        <pt x="852" y="473" on="0"/>
        <pt x="830" y="445" on="1"/>
        <pt x="499" y="14" on="1"/>
        <pt x="70" y="227" on="1"/>
        <pt x="95" y="281" on="0"/>
        <pt x="139" y="404" on="0"/>
        <pt x="139" y="476" on="1"/>
        <pt x="131" y="1170" on="1"/>
        <pt x="131" y="1244" on="0"/>
      </contour>
      <contour>
        <pt x="390" y="850" on="1"/>
        <pt x="387" y="417" on="1"/>
        <pt x="396" y="367" on="0"/>
        <pt x="515" y="312" on="0"/>
        <pt x="556" y="312" on="0"/>
        <pt x="564" y="314" on="1"/>
        <pt x="650" y="336" on="0"/>
        <pt x="650" y="426" on="1"/>
        <pt x="650" y="448" on="0"/>
        <pt x="645" y="474" on="1"/>
        <pt x="611" y="642" on="0"/>
        <pt x="482" y="814" on="0"/>
      </contour>
    </TTGlyph>
    <TTGlyph name="backslash" xMin="29" yMin="1" xMax="752" yMax="1539">
      <contour>
        <pt x="752" y="1" on="1"/>
        <pt x="614" y="1" on="1"/>
        <pt x="29" y="1539" on="1"/>
        <pt x="167" y="1539" on="1"/>
      </contour>
    </TTGlyph>
    <TTGlyph name="bar" xMin="49" yMin="0" xMax="171" yMax="1534">
      <contour>
        <pt x="171" y="0" on="1"/>
        <pt x="49" y="0" on="1"/>
        <pt x="49" y="1534" on="1"/>
        <pt x="171" y="1534" on="1"/>
      </contour>
    </TTGlyph>
    <TTGlyph name="braceleft" xMin="16" yMin="-77" xMax="571" yMax="1528">
      <contour>
        <pt x="563" y="-49" on="1"/>
        <pt x="563" y="-69" on="0"/>
        <pt x="506" y="-75" on="0"/>
        <pt x="501" y="-75" on="1"/>
        <pt x="473" y="-77" on="1"/>
        <pt x="452" y="-77" on="1"/>
        <pt x="372" y="-77" on="0"/>
        <pt x="288" y="-45" on="1"/>
        <pt x="239" y="-18" on="0"/>
        <pt x="211" y="13" on="1"/>
        <pt x="184" y="37" on="0"/>
        <pt x="172" y="84" on="1"/>
        <pt x="170" y="516" on="1"/>
        <pt x="170" y="547" on="0"/>
        <pt x="159" y="587" on="1"/>
        <pt x="145" y="638" on="0"/>
        <pt x="126" y="657" on="1"/>
        <pt x="97" y="688" on="0"/>
        <pt x="22" y="711" on="0"/>
        <pt x="17" y="722" on="0"/>
        <pt x="17" y="728" on="1"/>
        <pt x="17" y="744" on="0"/>
        <pt x="38" y="748" on="1"/>
        <pt x="97" y="761" on="0"/>
        <pt x="125" y="789" on="1"/>
        <pt x="157" y="832" on="0"/>
        <pt x="157" y="895" on="1"/>
        <pt x="157" y="1383" on="1"/>
        <pt x="161" y="1408" on="0"/>
        <pt x="190" y="1441" on="1"/>
        <pt x="238" y="1498" on="0"/>
        <pt x="286" y="1510" on="1"/>
        <pt x="394" y="1528" on="0"/>
        <pt x="520" y="1528" on="1"/>
        <pt x="551" y="1528" on="1"/>
        <pt x="571" y="1528" on="0"/>
        <pt x="571" y="1508" on="1"/>
        <pt x="571" y="1485" on="1"/>
        <pt x="571" y="1477" on="0"/>
        <pt x="559" y="1465" on="0"/>
        <pt x="533" y="1464" on="0"/>
        <pt x="492" y="1456" on="0"/>
        <pt x="472" y="1450" on="1"/>
        <pt x="438" y="1440" on="0"/>
        <pt x="399" y="1422" on="1"/>
        <pt x="377" y="1396" on="0"/>
        <pt x="368" y="1373" on="1"/>
        <pt x="368" y="902" on="1"/>
        <pt x="351" y="804" on="0"/>
        <pt x="264" y="723" on="1"/>
        <pt x="309" y="684" on="0"/>
        <pt x="342" y="641" on="1"/>
        <pt x="370" y="596" on="0"/>
        <pt x="370" y="529" on="1"/>
        <pt x="370" y="95" on="1"/>
        <pt x="383" y="53" on="0"/>
        <pt x="396" y="38" on="1"/>
        <pt x="412" y="21" on="0"/>
        <pt x="440" y="2" on="1"/>
        <pt x="452" y="-2" on="0"/>
        <pt x="473" y="-4" on="0"/>
        <pt x="483" y="-4" on="1"/>
        <pt x="512" y="-4" on="1"/>
        <pt x="532" y="0" on="0"/>
        <pt x="536" y="0" on="1"/>
        <pt x="542" y="0" on="1"/>
        <pt x="563" y="0" on="0"/>
        <pt x="563" y="-20" on="1"/>
      </contour>
    </TTGlyph>
    <TTGlyph name="braceright" xMin="11" yMin="-72" xMax="569" yMax="1533">
      <contour>
        <pt x="220" y="-68" on="1"/>
        <pt x="200" y="-72" on="0"/>
        <pt x="171" y="-72" on="1"/>
        <pt x="94" y="-72" on="1"/>
        <pt x="74" y="-72" on="0"/>
        <pt x="21" y="-68" on="0"/>
        <pt x="21" y="-48" on="1"/>
        <pt x="21" y="-19" on="1"/>
        <pt x="21" y="-10" on="0"/>
        <pt x="36" y="3" on="0"/>
        <pt x="46" y="1" on="1"/>
        <pt x="64" y="-3" on="0"/>
        <pt x="76" y="-3" on="1"/>
        <pt x="95" y="-3" on="1"/>
        <pt x="111" y="-1" on="1"/>
        <pt x="113" y="-1" on="0"/>
        <pt x="115" y="1" on="0"/>
        <pt x="117" y="1" on="1"/>
        <pt x="113" y="1" on="1"/>
        <pt x="119" y="3" on="0"/>
        <pt x="139" y="6" on="0"/>
        <pt x="150" y="10" on="1"/>
        <pt x="180" y="19" on="0"/>
        <pt x="205" y="77" on="1"/>
        <pt x="205" y="558" on="1"/>
        <pt x="208" y="591" on="0"/>
        <pt x="228" y="628" on="1"/>
        <pt x="277" y="693" on="0"/>
        <pt x="363" y="728" on="1"/>
        <pt x="333" y="742" on="0"/>
        <pt x="316" y="753" on="1"/>
        <pt x="316" y="751" on="1"/>
        <pt x="278" y="772" on="0"/>
        <pt x="236" y="829" on="1"/>
        <pt x="234" y="832" on="0"/>
        <pt x="232" y="840" on="0"/>
        <pt x="230" y="843" on="1"/>
        <pt x="218" y="872" on="1"/>
        <pt x="214" y="880" on="0"/>
        <pt x="214" y="892" on="1"/>
        <pt x="212" y="903" on="1"/>
        <pt x="212" y="1326" on="1"/>
        <pt x="212" y="1371" on="0"/>
        <pt x="187" y="1412" on="1"/>
        <pt x="175" y="1426" on="0"/>
        <pt x="140" y="1449" on="1"/>
        <pt x="144" y="1449" on="1"/>
        <pt x="128" y="1454" on="0"/>
        <pt x="97" y="1458" on="1"/>
        <pt x="48" y="1460" on="1"/>
        <pt x="31" y="1460" on="1"/>
        <pt x="11" y="1460" on="0"/>
        <pt x="11" y="1480" on="1"/>
        <pt x="11" y="1511" on="1"/>
        <pt x="11" y="1531" on="0"/>
        <pt x="31" y="1531" on="1"/>
        <pt x="68" y="1531" on="1"/>
        <pt x="109" y="1533" on="1"/>
        <pt x="198" y="1533" on="0"/>
        <pt x="300" y="1510" on="0"/>
        <pt x="345" y="1488" on="1"/>
        <pt x="385" y="1461" on="0"/>
        <pt x="397" y="1432" on="1"/>
        <pt x="416" y="1382" on="0"/>
        <pt x="416" y="1318" on="1"/>
        <pt x="416" y="929" on="1"/>
        <pt x="418" y="915" on="0"/>
        <pt x="423" y="886" on="0"/>
        <pt x="427" y="866" on="0"/>
        <pt x="431" y="840" on="0"/>
        <pt x="437" y="823" on="1"/>
        <pt x="435" y="825" on="1"/>
        <pt x="441" y="806" on="0"/>
        <pt x="453" y="794" on="1"/>
        <pt x="499" y="767" on="0"/>
        <pt x="563" y="747" on="0"/>
        <pt x="569" y="736" on="0"/>
        <pt x="569" y="729" on="1"/>
        <pt x="569" y="712" on="0"/>
        <pt x="552" y="710" on="1"/>
        <pt x="475" y="704" on="0"/>
        <pt x="439" y="640" on="1"/>
        <pt x="441" y="642" on="1"/>
        <pt x="420" y="603" on="0"/>
        <pt x="414" y="546" on="1"/>
        <pt x="416" y="498" on="0"/>
        <pt x="416" y="452" on="1"/>
        <pt x="416" y="213" on="1"/>
        <pt x="416" y="159" on="0"/>
        <pt x="414" y="102" on="1"/>
        <pt x="414" y="89" on="1"/>
        <pt x="410" y="55" on="0"/>
        <pt x="400" y="39" on="1"/>
        <pt x="388" y="19" on="0"/>
        <pt x="388" y="16" on="1"/>
        <pt x="390" y="18" on="1"/>
        <pt x="369" y="-21" on="0"/>
        <pt x="330" y="-40" on="1"/>
        <pt x="332" y="-40" on="1"/>
        <pt x="283" y="-68" on="0"/>
      </contour>
    </TTGlyph>
    <TTGlyph name="bracketleft" xMin="108" yMin="-78" xMax="515" yMax="1524">
      <contour>
        <pt x="128" y="-78" on="1"/>
        <pt x="108" y="-78" on="0"/>
        <pt x="108" y="-59" on="1"/>
        <pt x="108" y="1505" on="1"/>
        <pt x="108" y="1524" on="0"/>
        <pt x="128" y="1524" on="1"/>
        <pt x="495" y="1524" on="1"/>
        <pt x="515" y="1524" on="0"/>
        <pt x="515" y="1505" on="1"/>
        <pt x="515" y="1460" on="1"/>
        <pt x="515" y="1440" on="0"/>
        <pt x="495" y="1440" on="1"/>
        <pt x="351" y="1436" on="1"/>
        <pt x="351" y="10" on="1"/>
        <pt x="491" y="10" on="1"/>
        <pt x="511" y="10" on="0"/>
        <pt x="511" y="-10" on="1"/>
        <pt x="511" y="-59" on="1"/>
        <pt x="511" y="-78" on="0"/>
        <pt x="491" y="-78" on="1"/>
      </contour>
    </TTGlyph>
    <TTGlyph name="bracketright" xMin="-8" yMin="-77" xMax="395" yMax="1525">
      <contour>
        <pt x="12" y="-77" on="1"/>
        <pt x="-8" y="-77" on="0"/>
        <pt x="-8" y="-58" on="1"/>
        <pt x="-8" y="-9" on="1"/>
        <pt x="-8" y="11" on="0"/>
        <pt x="12" y="11" on="1"/>
        <pt x="163" y="11" on="1"/>
        <pt x="163" y="1435" on="1"/>
        <pt x="12" y="1435" on="1"/>
        <pt x="-8" y="1435" on="0"/>
        <pt x="-8" y="1455" on="1"/>
        <pt x="-8" y="1506" on="1"/>
        <pt x="-8" y="1525" on="0"/>
        <pt x="12" y="1525" on="1"/>
        <pt x="377" y="1525" on="1"/>
        <pt x="395" y="1525" on="0"/>
        <pt x="395" y="1506" on="1"/>
        <pt x="395" y="-58" on="1"/>
        <pt x="395" y="-77" on="0"/>
        <pt x="377" y="-77" on="1"/>
      </contour>
    </TTGlyph>
    <TTGlyph name="brokenbar" xMin="457" yMin="-341" xMax="566" yMax="1365">
      <contour>
        <pt x="457" y="1365" on="1"/>
        <pt x="566" y="1365" on="1"/>
        <pt x="566" y="693" on="1"/>
        <pt x="457" y="693" on="1"/>
      </contour>
      <contour>
        <pt x="457" y="314" on="1"/>
        <pt x="566" y="314" on="1"/>
        <pt x="566" y="-341" on="1"/>
        <pt x="457" y="-341" on="1"/>
      </contour>
    </TTGlyph>
    <TTGlyph name="bullet" xMin="63" yMin="467" xMax="633" yMax="1020">
      <contour>
        <pt x="346" y="467" on="1"/>
        <pt x="293" y="467" on="0"/>
        <pt x="192" y="504" on="0"/>
        <pt x="152" y="538" on="1"/>
        <pt x="63" y="615" on="0"/>
        <pt x="63" y="737" on="1"/>
        <pt x="63" y="866" on="0"/>
        <pt x="152" y="946" on="1"/>
        <pt x="234" y="1020" on="0"/>
        <pt x="350" y="1020" on="1"/>
        <pt x="466" y="1020" on="0"/>
        <pt x="546" y="948" on="1"/>
        <pt x="633" y="870" on="0"/>
        <pt x="633" y="737" on="1"/>
        <pt x="633" y="614" on="0"/>
        <pt x="544" y="538" on="1"/>
        <pt x="462" y="467" on="0"/>
      </contour>
    </TTGlyph>
    <TTGlyph name="c" xMin="33" yMin="29" xMax="770" yMax="1092">
      <contour>
        <pt x="692" y="362" on="1"/>
        <pt x="354" y="29" on="1"/>
        <pt x="34" y="241" on="0"/>
        <pt x="34" y="523" on="1"/>
        <pt x="34" y="662" on="0"/>
        <pt x="214" y="932" on="0"/>
        <pt x="414" y="1092" on="1"/>
        <pt x="500" y="1036" on="0"/>
        <pt x="682" y="929" on="0"/>
        <pt x="770" y="876" on="1"/>
        <pt x="570" y="700" on="1"/>
        <pt x="510" y="737" on="0"/>
        <pt x="439" y="790" on="0"/>
        <pt x="360" y="826" on="0"/>
        <pt x="325" y="826" on="0"/>
        <pt x="305" y="806" on="1"/>
        <pt x="243" y="743" on="0"/>
        <pt x="243" y="664" on="1"/>
        <pt x="243" y="525" on="0"/>
        <pt x="405" y="367" on="1"/>
        <pt x="446" y="329" on="0"/>
        <pt x="484" y="329" on="1"/>
        <pt x="551" y="329" on="0"/>
        <pt x="606" y="421" on="1"/>
        <pt x="627" y="406" on="0"/>
        <pt x="670" y="377" on="0"/>
      </contour>
    </TTGlyph>
    <TTGlyph name="c_h" xMin="16" yMin="-343" xMax="1289" yMax="1485">
      <contour>
        <pt x="954" y="259" on="1"/>
        <pt x="732" y="15" on="1"/>
        <pt x="485" y="204" on="1"/>
        <pt x="317" y="29" on="1"/>
        <pt x="17" y="242" on="0"/>
        <pt x="17" y="524" on="1"/>
        <pt x="17" y="527" on="0"/>
        <pt x="17" y="530" on="1"/>
        <pt x="20" y="665" on="0"/>
        <pt x="186" y="932" on="0"/>
        <pt x="374" y="1092" on="1"/>
        <pt x="460" y="1032" on="0"/>
        <pt x="554" y="976" on="1"/>
        <pt x="554" y="1049" on="1"/>
        <pt x="555" y="1172" on="0"/>
        <pt x="447" y="1269" on="1"/>
        <pt x="463" y="1298" on="0"/>
        <pt x="490" y="1342" on="1"/>
        <pt x="534" y="1337" on="0"/>
        <pt x="607" y="1337" on="1"/>
        <pt x="755" y="1337" on="0"/>
        <pt x="984" y="1485" on="1"/>
        <pt x="1015" y="1461" on="0"/>
        <pt x="1080" y="1414" on="1"/>
        <pt x="926" y="1346" on="0"/>
        <pt x="799" y="1157" on="0"/>
        <pt x="799" y="1024" on="1"/>
        <pt x="797" y="907" on="1"/>
        <pt x="1021" y="1076" on="1"/>
        <pt x="1289" y="823" on="0"/>
        <pt x="1289" y="505" on="1"/>
        <pt x="1289" y="129" on="0"/>
        <pt x="980" y="-343" on="1"/>
        <pt x="832" y="-296" on="1"/>
        <pt x="1057" y="-49" on="0"/>
        <pt x="1057" y="259" on="1"/>
        <pt x="1057" y="582" on="0"/>
        <pt x="797" y="807" on="1"/>
        <pt x="795" y="437" on="1"/>
        <pt x="795" y="362" on="0"/>
        <pt x="889" y="285" on="0"/>
      </contour>
      <contour>
        <pt x="546" y="406" on="1"/>
        <pt x="549" y="431" on="0"/>
        <pt x="549" y="444" on="1"/>
        <pt x="551" y="675" on="1"/>
        <pt x="497" y="712" on="0"/>
        <pt x="395" y="791" on="0"/>
        <pt x="323" y="826" on="0"/>
        <pt x="290" y="826" on="0"/>
        <pt x="272" y="806" on="1"/>
        <pt x="214" y="743" on="0"/>
        <pt x="214" y="663" on="1"/>
        <pt x="214" y="523" on="0"/>
        <pt x="366" y="367" on="1"/>
        <pt x="405" y="326" on="0"/>
        <pt x="496" y="326" on="0"/>
      </contour>
    </TTGlyph>
    <TTGlyph name="c_k" xMin="25" yMin="15" xMax="1164" yMax="1535">
      <contour>
        <pt x="959" y="259" on="1"/>
        <pt x="737" y="15" on="1"/>
        <pt x="492" y="202" on="1"/>
        <pt x="326" y="29" on="1"/>
        <pt x="26" y="241" on="0"/>
        <pt x="26" y="523" on="1"/>
        <pt x="26" y="526" on="0"/>
        <pt x="26" y="530" on="1"/>
        <pt x="29" y="665" on="0"/>
        <pt x="195" y="932" on="0"/>
        <pt x="382" y="1092" on="1"/>
        <pt x="455" y="1042" on="0"/>
        <pt x="559" y="979" on="1"/>
        <pt x="559" y="1049" on="1"/>
        <pt x="559" y="1114" on="0"/>
        <pt x="549" y="1294" on="0"/>
        <pt x="510" y="1356" on="1"/>
        <pt x="839" y="1535" on="1"/>
        <pt x="816" y="1435" on="0"/>
        <pt x="809" y="1301" on="1"/>
        <pt x="969" y="1461" on="1"/>
        <pt x="1164" y="1215" on="1"/>
        <pt x="927" y="935" on="1"/>
        <pt x="1125" y="935" on="1"/>
        <pt x="1012" y="719" on="1"/>
        <pt x="802" y="719" on="1"/>
        <pt x="800" y="437" on="1"/>
        <pt x="800" y="362" on="0"/>
        <pt x="826" y="326" on="0"/>
      </contour>
      <contour>
        <pt x="550" y="399" on="1"/>
        <pt x="552" y="414" on="0"/>
        <pt x="555" y="444" on="1"/>
        <pt x="556" y="677" on="1"/>
        <pt x="504" y="714" on="0"/>
        <pt x="402" y="792" on="0"/>
        <pt x="332" y="826" on="0"/>
        <pt x="299" y="826" on="0"/>
        <pt x="281" y="806" on="1"/>
        <pt x="223" y="743" on="0"/>
        <pt x="223" y="663" on="1"/>
        <pt x="223" y="523" on="0"/>
        <pt x="375" y="367" on="1"/>
        <pt x="413" y="328" on="0"/>
        <pt x="501" y="328" on="0"/>
      </contour>
      <contour>
        <pt x="805" y="1180" on="1"/>
        <pt x="804" y="1141" on="0"/>
        <pt x="804" y="1102" on="1"/>
        <pt x="804" y="1024" on="1"/>
        <pt x="802" y="935" on="1"/>
        <pt x="852" y="935" on="1"/>
        <pt x="964" y="1066" on="1"/>
        <pt x="946" y="1197" on="0"/>
        <pt x="861" y="1227" on="1"/>
      </contour>
    </TTGlyph>
    <TTGlyph name="caron" xMin="39" yMin="1290" xMax="634" yMax="1527">
      <component glyphName="circumflex" x="672" y="2817" scale="-1.0" flags="0x1004"/>
    </TTGlyph>
    <TTGlyph name="ccedilla" xMin="33" yMin="-342" xMax="770" yMax="1092">
      <contour>
        <pt x="484" y="329" on="1"/>
        <pt x="551" y="329" on="0"/>
        <pt x="606" y="421" on="1"/>
        <pt x="627" y="406" on="0"/>
        <pt x="670" y="377" on="0"/>
        <pt x="692" y="362" on="1"/>
        <pt x="607" y="279" on="0"/>
        <pt x="468" y="140" on="0"/>
        <pt x="413" y="86" on="1"/>
        <pt x="321" y="-57" on="1"/>
        <pt x="375" y="-42" on="0"/>
        <pt x="489" y="-42" on="0"/>
        <pt x="594" y="-119" on="0"/>
        <pt x="594" y="-183" on="1"/>
        <pt x="594" y="-274" on="0"/>
        <pt x="505" y="-314" on="1"/>
        <pt x="444" y="-342" on="0"/>
        <pt x="362" y="-342" on="1"/>
        <pt x="203" y="-342" on="0"/>
        <pt x="119" y="-306" on="1"/>
        <pt x="139" y="-261" on="1"/>
        <pt x="195" y="-280" on="0"/>
        <pt x="255" y="-280" on="1"/>
        <pt x="390" y="-280" on="0"/>
        <pt x="390" y="-188" on="1"/>
        <pt x="390" y="-152" on="0"/>
        <pt x="341" y="-115" on="0"/>
        <pt x="277" y="-115" on="0"/>
        <pt x="252" y="-128" on="1"/>
        <pt x="222" y="-99" on="1"/>
        <pt x="321" y="51" on="1"/>
        <pt x="34" y="255" on="0"/>
        <pt x="34" y="523" on="1"/>
        <pt x="34" y="662" on="0"/>
        <pt x="214" y="932" on="0"/>
        <pt x="414" y="1092" on="1"/>
        <pt x="500" y="1036" on="0"/>
        <pt x="682" y="929" on="0"/>
        <pt x="770" y="876" on="1"/>
        <pt x="570" y="700" on="1"/>
        <pt x="510" y="737" on="0"/>
        <pt x="439" y="790" on="0"/>
        <pt x="360" y="826" on="0"/>
        <pt x="325" y="826" on="0"/>
        <pt x="305" y="806" on="1"/>
        <pt x="243" y="743" on="0"/>
        <pt x="243" y="664" on="1"/>
        <pt x="243" y="525" on="0"/>
        <pt x="405" y="367" on="1"/>
        <pt x="446" y="329" on="0"/>
      </contour>
    </TTGlyph>
    <TTGlyph name="cedilla" xMin="322" yMin="-439" xMax="797" yMax="0">
      <contour>
        <pt x="555" y="0" on="1"/>
        <pt x="623" y="0" on="1"/>
        <pt x="524" y="-154" on="1"/>
        <pt x="578" y="-139" on="0"/>
        <pt x="692" y="-139" on="0"/>
        <pt x="797" y="-216" on="0"/>
        <pt x="797" y="-280" on="1"/>
        <pt x="797" y="-371" on="0"/>
        <pt x="708" y="-411" on="1"/>
        <pt x="647" y="-439" on="0"/>
        <pt x="566" y="-439" on="1"/>
        <pt x="406" y="-439" on="0"/>
        <pt x="322" y="-403" on="1"/>
        <pt x="342" y="-358" on="1"/>
        <pt x="398" y="-377" on="0"/>
        <pt x="458" y="-377" on="1"/>
        <pt x="593" y="-377" on="0"/>
        <pt x="593" y="-285" on="1"/>
        <pt x="593" y="-249" on="0"/>
        <pt x="544" y="-212" on="0"/>
        <pt x="480" y="-212" on="0"/>
        <pt x="455" y="-225" on="1"/>
        <pt x="425" y="-196" on="1"/>
      </contour>
    </TTGlyph>
    <TTGlyph name="cent" xMin="33" yMin="0" xMax="832" yMax="1124">
      <contour>
        <pt x="533" y="345" on="1"/>
        <pt x="650" y="381" on="0"/>
        <pt x="699" y="463" on="1"/>
        <pt x="720" y="448" on="0"/>
        <pt x="763" y="419" on="0"/>
        <pt x="785" y="404" on="1"/>
        <pt x="700" y="321" on="0"/>
        <pt x="551" y="201" on="0"/>
        <pt x="533" y="186" on="1"/>
        <pt x="533" y="0" on="1"/>
        <pt x="411" y="0" on="1"/>
        <pt x="411" y="82" on="1"/>
        <pt x="380" y="54" on="0"/>
        <pt x="354" y="29" on="1"/>
        <pt x="34" y="241" on="0"/>
        <pt x="34" y="523" on="1"/>
        <pt x="34" y="662" on="0"/>
        <pt x="213" y="931" on="0"/>
        <pt x="412" y="1090" on="1"/>
        <pt x="412" y="1124" on="1"/>
        <pt x="534" y="1124" on="1"/>
        <pt x="534" y="1016" on="1"/>
        <pt x="629" y="958" on="0"/>
        <pt x="832" y="846" on="1"/>
        <pt x="632" y="670" on="1"/>
        <pt x="572" y="702" on="0"/>
        <pt x="533" y="725" on="1"/>
      </contour>
      <contour>
        <pt x="412" y="801" on="1"/>
        <pt x="394" y="810" on="0"/>
        <pt x="360" y="826" on="0"/>
        <pt x="325" y="826" on="0"/>
        <pt x="305" y="806" on="1"/>
        <pt x="243" y="743" on="0"/>
        <pt x="243" y="664" on="1"/>
        <pt x="243" y="525" on="0"/>
        <pt x="405" y="367" on="1"/>
        <pt x="408" y="364" on="0"/>
        <pt x="411" y="361" on="1"/>
      </contour>
    </TTGlyph>
    <TTGlyph name="circumflex" xMin="38" yMin="1290" xMax="633" yMax="1527">
      <contour>
        <pt x="64" y="1290" on="1"/>
        <pt x="39" y="1290" on="0"/>
        <pt x="39" y="1301" on="1"/>
        <pt x="39" y="1304" on="0"/>
        <pt x="43" y="1308" on="1"/>
        <pt x="259" y="1522" on="1"/>
        <pt x="264" y="1527" on="0"/>
        <pt x="278" y="1527" on="1"/>
        <pt x="396" y="1527" on="1"/>
        <pt x="410" y="1527" on="0"/>
        <pt x="418" y="1522" on="1"/>
        <pt x="629" y="1308" on="1"/>
        <pt x="633" y="1304" on="0"/>
        <pt x="633" y="1301" on="1"/>
        <pt x="633" y="1290" on="0"/>
        <pt x="610" y="1290" on="1"/>
        <pt x="557" y="1290" on="1"/>
        <pt x="544" y="1290" on="0"/>
        <pt x="541" y="1293" on="1"/>
        <pt x="335" y="1409" on="1"/>
        <pt x="139" y="1292" on="0"/>
        <pt x="118" y="1290" on="0"/>
        <pt x="115" y="1290" on="1"/>
      </contour>
    </TTGlyph>
    <TTGlyph name="colon" xMin="14" yMin="31" xMax="494" yMax="1164">
      <contour>
        <pt x="254" y="511" on="1"/>
        <pt x="494" y="271" on="1"/>
        <pt x="254" y="31" on="1"/>
        <pt x="14" y="271" on="1"/>
      </contour>
      <contour>
        <pt x="254" y="1164" on="1"/>
        <pt x="494" y="924" on="1"/>
        <pt x="254" y="684" on="1"/>
        <pt x="14" y="924" on="1"/>
      </contour>
    </TTGlyph>
    <TTGlyph name="comma" xMin="15" yMin="-510" xMax="500" yMax="545">
      <contour>
        <pt x="234" y="545" on="1"/>
        <pt x="500" y="140" on="1"/>
        <pt x="15" y="-510" on="1"/>
      </contour>
    </TTGlyph>
    <TTGlyph name="copyright" xMin="159" yMin="171" xMax="1152" yMax="1181">
      <contour>
        <pt x="620" y="974" on="1"/>
        <pt x="486" y="974" on="0"/>
        <pt x="486" y="755" on="1"/>
        <pt x="486" y="682" on="0"/>
        <pt x="517" y="546" on="0"/>
        <pt x="552" y="479" on="0"/>
        <pt x="574" y="452" on="1"/>
        <pt x="620" y="399" on="0"/>
        <pt x="679" y="399" on="1"/>
        <pt x="796" y="399" on="0"/>
        <pt x="845" y="530" on="1"/>
        <pt x="847" y="539" on="1"/>
        <pt x="889" y="539" on="1"/>
        <pt x="911" y="540" on="1"/>
        <pt x="902" y="519" on="1"/>
        <pt x="864" y="424" on="0"/>
        <pt x="721" y="316" on="0"/>
        <pt x="574" y="316" on="0"/>
        <pt x="466" y="372" on="0"/>
        <pt x="426" y="422" on="1"/>
        <pt x="340" y="530" on="0"/>
        <pt x="340" y="676" on="1"/>
        <pt x="340" y="780" on="0"/>
        <pt x="408" y="896" on="1"/>
        <pt x="491" y="1034" on="0"/>
        <pt x="629" y="1034" on="1"/>
        <pt x="703" y="1034" on="0"/>
        <pt x="776" y="984" on="1"/>
        <pt x="790" y="974" on="0"/>
        <pt x="806" y="974" on="1"/>
        <pt x="838" y="974" on="0"/>
        <pt x="860" y="1019" on="1"/>
        <pt x="864" y="1025" on="1"/>
        <pt x="924" y="1025" on="1"/>
        <pt x="834" y="850" on="1"/>
        <pt x="829" y="841" on="1"/>
        <pt x="787" y="841" on="1"/>
        <pt x="755" y="946" on="0"/>
        <pt x="681" y="967" on="1"/>
        <pt x="656" y="974" on="0"/>
      </contour>
      <contour>
        <pt x="655" y="1181" on="1"/>
        <pt x="759" y="1181" on="0"/>
        <pt x="940" y="1101" on="0"/>
        <pt x="1008" y="1033" on="1"/>
        <pt x="1152" y="887" on="0"/>
        <pt x="1152" y="676" on="1"/>
        <pt x="1152" y="465" on="0"/>
        <pt x="1008" y="318" on="1"/>
        <pt x="862" y="171" on="0"/>
        <pt x="656" y="171" on="1"/>
        <pt x="448" y="171" on="0"/>
        <pt x="302" y="318" on="1"/>
        <pt x="159" y="464" on="0"/>
        <pt x="159" y="676" on="1"/>
        <pt x="159" y="884" on="0"/>
        <pt x="302" y="1031" on="1"/>
        <pt x="449" y="1181" on="0"/>
      </contour>
      <contour>
        <pt x="975" y="1000" on="1"/>
        <pt x="841" y="1136" on="0"/>
        <pt x="656" y="1136" on="1"/>
        <pt x="466" y="1136" on="0"/>
        <pt x="334" y="1002" on="1"/>
        <pt x="202" y="869" on="0"/>
        <pt x="202" y="676" on="1"/>
        <pt x="202" y="491" on="0"/>
        <pt x="330" y="354" on="1"/>
        <pt x="461" y="215" on="0"/>
        <pt x="656" y="215" on="1"/>
        <pt x="844" y="215" on="0"/>
        <pt x="974" y="348" on="1"/>
        <pt x="1107" y="485" on="0"/>
        <pt x="1107" y="676" on="1"/>
        <pt x="1107" y="770" on="0"/>
        <pt x="1035" y="940" on="0"/>
      </contour>
    </TTGlyph>
</ttFont>
